<mxfile host="app.diagrams.net" modified="2023-07-16T13:11:01.821Z" agent="Mozilla/5.0 (Macintosh; Intel Mac OS X 10_15_7) AppleWebKit/537.36 (KHTML, like Gecko) Chrome/114.0.0.0 Safari/537.36" etag="bLcjyHDVHCnmapdeEq1n" version="21.5.0" pages="2">
  <diagram name="idées" id="OZYvjtsSfJvMak3LN1Pz">
    <mxGraphModel dx="954" dy="548" grid="1" gridSize="10" guides="1" tooltips="1" connect="1" arrows="1" fold="1" page="1" pageScale="1" pageWidth="827" pageHeight="1169" math="0" shadow="0">
      <root>
        <mxCell id="0" />
        <mxCell id="1" parent="0" />
        <mxCell id="oFUpLvgKI00dgRoho230-1" value="" style="shape=step;perimeter=stepPerimeter;whiteSpace=wrap;html=1;fixedSize=1;fillColor=#f0a30a;fontColor=#000000;strokeColor=#BD7000;" vertex="1" parent="1">
          <mxGeometry x="60" y="40" width="650" height="80" as="geometry" />
        </mxCell>
        <mxCell id="oFUpLvgKI00dgRoho230-2" value="faire une petite appli perso et sans methode de connexion pour le moment pour experimenter Express et la connexion a une base de données" style="text;html=1;strokeColor=none;fillColor=none;align=center;verticalAlign=middle;whiteSpace=wrap;rounded=0;fontColor=#000000;" vertex="1" parent="1">
          <mxGeometry x="190" y="70" width="390" height="30" as="geometry" />
        </mxCell>
        <mxCell id="oFUpLvgKI00dgRoho230-3" value="" style="shape=step;perimeter=stepPerimeter;whiteSpace=wrap;html=1;fixedSize=1;fillColor=#e3c800;fontColor=#000000;strokeColor=#B09500;" vertex="1" parent="1">
          <mxGeometry x="60" y="150" width="650" height="200" as="geometry" />
        </mxCell>
        <mxCell id="oFUpLvgKI00dgRoho230-4" value="appli de biliothèque familliale par exemple. l appli doit reprendre:&lt;br&gt;-le titre&lt;br&gt;-l&#39;auteur&lt;br&gt;-année de parution-&lt;br&gt;-nombre de pages&lt;br&gt;-collection&lt;br&gt;-résumé&lt;br&gt;-photo&amp;nbsp;&lt;br&gt;-avis (note de 1 à 10 par ex)" style="text;html=1;strokeColor=none;fillColor=none;align=center;verticalAlign=middle;whiteSpace=wrap;rounded=0;fontColor=#000000;" vertex="1" parent="1">
          <mxGeometry x="190" y="120" width="390" height="200" as="geometry" />
        </mxCell>
        <mxCell id="oFUpLvgKI00dgRoho230-5" value="" style="shape=step;perimeter=stepPerimeter;whiteSpace=wrap;html=1;fixedSize=1;fillColor=#f0a30a;fontColor=#000000;strokeColor=#BD7000;" vertex="1" parent="1">
          <mxGeometry x="60" y="370" width="650" height="150" as="geometry" />
        </mxCell>
        <mxCell id="oFUpLvgKI00dgRoho230-6" value="faire une seule page en responsive avec tous les champs de saisies (bootstrap)&lt;br&gt;pouvoir afficher une liste de livres (par ex 10 par page)&lt;br&gt;pouvoir afficher sous forme de cartes chaque livres&lt;br&gt;pouvoir modifier chaque livre&lt;br&gt;supprimer un livre (le masquer en cas de vente avec un statut vendu)&lt;br&gt;soigner le design (voire avec sabine)" style="text;html=1;strokeColor=none;fillColor=none;align=center;verticalAlign=middle;whiteSpace=wrap;rounded=0;fontColor=#000000;" vertex="1" parent="1">
          <mxGeometry x="155" y="400" width="460" height="30" as="geometry" />
        </mxCell>
        <mxCell id="oFUpLvgKI00dgRoho230-7" value="" style="shape=step;perimeter=stepPerimeter;whiteSpace=wrap;html=1;fixedSize=1;fillColor=#b0e3e6;strokeColor=#0e8088;fontColor=#000000;" vertex="1" parent="1">
          <mxGeometry x="60" y="540" width="650" height="100" as="geometry" />
        </mxCell>
        <mxCell id="oFUpLvgKI00dgRoho230-8" value="Enregistrer dans une base de données mysql acces mono client pour le moment&lt;br&gt;par la suite dev un accès multi clients&lt;br&gt;techno front, ReactJS + bootstrap&lt;br&gt;techo back, Express&lt;br&gt;Techno BD, mysql" style="text;html=1;strokeColor=none;fillColor=#b0e3e6;align=center;verticalAlign=middle;whiteSpace=wrap;rounded=0;fontColor=#000000;" vertex="1" parent="1">
          <mxGeometry x="155" y="570" width="460" height="30" as="geometry" />
        </mxCell>
        <mxCell id="QONf86IAtys4MjCOJ6v7-1" value="" style="shape=process;whiteSpace=wrap;html=1;backgroundOutline=1;fillColor=#ffff88;strokeColor=#36393d;" vertex="1" parent="1">
          <mxGeometry x="100" y="730" width="580" height="220" as="geometry" />
        </mxCell>
        <mxCell id="QONf86IAtys4MjCOJ6v7-3" value="mode opératoire:&lt;br&gt;bien identifier les données a enregistrer&lt;br&gt;bien déterminer les relations les relations&lt;br&gt;identifier les tables à créer&lt;br&gt;faire le diagramme de&amp;nbsp;&lt;br&gt;faire le diagramme de classes&lt;br&gt;créer les cardinalités&lt;br&gt;identifier les tables jointes (utiliser le bon vocabulaire)" style="text;html=1;strokeColor=none;fillColor=none;align=center;verticalAlign=middle;whiteSpace=wrap;rounded=0;fontColor=#000066;" vertex="1" parent="1">
          <mxGeometry x="200" y="670" width="390" height="250" as="geometry" />
        </mxCell>
      </root>
    </mxGraphModel>
  </diagram>
  <diagram id="oI3uvy7z7IEW4s_wrHq_" name="Page-2">
    <mxGraphModel dx="954" dy="548" grid="1" gridSize="10" guides="1" tooltips="1" connect="1" arrows="1" fold="1" page="1" pageScale="1" pageWidth="827" pageHeight="1169" math="0" shadow="0">
      <root>
        <mxCell id="0" />
        <mxCell id="1" parent="0" />
        <mxCell id="ddCJXQsrm5lGL4eYq6sv-1" value="" style="shape=process;whiteSpace=wrap;html=1;backgroundOutline=1;fillColor=#e6d0de;gradientColor=#d5739d;strokeColor=#996185;" vertex="1" parent="1">
          <mxGeometry x="199" y="385" width="430" height="275" as="geometry" />
        </mxCell>
        <mxCell id="ddCJXQsrm5lGL4eYq6sv-2" value="&lt;font color=&quot;#0000ff&quot;&gt;Gestion des livres&lt;/font&gt;" style="text;html=1;strokeColor=none;fillColor=none;align=center;verticalAlign=middle;whiteSpace=wrap;rounded=0;" vertex="1" parent="1">
          <mxGeometry x="353" y="380" width="140" height="30" as="geometry" />
        </mxCell>
        <mxCell id="ddCJXQsrm5lGL4eYq6sv-3" value="" style="rounded=0;whiteSpace=wrap;html=1;" vertex="1" parent="1">
          <mxGeometry x="259" y="410" width="130" height="25" as="geometry" />
        </mxCell>
        <mxCell id="ddCJXQsrm5lGL4eYq6sv-4" value="créer" style="text;html=1;strokeColor=none;fillColor=none;align=center;verticalAlign=middle;whiteSpace=wrap;rounded=0;" vertex="1" parent="1">
          <mxGeometry x="299" y="407.5" width="60" height="30" as="geometry" />
        </mxCell>
        <mxCell id="ddCJXQsrm5lGL4eYq6sv-5" value="" style="rounded=0;whiteSpace=wrap;html=1;" vertex="1" parent="1">
          <mxGeometry x="453" y="410" width="126" height="25" as="geometry" />
        </mxCell>
        <mxCell id="ddCJXQsrm5lGL4eYq6sv-6" value="modifier" style="text;html=1;strokeColor=none;fillColor=none;align=center;verticalAlign=middle;whiteSpace=wrap;rounded=0;" vertex="1" parent="1">
          <mxGeometry x="486" y="407.5" width="60" height="30" as="geometry" />
        </mxCell>
        <mxCell id="ddCJXQsrm5lGL4eYq6sv-7" value="" style="rounded=0;whiteSpace=wrap;html=1;" vertex="1" parent="1">
          <mxGeometry x="259" y="465" width="130" height="65" as="geometry" />
        </mxCell>
        <mxCell id="ddCJXQsrm5lGL4eYq6sv-8" value="voir la liste des livres dans des cartes" style="text;html=1;strokeColor=none;fillColor=none;align=center;verticalAlign=middle;whiteSpace=wrap;rounded=0;" vertex="1" parent="1">
          <mxGeometry x="279" y="477.5" width="90" height="30" as="geometry" />
        </mxCell>
        <mxCell id="ddCJXQsrm5lGL4eYq6sv-9" value="" style="rounded=0;whiteSpace=wrap;html=1;" vertex="1" parent="1">
          <mxGeometry x="449" y="460" width="130" height="65" as="geometry" />
        </mxCell>
        <mxCell id="ddCJXQsrm5lGL4eYq6sv-10" value="voire chaque livre sous forme de carte" style="text;html=1;strokeColor=none;fillColor=none;align=center;verticalAlign=middle;whiteSpace=wrap;rounded=0;" vertex="1" parent="1">
          <mxGeometry x="469" y="477.5" width="90" height="30" as="geometry" />
        </mxCell>
        <mxCell id="ddCJXQsrm5lGL4eYq6sv-11" value="" style="rounded=0;whiteSpace=wrap;html=1;" vertex="1" parent="1">
          <mxGeometry x="259" y="560" width="130" height="65" as="geometry" />
        </mxCell>
        <mxCell id="ddCJXQsrm5lGL4eYq6sv-12" value="supprimer un livre" style="text;html=1;strokeColor=none;fillColor=none;align=center;verticalAlign=middle;whiteSpace=wrap;rounded=0;" vertex="1" parent="1">
          <mxGeometry x="279" y="577.5" width="90" height="30" as="geometry" />
        </mxCell>
        <mxCell id="ddCJXQsrm5lGL4eYq6sv-13" value="" style="image;html=1;image=img/lib/clip_art/computers/Laptop_128x128.png" vertex="1" parent="1">
          <mxGeometry x="60" y="40" width="80" height="80" as="geometry" />
        </mxCell>
        <mxCell id="ddCJXQsrm5lGL4eYq6sv-14" value="" style="image;html=1;image=img/lib/clip_art/computers/Server_128x128.png" vertex="1" parent="1">
          <mxGeometry x="373.5" y="40" width="80" height="80" as="geometry" />
        </mxCell>
        <mxCell id="ddCJXQsrm5lGL4eYq6sv-15" value="" style="image;html=1;image=img/lib/clip_art/computers/Database_128x128.png" vertex="1" parent="1">
          <mxGeometry x="680" y="30" width="80" height="80" as="geometry" />
        </mxCell>
        <mxCell id="ddCJXQsrm5lGL4eYq6sv-16" value="" style="endArrow=classic;html=1;rounded=0;" edge="1" parent="1">
          <mxGeometry width="50" height="50" relative="1" as="geometry">
            <mxPoint x="160" y="80" as="sourcePoint" />
            <mxPoint x="360" y="80" as="targetPoint" />
          </mxGeometry>
        </mxCell>
        <mxCell id="ddCJXQsrm5lGL4eYq6sv-17" value="" style="endArrow=classic;html=1;rounded=0;" edge="1" parent="1">
          <mxGeometry width="50" height="50" relative="1" as="geometry">
            <mxPoint x="470" y="79.5" as="sourcePoint" />
            <mxPoint x="670" y="79.5" as="targetPoint" />
          </mxGeometry>
        </mxCell>
        <mxCell id="ddCJXQsrm5lGL4eYq6sv-18" value="" style="shape=image;imageAspect=0;aspect=fixed;verticalLabelPosition=bottom;verticalAlign=top;image=data:image/png,iVBORw0KGgoAAAANSUhEUgAAAL8AAAA2CAYAAACWVUgWAAAYfmlDQ1BJQ0MgUHJvZmlsZQAAWIWVeQdUFE2zds9GdlmWnHNOknPOOecosOScMypRJKgEAUVABRUEFUwEERURRBQRVMCASFCJKqggCMgdgr7v5/ef/57bnJ55trq6qrqqe2qKAYB1hBQeHoygAiAkNDrS2kCby9HJmQs7BSD4jx4AQE3yigrXsrQ0hTH4ff/PtjwE88LtudiWrP8e//82Gm+fKC8AIFcYe3pHeYXAuB0AVLlXeGQ0AJgtOm9cdPgWToExXSRsIIyLtrDfDr6whT13cNs2j621Doz7ASAjkEiRfgAQR2A6V6yXHyyHuA6P0YR6B4QCQA+vHKPu5U/yBoDVEubZExIStoX3wVgI5g+H8TkYK3r+S6bff8j3/COfRPL7g3fWtd3IdAOiwoNJCf9H1/zvLSQ45rcOAbgT/CMNrbfWD/vwZVCYyRYmwHg+1NPcYsvXMF4J8N7xOwAIvH+Mod0OP4LNK0oH9h9ggLGkN0nXBMZsMNYPDTY33aV7+gboG8EY9hkiPiDayBbGTDDO8onSs9nlORMZZr2rC9HkG6mjtUt/SIrc1rulazQmyE5rV/5Xfx+jXflIYqK/rQOM8TDmiw2wN4cxEcbiUUE2Jrs8qon+Oua/eSJjrLfs54OxtU+ogfaOfGSsb6S+9S5/TkjU7/Uiz/gHGJnv4mvR/raGO/5BdnqRtu2H14Ls9wnVsvstxyfK0fT3Wrx9dPV21o6c9gm1s9mVsxIerW29MxeFDw+23OVH8fgEG2zReWAsGxVrszsXZR8Nb84d+Sjf8GhL2x07UYmBJGPLHXtQ+cAU6ABdwAVi4O4JwkAgCOibb56Hf+2M6AMSiAR+wAeI7VJ+z3DYHgmFrzYgEXyCkQ+I+jNPe3vUB8TC9I0/1J2rGPDdHo3dnhEEPsI4BJiAYPh3zPas0D/a7MF7mBLwX9pJcPeC7Q2G+9b4/5v+m/oPRQummO5SYn5r5KL8zYnRw+hiDDH6GGEUC0odpYIyha+acJdGKaKUfq/jH370R/QAegI9iB5Dv3IPSIv8y0ozMAbL19/1hee/fYESgGXKobRRarB0WDKKAcUCxFCysB4tlAasWQ6m6uzaveUVrr9k/8cK/hWNXT6cJA6BY8Rp4oT+nkkUIcr9kbLl63/7Z8dWzz/+1vkz8rd+nX953xu+m/zNicxCXkd2I+8he5BtyGbAhbyLbEH2Im9v4T+76/327vqtzXrbniBYTsB/6SPt6tzyZJTkRckZyfWdsWif+Oitg6cTFp4QGeDnH82lBWcHHy6jUC/xPVzSktIyAGzlmp3H1zfr7RwCMTz9h+YzDYAqfGZw/f/QAo8BUNcFAGPOPzQBFwCY9wBw9ZlXTGTsDg21dUHDTwlK+KQxAw7AC4Tg9UgDeaACNIEeMAYWwBY4ATfYy/7wPo8EcWAfSAWZIBfkg2JwEpwGZ8EFcBlcA82gDdwDD8Bj0A8GwRt493wAc2ABLIM1CIKwEAVECzFDnBA/JApJQ4qQOqQHmULWkBPkAflBoVAMtA9Kh3KhQugkVAnVQlehm9A9qAcagF5B49AM9BX6iUAiCAg6BDtCACGBUERoIUwQtoi9CD9EBCIRkYE4ijiBqEJcQjQh7iEeIwYRY4g5xBISIMmRDEhupBhSEamDtEA6I32RkcgDyBxkCbIKWY9sheP8HDmGnEeuojAoWhQXSgzewYYoO5QXKgJ1AHUYdRJ1AdWE6kQ9R42jFlC/0BRoNrQoWhlthHZE+6Hj0JnoEnQ1uhHdBZ+lD+hlDAbDgBHEKMBn0QkTiEnCHMZUYBow7ZgBzCRmCYvFMmNFsWpYCywJG43NxJZiL2HvYp9hP2BXyMjJOMmkyfTJnMlCydLISsjqyO6QPSObIlvDUeH4cco4C5w3LgGXhzuHa8U9xX3AreGp8YJ4NbwtPhCfij+Br8d34Ufw38jJyXnIlcityAPIU8hPkF8hf0g+Tr5KoCGIEHQIroQYwlFCDaGd8IrwjYKCQoBCk8KZIpriKEUtxX2KUYoVIi1RnGhE9CYmE8uITcRnxM+UOEp+Si1KN8pEyhLK65RPKeepcFQCVDpUJKoDVGVUN6mGqZaoaamlqC2oQ6gPU9dR91BP02BpBGj0aLxpMmjO0tynmaRF0vLS6tB60abTnqPtov1Ah6ETpDOiC6TLpbtM10e3QE9DL0tvTx9PX0Z/m36MAckgwGDEEMyQx3CNYYjhJyM7oxajD2M2Yz3jM8YfTKxMmkw+TDlMDUyDTD+ZuZj1mIOYC5ibmd+yoFhEWKxY4lhOsXSxzLPSsaqwerHmsF5jfc2GYBNhs2ZLYjvL1su2xM7BbsAezl7Kfp99noOBQ5MjkKOI4w7HDCctpzpnAGcR513OWS56Li2uYK4TXJ1cC9xs3IbcMdyV3H3cazyCPHY8aTwNPG958byKvL68RbwdvAt8nHxmfPv4LvK95sfxK/L78x/n7+b/ISAo4CBwSKBZYFqQSdBIMFHwouCIEIWQhlCEUJXQC2GMsKJwkHCFcL8IQkROxF+kTOSpKEJUXjRAtEJ0YA96j9Ke0D1Ve4bFCGJaYrFiF8XGxRnETcXTxJvFP0vwSThLFEh0S/ySlJMMljwn+UaKRspYKk2qVeqrtIi0l3SZ9AsZChl9mWSZFplFWVFZH9lTsi/laOXM5A7JdchtyCvIR8rXy88o8Cl4KJQrDCvSKVoqHlZ8qIRW0lZKVmpTWlWWV45Wvqb8RUVMJUilTmVaVVDVR/Wc6qQajxpJrVJtTJ1L3UP9jPqYBrcGSaNKY0KTV9Nbs1pzSktYK1DrktZnbUntSO1G7R86yjr7ddp1kboGujm6fXo0enZ6J/VG9Xn0/fQv6i8YyBkkGbQbog1NDAsMh43YjbyMao0WjBWM9xt3mhBMbExOmkyYiphGmraaIcyMzY6ZjZjzm4eaN1sACyOLYxZvLQUtIyxvWWGsLK3KrD5aS1nvs+62obVxt6mzWbbVts2zfWMnZBdj12FPae9qX2v/w0HXodBhzFHCcb/jYycWpwCnFmess71ztfOSi55LscsHVznXTNehvYJ74/f2uLG4Bbvddqd0J7lf90B7OHjUeayTLEhVpCVPI89yzwUvHa/jXnPemt5F3jM+aj6FPlO+ar6FvtN+an7H/Gb8NfxL/OcDdAJOBiwGGgaeDvwRZBFUE7QZ7BDcEEIW4hFyM5QmNCi0M4wjLD5sIFw0PDN8LEI5ojhiIdIksjoKitob1RJNB7/U98YIxRyMGY9Vjy2LXYmzj7seTx0fGt+bIJKQnTCVqJ94PgmV5JXUsY97X+q+8f1a+ysPQAc8D3Qk8yZnJH9IMUi5kIpPDUp9kiaZVpj2Pd0hvTWDPSMlY/KgwcGLmcTMyMzhQyqHTmehsgKy+rJlskuzf+V45zzKlcwtyV0/7HX40RGpIyeObB71PdqXJ593Kh+TH5o/VKBRcKGQujCxcPKY2bGmIq6inKLvxe7FPSWyJaeP44/HHB87YXqipZSvNL90/aT/ycEy7bKGcrby7PIfFd4Vz05pnqo/zX469/TPMwFnXlYaVDZVCVSVnMWcjT378Zz9ue7ziudrq1mqc6s3akJrxi5YX+isVaitrWOry7uIuBhzceaS66X+y7qXW+rF6isbGBpyr4ArMVdmr3pcHbpmcq3juuL1+hv8N8obaRtzmqCmhKaFZv/msRanloGbxjc7WlVaG2+J36pp424ru01/O+8O/k7Gnc27iXeX2sPb5+/53ZvscO94c9/x/otOq86+LpOuhw/0H9zv1uq++1DtYVuPcs/NR4qPmh/LP27qlettfCL3pLFPvq/pqcLTln6l/tYB1YE7zzSe3Xuu+/zBC6MXjwfNBweG7IZeDrsOj730fjn9KvjV4uvY12tvUkbQIzlvqd6WjLKNVr0TftcwJj92e1x3vHfCZuLNpNfk3Puo9+sfMj5SfCyZ4pyqnZaebpvRn+mfdZn9MBc+tzaf+Yn6U/lnoc83vmh+6V1wXPiwGLm4+fXwN+ZvNd9lv3csWS6NLocsr/3IWWFeubCquNr90+Hn1FrcOnb9xIbwRusvk18jmyGbm+GkSNL2qwAS7ghfXwC+1gBA4QQALVy34V12asHdhoRfPhDw3R7SQ2ghFVFMaDyGDCtJ5oRLx98lYChIxGYqPHUwzSM6OfpyRsAUxNzHKs+Wzz7HqcmVxz3Ai+dT4ncSCBIMEXIV1hZhF1kUfbCnVCxIXE2CQuKdZINUirSVDLfMJ9mbcgflrRTYFD4o1ivFK2up4FWeq5areavvUf+q0ay5T0tbm6D9TueObp1ehX6BwQFDkpGGMZPxokmvab1ZhXmlRZvlpDXahtmWxY7KHmm/7rDmBJxxLkRXir2ovUtuE+79Hu2k657VXqXeOT4Jvn5+tv7aAbKBIkHcwcwhlKHI0O9hE+H9Ebciz0UdjU6OyYxtjEcl+CS27wP7BQ4oJxuluKTGpB1NL85IOih7cDIz75BlFn82eQ7IRRymPiJ0VD3PPN+hwLnQ+ZhjkX2xbYnVcfMTJqUGJ7XL1MuVKmROiZ0WOSNZaVKVfnbsvFH1pZq5Wuo6/otSl1Qu69abNThccb/qfy38etyNA41pTQebs1pyb+a1Ft8qb6u+feNO193h9rF7Qx0N9307mTofdpU8iOv2fbi3x+GR1WOTXoMnhn22TyP6zwy8ek7+QmJQZ8hoWO+l4iv+18TXq2+mR16+vTd69l36mN+43YT5pNl7iw8WH42nlKYZp8dmcmZlZ8fmLswnfjL8TPa59ovBl8mFs4vxX92+WXw3Wwpc7lg59LN5Q3dzczf+UkgUcgY1hp7ELJAhcfJ4f/JywhhRhDKO6gENM20C3QsGacY0prcscqyZbP0cLJyOXAXcbTwjvEt8y/yzAk8EzwpFCquLkIm8ED29J1BMTuyX+AOJo5IOUpxSU9L1MrGyanKQXJd8joKFIq3ikFKpsosKu8oIvAtc1ZnVhzWOa7poCWitaQ/qXNU9rOejr2pAbfDRsM2o2DjWxMfU08zfPMwixNLTysJaxUbEltWOaI+wX3aYchxyuu9c71LmmrM30S3A3dFDlyThyeQFec16D/p0+jb6VfuXBGQEhgU5BWuGCIZSwDthPHw04nsUd7R7TGnsvbiX8ZMJ84mr+8j3cxwQSuZKwaS8S21My0uPzHA7aJfpeCggKz27IudybuPhpiM3jl7Nu5xfW3C+8MyxsqLi4ryS7ONpJxJKw076lQWUp1TcPS185kKV4NnCc8/Pr9YQL7DU8taJwPtA4bJ6vW6D2RWnq8HXMq+fvXGncaBptHm65Vsr8hZjm+htlTuadxXaue8h7k10dN9v7KzpKnuQ333wYWJP5KPox9m9bX0MT/f3v33G8lzjhe2g71DK8PmXT199f0MzIvbWdDT83fGxW+PPJkYnJ97PfUTD0U+dGZijnpf8JPdZ4Avll5WFj4vDXx99u/m9cil52f6H4I/llbbVxJ8qa4R13Y2Z3fiLQ3OICqQbShiNRS9iZrCzZBO4RXI8gZ9Ci+hMmUp1iXqAZpOOn16PIZDxINNp5hssXawP2R6w3+Ko5Izn0ub6yX2Ox4RnjjeLT5Cvg9+Nf1WgSFBS8JGQnzBWuEbEUGRKNHOP0J4uMS9xIF4hoSrxUjIGfrtpkDaVnpZJl+WQbZGzlpuXP6jAqdAMv7VMKyUrMyhfVNFSeabqpfpZLUkdq16mIasxpJmoxaHVom2h/UrHX2dTt0rPUh+nf99gn6Gs4axRlbGrCZPJkGmxmY05pXmPRbqliuV3qwbrIBtBm/e2lXZ77ZntXzjkORo6bjo1Oge78Lm8dS3Za7532a3Ind/9hoeWx2tSvCeP50v4OeLvY+Cr4KfkbxRACgwJIgVrhFCFjISeDwsJlwtfj7gfmRNlGU0f/SbmdKx3nEDcx/hTCXoJI4nBSXRJz/fd2n/nQGfy/ZSbqbVpJenpGWEHXTL1DolkobNeZJfmOOfy5a4dHjvy5OjNvDP5BwpcCpWPsRxbLRoqvlZy/PiRE4WllSevlz0of1kxe2rtDEUlV5XMWcNzrufDqg/UZF84XJtSR7qocIl46evlT/WrVwhXOa5JX7e8kdR4o2mlRelmeGvprSttLbdv3em5u3TPoONmp03XUndJj8yjF71H+jz6jZ5pvdAeCn5FHJmb6Jtd+r66Ff+d/wluNYw8AMdS4Qo1EwA7DQAKOuE6cxCuO/EAWFIAYKsEEAK+AEHoBZDy+J/8AcHZBgPIATVgApxAEEgCZbhKtgDOwBdEwdVlHjgF6sEd8BSMg+9w5cgGSUEGkDsUBxVAl6CH0EcEBiGEMEVEISrgOm8TrutikTeRv1AGqGOoCbQMOgv9DqOMKcWswRXWIzIFshocK64AT47PJseT5xNYCDUUshRtRDViK6Ui5S0qQ6o31NE0VDSXaXVpB+hs6QboLeifMbgzrDCWMqkxjTLvZ2FlaWV1Y8OxtbHHcshyfOO8xhXJLce9ztPNW8Lnz68qQBQYE7wulCXsKaIlKrCHuGdN7LP4e4lByUapJGkp6VGZLFk52S9yLfKFCgmK3kqmypIqjKpENXH1Mk1RrSPaPTpf9Mj06Q2YDdmM+IxlTcxNI8xOmHdafLXitXawOWrbbY9y0HXMdOp1YXD13Fvn9t4DQ6L2xHgueX3wHvGZ9aP0NwkoDpwKVg0pCv0cbhxRF0WIjoh5Hacf35IollS9n+tAWQpDakE6PiP14NKhwKy5nNzDIUcbC6iPsRR9Kqk94X6Soay/4shpgzNLVXnn6M5nVS9fCKr9ejH/sl4D9ZXFax9vTDfNtUy1TrYt3mW8p3Pfrcuj26ZH47HEE+Gn8gOhz1eGUa9xI6ff0Y7f+UCc3jen9anhy9pX+e/6y/gfR1YerU7//LD2av3GRv4vz03J7efHVvyxgABoADPgBiJABqgBQ2ALPEAISALZoBTUgpvgMXgLFiA0xAJJbkc/ASqCrkB90CcEJUIG4YxIR1xDfEByIt2R55DzKHlUBmoQLYxORY/AsS/DAqw/dpBMj6wFJ4GrwwvjL5HLkt8lWBImKeKJOGIxJTflFbh+fUMdR8NA00xrT/uJbj89nv4EgxjDI8YwJkamduYAFjqWdtYwNj62EfZSDkdOJs5XXBXc3jySvID3Bd9F/gwBV0FZuJabFe4VuQ5nsTyxdPF9EtGSXlKa0gTpPpkcWRM5RrlF+VcK3YpNSlXKh1USVWPVstVbNH5oyWh76+TqVus16d8yuGV426jHeNwUYSZibm9x0LLZat6Gz9bdrsJ+1JHHKdC5yRW718HtpHuXxwCpw7PWK8s7wMfa19DPyT8toD2IItgzpC2MJTwx4m2UdnRtLGVcePzjRO6k2H39B+SSz6WyphVl4A8mZc5nkbInchOPSOYh8t8WXi2KLZE9/rX0allMhfKpn2eqq6TPVpybqhas8b9wpY7xYvlltfpPV0qvKV3vayQ1rbVUtVq1gdu1d03bFztOd3o+UH7I/Qj1+MmT2KeY/pxnhOdVg+7DZq+C39S8nRrjnLB8n/rxzgzjXP5ngYUn34qWD68arUmvn9p4/2txN/4ogANU8OnnBqJAHugAS+AGx34/fPIrwQ3wEIzC554ACUCa0F4oCSqDbkPjCBwcdRKiGNGPpEf6IG+j2FApqFm0E/oJRgdzG6uGvUdmSvYWF4WnxF8htycgCc0UEUQp4gplF1UpdQyNE60RnTG9FYMxowKTMLMciztrAls0uyeHLac5lxm3GY8prxmfNb+7QJTgEaE64YciM3soxBTEfSVOSg5Js8h4yzbIrSlYKj5RzlZ1Ukdr5Guua5vopMMRbNZvM7hj2Ge0ZmJi2mQubnHJSty6yVbHbsghxAnvfMnV3o3ag9zT3dvF572fin9uwMcg6+DeULOwZxEukdPRSbEccaMJD5La91ck26X8TKvMsM/kPLSQfTv38BHfPIMC5sLHRb7Fy8fTS6lPVpXLVzw57VsJVZWfUzw/WBNTy1r38FJyvcEViWv6N5KbqlryWp3aGG8P3y2753Qf23n+gWz3rR69R8O98X0S/ciBhefTgwPDBa8EX1e8+fVWbzTn3eNxygm7yTPvZz5KTQVNn5l5ODs7j/7E9lnyi+6CwyLpq/c3y+8835eWjiyzLdf9UPpx8sfqisNK0yrDauRq0+raT82fGT971ohrNmvH1/rXydY11+PXr67PbHBvOG0Ubjza2Pgl9cv71/Ffj3/92pTa9Nk8sdm7Ff8oXxnp7fQBEbQBQI9ubn4TAABbCMBGwebmWtXm5sZZuNgYAaA9eOc703auoQKgfGELPW75XPn3N56db1D/qmP+voPtTLStFc5EW20rK4H/Ab8i6V9gYWvZAAAAVmVYSWZNTQAqAAAACAABh2kABAAAAAEAAAAaAAAAAAADkoYABwAAABIAAABEoAIABAAAAAEAAAC/oAMABAAAAAEAAAA2AAAAAEFTQ0lJAAAAU2NyZWVuc2hvdJyfQrAAAAHVaVRYdFhNTDpjb20uYWRvYmUueG1wAAAAAAA8eDp4bXBtZXRhIHhtbG5zOng9ImFkb2JlOm5zOm1ldGEvIiB4OnhtcHRrPSJYTVAgQ29yZSA2LjAuMCI+CiAgIDxyZGY6UkRGIHhtbG5zOnJkZj0iaHR0cDovL3d3dy53My5vcmcvMTk5OS8wMi8yMi1yZGYtc3ludGF4LW5zIyI+CiAgICAgIDxyZGY6RGVzY3JpcHRpb24gcmRmOmFib3V0PSIiCiAgICAgICAgICAgIHhtbG5zOmV4aWY9Imh0dHA6Ly9ucy5hZG9iZS5jb20vZXhpZi8xLjAvIj4KICAgICAgICAgPGV4aWY6UGl4ZWxZRGltZW5zaW9uPjU0PC9leGlmOlBpeGVsWURpbWVuc2lvbj4KICAgICAgICAgPGV4aWY6UGl4ZWxYRGltZW5zaW9uPjE5MTwvZXhpZjpQaXhlbFhEaW1lbnNpb24+CiAgICAgICAgIDxleGlmOlVzZXJDb21tZW50PlNjcmVlbnNob3Q8L2V4aWY6VXNlckNvbW1lbnQ+CiAgICAgIDwvcmRmOkRlc2NyaXB0aW9uPgogICA8L3JkZjpSREY+CjwveDp4bXBtZXRhPgriMXGRAAAIj0lEQVR4Ae1cXahVVRAexTeN3sTeorKC6PepzApES6KykDSKEEQTKq0oRAgT+oEQIokKIhF6iSSEhIj+CKKSAiOtfCgrerAQHwpJe+y2vrude+asOzN7nX32vedy9izYd629fr41M+vbs372Pnfef6dpgiKEBTpogfkd1DlUDgtMWiDIH0TorAWC/J0d+lA8yB8c6KwFgvydHfpQPMgfHOisBYL8nR36UDzIHxzorAWC/J0d+lA8yB8c6KwFgvydHfpQPMgfHOisBYL8nR36UDzIHxzorAWC/J0d+lA8yB8c6KwFgvydHfpQPMgfHOisBYL8nR36UDzIHxzorAVc8m99imj++cNf777XWft2TvFTp5rz5eNPbXOhDDxaeYeOD66i3MPI0RfkGXEfFphLFgCh12+ol+i1N4lwcXjpBaI16UG56ELOmR67nn969cgJC8yOBc6eJYI3LyG+JtGTTxMdfF8r6eUF+Xu2iNQcssDuPf2evIloD6zzWwX5fftE6QgsgHX7c7uH63jndqLFi32MRuRfcRNR+k9vxde9dxO9/Kq+UcGGet9bupC70rpN23Bffh3Rb79XbbRy5CGgDtaMeR3eHE1WMv7kbfge1TElA1ceCBgwUzJoGzXYBDilgfu1bHn/xvpNXxsYnrwgnMeNk8e91lXZV9/Ydfa+ouPvTxzCOp/D2sS52oB/V2hdj2ye/FeG+HeGfVciv9nGwkL+fWv7cSTulx/1Y354oKyuxJDpZKQ+mWWZTKMfTWZZR6Yhp7zndI6RBnnCsh+3kXEaPFUOxk0Dq/YrMfJ0rlsbGCxP0xh2yeXke5YX/OI8GSdv7toIMv3zJ03U2ZJlb+T5k0CNwp4XiS69WG/6zPOVR0Upjsu2pWlLC3jCl12vlfTnbdrWf2/drV5bzUpWeZ6//LY8Z/r998eIliwdbM2KjR08NzxzHpCPDdyg4fSZXos2MHpoo0n99Xd9vwsXEmGlURJmlfyYEve9rov12RdE2OQgPL6D6Odfq7T8i3VcqWKyXV0axBpk+eHhYal1zTKvhl32zgGizVv7yyEX8gcNcDK3r6patYExaP/D1LfW6jjK5KUdHOTQgacALR5k2k6CqFMVprkc21uSWEsjTIWY0nIsq98m+VLWQdtDLshnTdmD4PH0D8xEYtWudXhY4rCt2sBgrGHjkmUPli11+nE5OIr6+bK5RE5sTqaMlKdnivzoxyI5K5XHvxzV5czryXv0Idsh7fWLh5JtIHHyNMgkCcptvEFDGddDDBJgDZtj417uqbRy5GmDDf3QD9qXPMiDYEjZh0mXkB9OxBsnyybIx0N/5FC/rS15R0Z+GKHUI+XEkcpYhrBmCs87w+CMbeFCZkksro/YGjDtQeF2loPhh1azkScD48q4DQyJN0y6hPzAH+YB4IegTs5ZXfMnoaaCt/6fqpQSTdf5WzYRYfOTB+ShTAtYW2sbTll3+2P2+bG1Nsemmo9K81i+kpf9nDxZ3W1Jm908YD+EDTWwcEyMNT0uax3cBkYuw0zfY5ze3keUHAclpzJwwD4OR+Vu8J4OyyslQHW61vItL8n9eut/y3tzW8Ran8jzpj6UWe1YXqvc8uKeR7OwvHzuB7iwg1c3L8PUzzMHbNQGhrT5MGnPTqyzhY8VAK5cX+/e40Ejz58Gw32RkYSfKrd27kng2oAToKM/1FYbywqLFlVqwX4H9xMlJ1Ec4PUuuZoIR64IbWBUSKP9i5M+XMwvzAp1djl82Ja5EfltuMFKDn1NVHcev/Fhezr3evvpuF3qlWlLJRupV+I95BgkHrDSWL7LgEwbN1QYyZNR8n6TV/Lwblj3YG8Z1waG25ko9JaOZ/4VFbPkkguyjJrbW1dWdkn7A/P90XeO8xwZ+XEeXvLCCOtbnPsPGt7Y2xt42RYDgzItYG3ZlPzAS8tENezeo8vCleEEPMLIsquuqLwfPOATj/YeKuyN8gDb8czZBkaOb93v2GW/OPz2iNWKaFF6yDng+x6s2cGTuoAxW7Wirtb08pGQHwPxUBq40oCNpPX9j4WBJRNeGEnjIY08lGlh5S1abnnenav1uuhvzfrpP7SAPPhOB04AhLEC2uJ7JmxqrR9rWG8//zi3cW4Dw5JP5kMfbOKx9MK3T9L+eMh3Pitr99LpRKrv23s4DHzchuUbvouC7mivBXDDOji49kqtxbm8NA1PHe/l6TY2vKmbCVwS2zrfxpGc16d2Ls34bcTYjLGcFl7dpmzQzansB3bh/jmGzrLOoGm0bwOD5fFi7/CiTm75Ug42rqtfWi7HNJcda9FpBuc8j4ilnXM9xvR26xgk7xxeO99m/GFjyMUyIrbw6siPUxarbUm+JAHkGGYMYC/Ysw0MaRst7Y1rid6SpNb7khIcWQcPoyYr580q+T1iSEE9TwXDsPCIpbJN0znhPNw68qMtjtdAvCbywPuDsIzTBIPbQA5cfN8kRnvIUneBvE1JK20KnCZy5m20Mc11mDXyex49JzSE9KZQ6aVzpfneWlpxOcfS8NI4XJ7HVn3ZFmnoiwHI23v3GnYTjwp7ynP+NjBy/ax7b9xy3eEg4Og0LMjcxIFg2Wlh5v3MQ0YSSg3YsFgbCbWBk5mmXhMrPe3TfnWDTTE2adbmNCk4+Wkz3nJqIRGJbryB6INPqtMdiQNZbl7ufyHq4eKIrTRAD8jw4zH910mJLHRe0qHua1Vs9rB5tXAS4emeu4guW0qEEyEttIGh4Wp52KCeOKF/il2qM3Dx1vrzdLyLgM2y9rVvie4VQv9fl/z9VefmXVsknZvahVQzaYGRHHXOpEKBHRYotUCQv9RSUW/sLBDkH7shDYVKLRDkL7VU1Bs7CwT5x25IQ6FSCyworThX66Wj2ghhgUYWCM/fyGzRaBwsEOQfh1EMHRpZIMjfyGzRaBws8D+uKM1dEGHuwQAAAABJRU5ErkJggg==;" vertex="1" parent="1">
          <mxGeometry x="230" y="90" width="70.74" height="20" as="geometry" />
        </mxCell>
        <mxCell id="ddCJXQsrm5lGL4eYq6sv-19" value="" style="shape=image;imageAspect=0;aspect=fixed;verticalLabelPosition=bottom;verticalAlign=top;image=data:image/png,iVBORw0KGgoAAAANSUhEUgAAAKoAAABpCAYAAACqCriYAAAYfmlDQ1BJQ0MgUHJvZmlsZQAAWIWVeQdUFE2zds9GdlmWnHNOknPOOecosOScMypRJKgEAUVABRUEFUwEERURRBQRVMCASFCJKqggCMgdgr7v5/ef/57bnJ55trq6qrqqe2qKAYB1hBQeHoygAiAkNDrS2kCby9HJmQs7BSD4jx4AQE3yigrXsrQ0hTH4ff/PtjwE88LtudiWrP8e//82Gm+fKC8AIFcYe3pHeYXAuB0AVLlXeGQ0AJgtOm9cdPgWToExXSRsIIyLtrDfDr6whT13cNs2j621Doz7ASAjkEiRfgAQR2A6V6yXHyyHuA6P0YR6B4QCQA+vHKPu5U/yBoDVEubZExIStoX3wVgI5g+H8TkYK3r+S6bff8j3/COfRPL7g3fWtd3IdAOiwoNJCf9H1/zvLSQ45rcOAbgT/CMNrbfWD/vwZVCYyRYmwHg+1NPcYsvXMF4J8N7xOwAIvH+Mod0OP4LNK0oH9h9ggLGkN0nXBMZsMNYPDTY33aV7+gboG8EY9hkiPiDayBbGTDDO8onSs9nlORMZZr2rC9HkG6mjtUt/SIrc1rulazQmyE5rV/5Xfx+jXflIYqK/rQOM8TDmiw2wN4cxEcbiUUE2Jrs8qon+Oua/eSJjrLfs54OxtU+ogfaOfGSsb6S+9S5/TkjU7/Uiz/gHGJnv4mvR/raGO/5BdnqRtu2H14Ls9wnVsvstxyfK0fT3Wrx9dPV21o6c9gm1s9mVsxIerW29MxeFDw+23OVH8fgEG2zReWAsGxVrszsXZR8Nb84d+Sjf8GhL2x07UYmBJGPLHXtQ+cAU6ABdwAVi4O4JwkAgCOibb56Hf+2M6AMSiAR+wAeI7VJ+z3DYHgmFrzYgEXyCkQ+I+jNPe3vUB8TC9I0/1J2rGPDdHo3dnhEEPsI4BJiAYPh3zPas0D/a7MF7mBLwX9pJcPeC7Q2G+9b4/5v+m/oPRQummO5SYn5r5KL8zYnRw+hiDDH6GGEUC0odpYIyha+acJdGKaKUfq/jH370R/QAegI9iB5Dv3IPSIv8y0ozMAbL19/1hee/fYESgGXKobRRarB0WDKKAcUCxFCysB4tlAasWQ6m6uzaveUVrr9k/8cK/hWNXT6cJA6BY8Rp4oT+nkkUIcr9kbLl63/7Z8dWzz/+1vkz8rd+nX953xu+m/zNicxCXkd2I+8he5BtyGbAhbyLbEH2Im9v4T+76/327vqtzXrbniBYTsB/6SPt6tzyZJTkRckZyfWdsWif+Oitg6cTFp4QGeDnH82lBWcHHy6jUC/xPVzSktIyAGzlmp3H1zfr7RwCMTz9h+YzDYAqfGZw/f/QAo8BUNcFAGPOPzQBFwCY9wBw9ZlXTGTsDg21dUHDTwlK+KQxAw7AC4Tg9UgDeaACNIEeMAYWwBY4ATfYy/7wPo8EcWAfSAWZIBfkg2JwEpwGZ8EFcBlcA82gDdwDD8Bj0A8GwRt493wAc2ABLIM1CIKwEAVECzFDnBA/JApJQ4qQOqQHmULWkBPkAflBoVAMtA9Kh3KhQugkVAnVQlehm9A9qAcagF5B49AM9BX6iUAiCAg6BDtCACGBUERoIUwQtoi9CD9EBCIRkYE4ijiBqEJcQjQh7iEeIwYRY4g5xBISIMmRDEhupBhSEamDtEA6I32RkcgDyBxkCbIKWY9sheP8HDmGnEeuojAoWhQXSgzewYYoO5QXKgJ1AHUYdRJ1AdWE6kQ9R42jFlC/0BRoNrQoWhlthHZE+6Hj0JnoEnQ1uhHdBZ+lD+hlDAbDgBHEKMBn0QkTiEnCHMZUYBow7ZgBzCRmCYvFMmNFsWpYCywJG43NxJZiL2HvYp9hP2BXyMjJOMmkyfTJnMlCydLISsjqyO6QPSObIlvDUeH4cco4C5w3LgGXhzuHa8U9xX3AreGp8YJ4NbwtPhCfij+Br8d34Ufw38jJyXnIlcityAPIU8hPkF8hf0g+Tr5KoCGIEHQIroQYwlFCDaGd8IrwjYKCQoBCk8KZIpriKEUtxX2KUYoVIi1RnGhE9CYmE8uITcRnxM+UOEp+Si1KN8pEyhLK65RPKeepcFQCVDpUJKoDVGVUN6mGqZaoaamlqC2oQ6gPU9dR91BP02BpBGj0aLxpMmjO0tynmaRF0vLS6tB60abTnqPtov1Ah6ETpDOiC6TLpbtM10e3QE9DL0tvTx9PX0Z/m36MAckgwGDEEMyQx3CNYYjhJyM7oxajD2M2Yz3jM8YfTKxMmkw+TDlMDUyDTD+ZuZj1mIOYC5ibmd+yoFhEWKxY4lhOsXSxzLPSsaqwerHmsF5jfc2GYBNhs2ZLYjvL1su2xM7BbsAezl7Kfp99noOBQ5MjkKOI4w7HDCctpzpnAGcR513OWS56Li2uYK4TXJ1cC9xs3IbcMdyV3H3cazyCPHY8aTwNPG958byKvL68RbwdvAt8nHxmfPv4LvK95sfxK/L78x/n7+b/ISAo4CBwSKBZYFqQSdBIMFHwouCIEIWQhlCEUJXQC2GMsKJwkHCFcL8IQkROxF+kTOSpKEJUXjRAtEJ0YA96j9Ke0D1Ve4bFCGJaYrFiF8XGxRnETcXTxJvFP0vwSThLFEh0S/ySlJMMljwn+UaKRspYKk2qVeqrtIi0l3SZ9AsZChl9mWSZFplFWVFZH9lTsi/laOXM5A7JdchtyCvIR8rXy88o8Cl4KJQrDCvSKVoqHlZ8qIRW0lZKVmpTWlWWV45Wvqb8RUVMJUilTmVaVVDVR/Wc6qQajxpJrVJtTJ1L3UP9jPqYBrcGSaNKY0KTV9Nbs1pzSktYK1DrktZnbUntSO1G7R86yjr7ddp1kboGujm6fXo0enZ6J/VG9Xn0/fQv6i8YyBkkGbQbog1NDAsMh43YjbyMao0WjBWM9xt3mhBMbExOmkyYiphGmraaIcyMzY6ZjZjzm4eaN1sACyOLYxZvLQUtIyxvWWGsLK3KrD5aS1nvs+62obVxt6mzWbbVts2zfWMnZBdj12FPae9qX2v/w0HXodBhzFHCcb/jYycWpwCnFmess71ztfOSi55LscsHVznXTNehvYJ74/f2uLG4Bbvddqd0J7lf90B7OHjUeayTLEhVpCVPI89yzwUvHa/jXnPemt5F3jM+aj6FPlO+ar6FvtN+an7H/Gb8NfxL/OcDdAJOBiwGGgaeDvwRZBFUE7QZ7BDcEEIW4hFyM5QmNCi0M4wjLD5sIFw0PDN8LEI5ojhiIdIksjoKitob1RJNB7/U98YIxRyMGY9Vjy2LXYmzj7seTx0fGt+bIJKQnTCVqJ94PgmV5JXUsY97X+q+8f1a+ysPQAc8D3Qk8yZnJH9IMUi5kIpPDUp9kiaZVpj2Pd0hvTWDPSMlY/KgwcGLmcTMyMzhQyqHTmehsgKy+rJlskuzf+V45zzKlcwtyV0/7HX40RGpIyeObB71PdqXJ593Kh+TH5o/VKBRcKGQujCxcPKY2bGmIq6inKLvxe7FPSWyJaeP44/HHB87YXqipZSvNL90/aT/ycEy7bKGcrby7PIfFd4Vz05pnqo/zX469/TPMwFnXlYaVDZVCVSVnMWcjT378Zz9ue7ziudrq1mqc6s3akJrxi5YX+isVaitrWOry7uIuBhzceaS66X+y7qXW+rF6isbGBpyr4ArMVdmr3pcHbpmcq3juuL1+hv8N8obaRtzmqCmhKaFZv/msRanloGbxjc7WlVaG2+J36pp424ru01/O+8O/k7Gnc27iXeX2sPb5+/53ZvscO94c9/x/otOq86+LpOuhw/0H9zv1uq++1DtYVuPcs/NR4qPmh/LP27qlettfCL3pLFPvq/pqcLTln6l/tYB1YE7zzSe3Xuu+/zBC6MXjwfNBweG7IZeDrsOj730fjn9KvjV4uvY12tvUkbQIzlvqd6WjLKNVr0TftcwJj92e1x3vHfCZuLNpNfk3Puo9+sfMj5SfCyZ4pyqnZaebpvRn+mfdZn9MBc+tzaf+Yn6U/lnoc83vmh+6V1wXPiwGLm4+fXwN+ZvNd9lv3csWS6NLocsr/3IWWFeubCquNr90+Hn1FrcOnb9xIbwRusvk18jmyGbm+GkSNL2qwAS7ghfXwC+1gBA4QQALVy34V12asHdhoRfPhDw3R7SQ2ghFVFMaDyGDCtJ5oRLx98lYChIxGYqPHUwzSM6OfpyRsAUxNzHKs+Wzz7HqcmVxz3Ai+dT4ncSCBIMEXIV1hZhF1kUfbCnVCxIXE2CQuKdZINUirSVDLfMJ9mbcgflrRTYFD4o1ivFK2up4FWeq5areavvUf+q0ay5T0tbm6D9TueObp1ehX6BwQFDkpGGMZPxokmvab1ZhXmlRZvlpDXahtmWxY7KHmm/7rDmBJxxLkRXir2ovUtuE+79Hu2k657VXqXeOT4Jvn5+tv7aAbKBIkHcwcwhlKHI0O9hE+H9Ebciz0UdjU6OyYxtjEcl+CS27wP7BQ4oJxuluKTGpB1NL85IOih7cDIz75BlFn82eQ7IRRymPiJ0VD3PPN+hwLnQ+ZhjkX2xbYnVcfMTJqUGJ7XL1MuVKmROiZ0WOSNZaVKVfnbsvFH1pZq5Wuo6/otSl1Qu69abNThccb/qfy38etyNA41pTQebs1pyb+a1Ft8qb6u+feNO193h9rF7Qx0N9307mTofdpU8iOv2fbi3x+GR1WOTXoMnhn22TyP6zwy8ek7+QmJQZ8hoWO+l4iv+18TXq2+mR16+vTd69l36mN+43YT5pNl7iw8WH42nlKYZp8dmcmZlZ8fmLswnfjL8TPa59ovBl8mFs4vxX92+WXw3Wwpc7lg59LN5Q3dzczf+UkgUcgY1hp7ELJAhcfJ4f/JywhhRhDKO6gENM20C3QsGacY0prcscqyZbP0cLJyOXAXcbTwjvEt8y/yzAk8EzwpFCquLkIm8ED29J1BMTuyX+AOJo5IOUpxSU9L1MrGyanKQXJd8joKFIq3ikFKpsosKu8oIvAtc1ZnVhzWOa7poCWitaQ/qXNU9rOejr2pAbfDRsM2o2DjWxMfU08zfPMwixNLTysJaxUbEltWOaI+wX3aYchxyuu9c71LmmrM30S3A3dFDlyThyeQFec16D/p0+jb6VfuXBGQEhgU5BWuGCIZSwDthPHw04nsUd7R7TGnsvbiX8ZMJ84mr+8j3cxwQSuZKwaS8S21My0uPzHA7aJfpeCggKz27IudybuPhpiM3jl7Nu5xfW3C+8MyxsqLi4ryS7ONpJxJKw076lQWUp1TcPS185kKV4NnCc8/Pr9YQL7DU8taJwPtA4bJ6vW6D2RWnq8HXMq+fvXGncaBptHm65Vsr8hZjm+htlTuadxXaue8h7k10dN9v7KzpKnuQ333wYWJP5KPox9m9bX0MT/f3v33G8lzjhe2g71DK8PmXT199f0MzIvbWdDT83fGxW+PPJkYnJ97PfUTD0U+dGZijnpf8JPdZ4Avll5WFj4vDXx99u/m9cil52f6H4I/llbbVxJ8qa4R13Y2Z3fiLQ3OICqQbShiNRS9iZrCzZBO4RXI8gZ9Ci+hMmUp1iXqAZpOOn16PIZDxINNp5hssXawP2R6w3+Ko5Izn0ub6yX2Ox4RnjjeLT5Cvg9+Nf1WgSFBS8JGQnzBWuEbEUGRKNHOP0J4uMS9xIF4hoSrxUjIGfrtpkDaVnpZJl+WQbZGzlpuXP6jAqdAMv7VMKyUrMyhfVNFSeabqpfpZLUkdq16mIasxpJmoxaHVom2h/UrHX2dTt0rPUh+nf99gn6Gs4axRlbGrCZPJkGmxmY05pXmPRbqliuV3qwbrIBtBm/e2lXZ77ZntXzjkORo6bjo1Oge78Lm8dS3Za7532a3Ind/9hoeWx2tSvCeP50v4OeLvY+Cr4KfkbxRACgwJIgVrhFCFjISeDwsJlwtfj7gfmRNlGU0f/SbmdKx3nEDcx/hTCXoJI4nBSXRJz/fd2n/nQGfy/ZSbqbVpJenpGWEHXTL1DolkobNeZJfmOOfy5a4dHjvy5OjNvDP5BwpcCpWPsRxbLRoqvlZy/PiRE4WllSevlz0of1kxe2rtDEUlV5XMWcNzrufDqg/UZF84XJtSR7qocIl46evlT/WrVwhXOa5JX7e8kdR4o2mlRelmeGvprSttLbdv3em5u3TPoONmp03XUndJj8yjF71H+jz6jZ5pvdAeCn5FHJmb6Jtd+r66Ff+d/wluNYw8AMdS4Qo1EwA7DQAKOuE6cxCuO/EAWFIAYKsEEAK+AEHoBZDy+J/8AcHZBgPIATVgApxAEEgCZbhKtgDOwBdEwdVlHjgF6sEd8BSMg+9w5cgGSUEGkDsUBxVAl6CH0EcEBiGEMEVEISrgOm8TrutikTeRv1AGqGOoCbQMOgv9DqOMKcWswRXWIzIFshocK64AT47PJseT5xNYCDUUshRtRDViK6Ui5S0qQ6o31NE0VDSXaXVpB+hs6QboLeifMbgzrDCWMqkxjTLvZ2FlaWV1Y8OxtbHHcshyfOO8xhXJLce9ztPNW8Lnz68qQBQYE7wulCXsKaIlKrCHuGdN7LP4e4lByUapJGkp6VGZLFk52S9yLfKFCgmK3kqmypIqjKpENXH1Mk1RrSPaPTpf9Mj06Q2YDdmM+IxlTcxNI8xOmHdafLXitXawOWrbbY9y0HXMdOp1YXD13Fvn9t4DQ6L2xHgueX3wHvGZ9aP0NwkoDpwKVg0pCv0cbhxRF0WIjoh5Hacf35IollS9n+tAWQpDakE6PiP14NKhwKy5nNzDIUcbC6iPsRR9Kqk94X6Soay/4shpgzNLVXnn6M5nVS9fCKr9ejH/sl4D9ZXFax9vTDfNtUy1TrYt3mW8p3Pfrcuj26ZH47HEE+Gn8gOhz1eGUa9xI6ff0Y7f+UCc3jen9anhy9pX+e/6y/gfR1YerU7//LD2av3GRv4vz03J7efHVvyxgABoADPgBiJABqgBQ2ALPEAISALZoBTUgpvgMXgLFiA0xAJJbkc/ASqCrkB90CcEJUIG4YxIR1xDfEByIt2R55DzKHlUBmoQLYxORY/AsS/DAqw/dpBMj6wFJ4GrwwvjL5HLkt8lWBImKeKJOGIxJTflFbh+fUMdR8NA00xrT/uJbj89nv4EgxjDI8YwJkamduYAFjqWdtYwNj62EfZSDkdOJs5XXBXc3jySvID3Bd9F/gwBV0FZuJabFe4VuQ5nsTyxdPF9EtGSXlKa0gTpPpkcWRM5RrlF+VcK3YpNSlXKh1USVWPVstVbNH5oyWh76+TqVus16d8yuGV426jHeNwUYSZibm9x0LLZat6Gz9bdrsJ+1JHHKdC5yRW718HtpHuXxwCpw7PWK8s7wMfa19DPyT8toD2IItgzpC2MJTwx4m2UdnRtLGVcePzjRO6k2H39B+SSz6WyphVl4A8mZc5nkbInchOPSOYh8t8WXi2KLZE9/rX0allMhfKpn2eqq6TPVpybqhas8b9wpY7xYvlltfpPV0qvKV3vayQ1rbVUtVq1gdu1d03bFztOd3o+UH7I/Qj1+MmT2KeY/pxnhOdVg+7DZq+C39S8nRrjnLB8n/rxzgzjXP5ngYUn34qWD68arUmvn9p4/2txN/4ogANU8OnnBqJAHugAS+AGx34/fPIrwQ3wEIzC554ACUCa0F4oCSqDbkPjCBwcdRKiGNGPpEf6IG+j2FApqFm0E/oJRgdzG6uGvUdmSvYWF4WnxF8htycgCc0UEUQp4gplF1UpdQyNE60RnTG9FYMxowKTMLMciztrAls0uyeHLac5lxm3GY8prxmfNb+7QJTgEaE64YciM3soxBTEfSVOSg5Js8h4yzbIrSlYKj5RzlZ1Ukdr5Guua5vopMMRbNZvM7hj2Ge0ZmJi2mQubnHJSty6yVbHbsghxAnvfMnV3o3ag9zT3dvF572fin9uwMcg6+DeULOwZxEukdPRSbEccaMJD5La91ck26X8TKvMsM/kPLSQfTv38BHfPIMC5sLHRb7Fy8fTS6lPVpXLVzw57VsJVZWfUzw/WBNTy1r38FJyvcEViWv6N5KbqlryWp3aGG8P3y2753Qf23n+gWz3rR69R8O98X0S/ciBhefTgwPDBa8EX1e8+fVWbzTn3eNxygm7yTPvZz5KTQVNn5l5ODs7j/7E9lnyi+6CwyLpq/c3y+8835eWjiyzLdf9UPpx8sfqisNK0yrDauRq0+raT82fGT971ohrNmvH1/rXydY11+PXr67PbHBvOG0Ubjza2Pgl9cv71/Ffj3/92pTa9Nk8sdm7Ff8oXxnp7fQBEbQBQI9ubn4TAABbCMBGwebmWtXm5sZZuNgYAaA9eOc703auoQKgfGELPW75XPn3N56db1D/qmP+voPtTLStFc5EW20rK4H/Ab8i6V9gYWvZAAAAVmVYSWZNTQAqAAAACAABh2kABAAAAAEAAAAaAAAAAAADkoYABwAAABIAAABEoAIABAAAAAEAAACqoAMABAAAAAEAAABpAAAAAEFTQ0lJAAAAU2NyZWVuc2hvdObZBmUAAAHWaVRYdFhNTDpjb20uYWRvYmUueG1wAAAAAAA8eDp4bXBtZXRhIHhtbG5zOng9ImFkb2JlOm5zOm1ldGEvIiB4OnhtcHRrPSJYTVAgQ29yZSA2LjAuMCI+CiAgIDxyZGY6UkRGIHhtbG5zOnJkZj0iaHR0cDovL3d3dy53My5vcmcvMTk5OS8wMi8yMi1yZGYtc3ludGF4LW5zIyI+CiAgICAgIDxyZGY6RGVzY3JpcHRpb24gcmRmOmFib3V0PSIiCiAgICAgICAgICAgIHhtbG5zOmV4aWY9Imh0dHA6Ly9ucy5hZG9iZS5jb20vZXhpZi8xLjAvIj4KICAgICAgICAgPGV4aWY6UGl4ZWxZRGltZW5zaW9uPjEwNTwvZXhpZjpQaXhlbFlEaW1lbnNpb24+CiAgICAgICAgIDxleGlmOlBpeGVsWERpbWVuc2lvbj4xNzA8L2V4aWY6UGl4ZWxYRGltZW5zaW9uPgogICAgICAgICA8ZXhpZjpVc2VyQ29tbWVudD5TY3JlZW5zaG90PC9leGlmOlVzZXJDb21tZW50PgogICAgICA8L3JkZjpEZXNjcmlwdGlvbj4KICAgPC9yZGY6UkRGPgo8L3g6eG1wbWV0YT4KdpJ1QAAAGnBJREFUeAHtXVmPJFdWPlm571n73tXV3e720u0etw0eD57RGEujAbE8IEDwgqx54hnxzp9AvCAhYMSiAWlGMELAiBFmbGyPl/HauNtdVd21b7lUZuW+8H03O6oisyKrconMyqyOI1VlZsSNe2/c+OLcc892bbfvvFwRi6wR6PMRGOrz/lnds0ZAjYAFVAsIAzECFlAH4jFZnbSAamFgIEbAAupAPCarkxZQLQwMxAhYQB2Ix2R10gKqhYGBGAELqAPxmKxOWkC1MDAQI2ABdSAek9VJC6gWBgZiBCygDsRjsjppAdXCwECMgGMgeml1UspDDsn4IlJ0eWWomBd37lCc+UOxVZ4ML00LqAPwEhSdHtmYf0ESI3MArF2B05nLiP9wV8LRVQkmtmSoXByAO2m/ixZQ2x+7nl25N/GUxMYug4OmxZtLS87tl7zLJ3nPZUlE5sWX2pXx7S8leLAltnK5Z/3qZUMWUHs52m20VbI7JRmeFnspL5cevCO+wz3JuwOSDE1LbHRBsv6IpMJTkg6MycjukkxufC6OYraNlvr7Eguo/f18VO8qYhNbqSzOQgZTfEk8mYT6G95floPhWdmbuC4ZAHZv6inJeYISjq2LvZwTRyEnQ6WiuCDPOko5kQGWZy2g9jlQ7QCaL70v+4ERSQzPycTmF0c9dhRziosGE5uyPf2cRCeuSjIyrf6ASiXLDpVKAPghxIOo+JM7EA+2lQhxVMmAfLFPTc/92YD09Yntph2r/IPIHLjmsPhT+yeARjAHAEJnISt2gFdx0koJ3BTyKhSQeadfMgD6QXhWiREVmx1ag6TizoMyqDYrCnUAHpXNBo75rGzN3MJKfx+y6lviwsLKmGzQDAxJ2e4QArJkd0kaAI+PLCg5tuRwQpCoiO9gT3FntQCr9P8CzOKoxk+7745603Gs8rGIiswAhE4JHWw21KFSt0pZ1l4qqIUVrw3H1sCNdwFehxTcPsl5g5IcRl1DTvFkEyjb3+otC6h9B0njDg2B6/nSUTkMjGOVP604qjcdMy5scNSG67moCifWoDmISoHqLYD1MDguh/5xiAKpU7i0QYU9PmQBtccD3klz5JAEGzlhxj+iFP0OyK96qmDaT4WmJAsrFsUDAlRP5LYEZSi+rjQCWU9Ecr6QpCJT+F0SbzbekFPr6+n1dwuovR7xDtuj6bQidkmMXgKwCmoVX1ulTfYmr8vm3NeEoOUiy1ZbQP2iaBBI7YFLxyTrCUMUAFhDk0q29UEOJgfvJ7KA2k9Po8m+uApp6E/nlOI/HF+rkS/VQgngSwfHJBWYlDA4Zz3X1TfjAnelyqrgCsB4EMLCa0z5E1CeJZj7hSzvqX55Ei30wwmuSp1oFlP2ISxS9eSAmmps+x7UVWk1vdefr/9NsM6tvItr7qtT0dFF2bh0R4oOd33Rc/ttcdRzG/r2G+ZUXnS4FFd1FAuQNzdOVObMZ9SiyQN9aTNUFQV21dSf8Y8qS1cJQKXo0A9igMVRm3mKfViGin8HwJgKTmDa9p7oIRdelDVbMZvS3Dq1/omM7txTcm109IpszT2vPLZONNDjAxZQezzgZjXnzh5IMLkNT6qApH0jZlWrRIWp9U9leG8ZVi2b7I9fkyj+xHBJZlqzZ1ZkAfXMIerPAlQzBWOY8gGmAxgBBNYrs4jceGrtYwnAz5Wag+3ZZ+GtNWlW9W3VYwG1rWHrj4sCqW3xwOpEN8CcO2hqp5z5rEyvfSKubBLysEe25p9XPrCmNtJCZRZQWxisfitKMEWij5RJNDq+iO6Zx1V5r5RxJ+GtRUNAGgus3elnYII9H8icT6v99sQHuD/0SfWkE5AjFw1VVZ3e2vDeCl6Gh6qaGNRWSszotNI2rreA2sag9dMlLoSmjO3cl9IQ4qoWXpCsN2Jq92iCndi8K1y80fNqZ+oZYQxXr8kCaq9HvAvtcYU+uvuVmp63Zm+Zrk4iSMe2vxIpV2DxGoXL4KUu3MXpVVpAPX18BuIsI1DHt+7CYSX1WFHvMr3fnP59mSjqtUkMvq29tlpZQDX9kZ5PhQWnT03JrmwKXv61HlVm9IhmWcqrJHpu0Zegl2QBtZej3cW2Mr5hTPkOmDz3uuZMEmC8FWRi6lY5/fdSA2ABtYvg6VXVFSj7D0Pj4KR0+9vsWrPuzIHyY2UDSYRo8+XoFVlA7dVId7EdrsLTAI0XMqSnBa//VrtEF0LqbZljgEaA6qLKXN1toz5ZQG00MgN0PO/yQ+nvF89hvGvTvjYcfiTACMS31c8Ecgowj0AvyAJqL0a5y20w6I/yIkNMuk1MGTSyt6ScV/IAaXxkvttNqvotoPZkmLvbiMbVOCX3ggLw2qKfKimOkJg8olq7TRZQuz3CPai/aHdDu1mBf6pxzinKsGau0OlkTa5K7kpLWGK4+wYAC6g9AFIvmlCxeAaufnnIrquLL8NqZZ7PKu8nkNhW4dv8Hhu9bOi8zXNmkQVUs0byHOtRQXjwSy3U2eCZS3V75qZyJGGEqZlEMUMZAGBWZaqheJe5qgVUM5/eOdVF0ympjPQ9ejpEmAplSBKBVHCZ60wSQgQsMwuSYmOLeFFOhsSokyb8s4BqwiCedxVc7VNGzWH1r6eDMFP2VBM25rxhxO1P6093/J0BhCNwMyQxT2s3nVUsoHb8uM6/AmZPsedzksHChsnRSCrnPzL4kZipmo4r0fErKmmaOmjSv+H9FYRu7+E1scnuzNOyO/V0VbdqIC930qQF1E5Gr0+uJRA5BdNZJOOtmjVLCKfWZFam7wnHVlWOqQOErZhJdFYZ3/pCaRzoGLOBDC1L119Dppbbqj9maRusuH4zn9o51UXn5jKcmpk9hZ5TTCXJ9On7k1fhQOJAst8VJEfbgLw6DwtWoJp3ysQsKG54bKnQbAog4OgFjw/J1ygfzyOWKyROpGpntuxOyAJqJ6PXR9cy+3QSMimTo1EZz9SU0fGrSHgmAOoDlbYni/xSTKXOhL9+5J0yi2jtd2EroVBiXSLg3Mxuba8UsXjzw1lmAm3OUMsrnlyibROvBVSzntY516NZpRJwv+PGE0xKQTHAXikgVOUrld5HZQJUXk/IBAiuS3CbSQQs86wy3yqzt4TxxwVXFv1IjM7C22oE55JtcVcLqGY+qXOui3IqU/2otJR0wcOCJnCwo2KqKB6Qk3IKjkNBT45Ll8BubahG0PJFIOdmEjZmvma/KCPzpfLAZZCaimbJAmqzIzUA5QhGAkNxVxgAfMl9mdr4rCZBrxsczQ4NwP7kFZVrVdODdvP2uJ1QCDIyw7spCtDkykBBighD2GugGbJy+DczSgNXBrzqsXqI4K0nntvHJmvUe84vv6ciTOvLdOs38wNsz95Ujteh2KbMrH6gXpiz2rM46lkjNKDnOa02mlo5LTPNOhMBcwHGVOm9ythH0YP7YDFnKzd0ywRGIZ5sKy5/2lBbetTTRucin0Puqkh0TW1CQT8As/SdRkNGnwPuGUBuSv9VmlvJ6akFYEgLOaxmqDC6nsesDdEajcwTcRzb+CBtT66ETNPQFHiZEt0k/SotY/STZWaVVHASO7r4VZRsGWndmditSti9BVoCOrVQ78s8Wo3IAmqjkXmCjjPBhA0LrCKcSjQHl85uH/tizT4HOfgaVvtOVEVgQpMKLYAnE1cyMTMGUlXFGC9uzmYvnO70bQG1sydyYa6ubrCmcbpObwvbYQB4VEmRGL3KBBm+Q4AS4FQrfYgerZAlo7YyWhe+bGvgOW04hqPLylmFZUpOF1RmBUTJMvgQG6+1CFLWcfaqH6oMyhsMZ9DYODYw5LWmEteozBlfdLohWNuVIprmP4sGcwRooaJZlTZ/LqRSwWngB2ZUcFfqcVulhnpUrgK5GuQqjb6MVU8cGzaEhZ04uYukXA9M0r/ZVJjEPuzSaagq+DIMIRaHHkFeqFAi2BqRQn63LCitDphWnmpKvxM574NZmQ1lZcQLZxB3QZyO1t8uG7zk8yW7/Nv9Kdk9rHV+ZntaW+P+nEwEcjLqy4vXXhbb0NltlcpITpG3y24ayXhTHtlD/YWS8RR/Yywpry4i7/9jYr9Seaf8+MspSebbkxKZqXpz/gW1YGKSNarFJiAGBGFebWXhZtg6FcIMYaBvIbmbnhiDQ0ARxPPL7wJMzW9zqK9H+85V4frCi1j1+bVD6pN7dabCkxJD3s+Zhx8J/R77hULuorx6eU++sRCVuWBaXA7sO2r87JvucqZgl7dXR04AlaD8xsK+vDKHpLrBnHidbOtsgNY3nC8NSRqAXYr55b+XJ+SjTWyCVqyV/ObCGfnO1WrMvnb9Xtol//lgAltUa0da+6T51IVNhreAJ27iRuw8WnxFInietJqRITVDhkDNYSe3fTjZ1oNUXyFVCluzz8vC0ltKxaA/1+x3TgmbTLldB1L99czIsTt5A9spbiglsf7ceXyfBQf9oxdX5OYkNrrtEJxn9f/aSEreePGRXB1Jdpyi3wUO7PKW5Y43LjenDuRny6PyD5/OSyLLVXl3iQuo+ZX34NW1i10Fn1I7BUYnrmIv1oDMrnyoNAFn9cAQqBlfWKVsOeticlVuIhtMtJfviCa8LMSKs6jg8SrVyWk70J1VhxnnXfaK/O7zq3J7qhonpNXJtUEOHCvV5vRIvKcLWAeUjzkcOen3XlqRKyOHWjNHn1p7abR31mrBjT57IaI4dGKCa6gsv3p1V7JFu/ztLxY4I3edOM0zhytdAWnrj0Lpn/JPyKMrX5dLS++cCVZDoJaHICcdKWWr98BVG01u5IIakeMyVJYmMCObslbO6JP5NU/mLqqgwwnlbMuMcRpx33kt9kc7dh6fc+G03Jo8qGm6UrHJfy2Ny5srExLNOKV0FnJqrq79oeduX78UNQRpFFPxf2AqvrsTkVjGXgPu2tqqv/yukkwHM/La4q48Px2vmQUoUvwUYsCjePeC8ur7RLe/se0vMfU/VMYAipdri78klx68farN3xCo9ZXztx3K2kh0FdPw0/AaP57zktzJGFyxVVmVsin9E/XkgO4tsv9IdqafhXr4GKj6Muf5fRqLJnInPW2k3PLPn8/KPgBkFnF4FyMnOSnlzO9/vCBvPawdt9Pa3YcISCDe2wvIn/zKfXlq7DjtDxd/85F0T4Gq9ZUeVUxiwT1Xt2eegwj4NZl59KHyX9XK6D9bQkMIK3A3nGL1VEQIbhzOBa0QuWMcnFgPeF4fgDMvHSSqloxWauxNWb+jWMOR2GoSMl67U36jXtttZRmGFqGekjmHAlz98WZ+xzIuWYkdz4a8hjI27+k8ifLr3Mr7SpO0h7UI/QKMqGmOSvDQesEgMYY76IlhuWqT2CZXcJpsq6+DogNX9rT9NkP0YK/fW0lTKresUIaWgxGcVT3xcev09OFAnkYU7zj9m04GVbKtTuTJesZgep/brJBGAG4YfBgcx1rEBxHg5Ji3AFT2gh43qxCEr6q9jbR+ZT2IxYnMYg/N6u7E2nGjT6q+4ghCq9co0OGX3uiMpGyGDsKzSq2l6Vf5EHj95ftvNu2Mq7VThs6YU08KTr3UHZKoRx7dvS+zDz/Qihl+cmHChUq+gW7S8CLroMEIVBRXrY7+ydMtTf20HtGywPDbGgJIuDCq50g1ZR7/oFzKkIQaAjgom/LNatTRmvLqB7wtseAi4PlHYOkXYCfLn36E17KOo/pwT5rzsXZlGqvkUl0HJ6DbXBhuTheo1WN9NhqBxj60LXJUNlBRU3R85DJsuMc6OPoa0p0rjDQvpxFTzFA3qifagEPxVf2hvvy+HPVLHLIeVUcaBV1FeeOFZfmXe9OynkCYcN743efisAy9UrkCNRZkzQIsRm2YvLVmn7jPNoBa9Q6nAj4+tnA0YORENLcyNqaRqioHESGBab+ewnDgZTxNv9Nm0is/vDsjf3AbIcGwRmlEjvrHv7wk2cIQrD3GiwFNa0VdKVVMX+4G5aOtsCztI1u0Tn+q1Wl91o5AW0BlXsxh7DvEhAcEqEapCDYggIzpaxAzTpDSQVZP9H+MxB7pD/Xtd4qvP/kKRg4o53/j+qaa8jVzJj+ps+TfWTQVyMqzEwfy3etb8v76sPwI4F9N9E6XeVb/+vF8W0DljTDrsB+JDpKR4xQxnNITWFQZAZXeVzEdB9YGI4T4mbNW1lrZfvgkWN9aGZXPt0IwRSbkWThyXBmFNsSdh82/LEM6C5C+vwQyF10asHmOdvtvwmdgHoaEP3/32rnoM/V97OfvbQOVaiTu5paCwl+v9kgMz2O1vHRCxcB47py71lyqlL5QSVHuHTSKQ3/6s5UxefvhmPKi8roQqkxTJUyWRvdjh7Yj4snLizNReRlWJzds7xpdhujwW09vyF+8hyRmkF0tOjkCbQOVVTEbBl3x6BGjUQ6OBgTl2M6xLozagNjYlRpAs3wwsXVqnIxWZz9/ksPSBS6p1ldnWaf88sEGXCbLdnm9zkuJNn0uzPgCWHRyBIyXqCfLGR5hDAz3HarlINgrc+yyytihXURtALUCeqIqanh3ueHCS1/W6Hu96sioTD8eK8AMuhI7KY86wWHtDcSG0+4DjPqJoI44KkeIlqp9uGxxRa8Rd3Q7hGdVGMYB6ifpuKJfdLGc/2BXuGdR2/SkPKEzBugqXAG/tYBtJSEDayLYEPRe9Dt9cxk5qC6IRqFjoDLxVmR/VUUdamOqwDmyKPQNSPvHJBWpzR9fNZcuN20u1erVf1I5/6QRmScdVvS0cYDNegHG70CD4NRxZDqw0Bjxo89mhIaKZqjcDVNwMw03UcaUp031krNQa505xO7DjBWPY3GlRSNq/WHOIcqnnZDR8qsrNvdOOtng2rCncOJMESbY0mOgFGEUoLNLPfkhw86EavOMpqG7/ftP5uQfP56vASQdpX/zxiZ0vmsSwHXUOAxDM1FPbEujGNwU83Uc2A1NxjAWgedNHXNU3oAbPqTB+JZKva3dEIP0tmduwQXw5BaEYci1naY85IvBlDU0ummU8wWReWNaLfIaGR20su18UtpwwLbfHtmUVuAZ6E9fu7J7oordQ7cc5qqcjxarDcQ31ZMHoPm9m+vKr2AZU3sW4SskTu//CstYpuSQ37+1KiG475GoCnv92pYE8HsDetqbdb60WYSibCbdqiz/rR14lTGCel6NuMD7HbRJV8atpAcO4mizHZMaxo6cn+Nne/zMitBwUGTRXlD2l9+NqjcFqHQMGd5blgQsU3p7fzI8gfs9BhJvnjHezJvZKVGPy2x15NwaUY+7euVlJf/Wc3itjPEnLEquky9Ufdk7MzH5tae2al6O+jJGvzkC1K9GwEkZoEdupydGB7wJNZdenvz56rB8+zKCKHXmWl5zbTQpf/rqPXkEc+0GgFXSjS8dapKIi9KAyvJ05Xtlfl/K2AmyPnRmBWBfjR+7/u2n3fI2VG6//dxaTdkX4HDNwL89vEwpGDuMgMS2GhFf8Di49V9/tCCLw4fyKhy2Y5gx3lkdldev7MhPHlA0rMh3MbZ/9/ElQ82HKUBlB1UezFitWbUepCxHLYGRGxfPtUI0uc4+fF82EOGYQkiuJrxRzGBW5W7QKHxEbyHeyExihOgP/29W3kVgn57IMf/p8zn5w9uPlNpKf47Wr2fGk+pPf7zRdwKlXkpdB3f8wadzNb60BOCP72ER7C3ItxZ3jmReXl+1utWKd43aMzrOIEGKH59sReQOgH93B+b0rAOGkqLcno6JA9x0EfpkR91LrNVlGlA51Y4jxIAmVEaQGhF3e6PrnFnEqAIGF9JBRsVfIdarZMMt1a84zGrQpHoIiDSm7bs7YRVW8ils/tTH1tNPEeLC8OZfv7ElNwBMvX9BfdlWfn+2HZK/+vCyrBmYbekE/je/mJe7iAigNoH6XUY11HPjVtrTl+V9cubgLMI1xSpemBmIGrTSbeD7EN8KAzIEqqOYxvS5cxT5yIF1FnIq3t6gjqNDTLh1ael/ZW/qOvaPH1WqKZ6kFYtxVePb9850PqHzM8MTNJc9ts2EBTxuRA70izE4FD2YlIt/FAG4kaxWh9F1tceGYKSYgY/tSf2mvlw065YvdvgSGg+mvqzRd3pMbR9CPIEedQmeWI8S/lP9WHnvnwDE9/YDsoCQkesII7mKqdNoMaZvD5fJAabWFGTeS+BS10exD5Wuyyo/AESQdYgObKOeKPv+D1RbP18blhloDmZCaZlCPoExX05GIIrotQv11xr/roB7uo6sbtsQIRi6TSscXxaKIB5w0hA4eaGBq4RhAgoq0+vVP5RDq07KBndW1zteW0QaF60ORiAyFxEXP2cS2qYjs55U27zWaFT1Bdv8zvCH5RvfrooQujroCM4wCY3IqNtRymvXUw7jgqKT22i2DwQBuRdl3DfurMhLs7EasNIC9n3Ig29BJjXi5sd9Pv5GsFcXkzrUH58+/RtumhoG3jvHkNyUaNBq4ncurKgiMxofQ45aBWUDaJ/eHXWWYkDbbnvoZbPpspvoSpNFODjakB1fonn7a0f4QMsdefKfbEOru9nPVvvAoMO/fH8RfrIO+eYi0qYDDCQu7L4HAAcwrf87MrQ0A1YCiJa19uj43vX+DNXeVGvUVv9G9Z+de8roqgt0jOoteoDFJpBwA0GHx1RBlOTK42DD46OD+I3x+59h8eICJ1uEzKnJm0440NyAOOGE2usBRBFy+34l/ZPp1z4a9ov7xKcQDPaYQRiWOfUgXnDuIMItbg7DCCqrizqgxY1y9UUhyp0/gC70AeRBGgCOpDCMAzmcz1k+0sv24z0PLFCZoWX98ktdGVN7sSATG5/DT9ZcVVRXOttCpQTr2w9rnYNauPxciw4sULsxapStvUg2y2xz9FOwqH9GYGCBasMWhvZCARJmrZWnpaFFooehYgkLv+qmt9yakUkwzjvHVUv38IQUHligVp22G29O0MzzIwfl5mHc6JY5WY8Ft2autsr0cgQGFqh0aunUsaWXA2211dkI9K8+orP7sq6+YCNgAfWCPdCLejsWUC/qk71g92UB9YI90It6OxZQL+qTvWD39f+wqUsa6cXM6wAAAABJRU5ErkJggg==;" vertex="1" parent="1">
          <mxGeometry x="695.7099999999999" y="120" width="48.57" height="30" as="geometry" />
        </mxCell>
        <mxCell id="ddCJXQsrm5lGL4eYq6sv-20" value="" style="shape=image;imageAspect=0;aspect=fixed;verticalLabelPosition=bottom;verticalAlign=top;image=data:image/png,iVBORw0KGgoAAAANSUhEUgAAARoAAAETCAYAAADpvMlyAAAYfmlDQ1BJQ0MgUHJvZmlsZQAAWIWVeQdUFE2zds9GdlmWnHNOknPOOecosOScMypRJKgEAUVABRUEFUwEERURRBQRVMCASFCJKqggCMgdgr7v5/ef/57bnJ55trq6qrqqe2qKAYB1hBQeHoygAiAkNDrS2kCby9HJmQs7BSD4jx4AQE3yigrXsrQ0hTH4ff/PtjwE88LtudiWrP8e//82Gm+fKC8AIFcYe3pHeYXAuB0AVLlXeGQ0AJgtOm9cdPgWToExXSRsIIyLtrDfDr6whT13cNs2j621Doz7ASAjkEiRfgAQR2A6V6yXHyyHuA6P0YR6B4QCQA+vHKPu5U/yBoDVEubZExIStoX3wVgI5g+H8TkYK3r+S6bff8j3/COfRPL7g3fWtd3IdAOiwoNJCf9H1/zvLSQ45rcOAbgT/CMNrbfWD/vwZVCYyRYmwHg+1NPcYsvXMF4J8N7xOwAIvH+Mod0OP4LNK0oH9h9ggLGkN0nXBMZsMNYPDTY33aV7+gboG8EY9hkiPiDayBbGTDDO8onSs9nlORMZZr2rC9HkG6mjtUt/SIrc1rulazQmyE5rV/5Xfx+jXflIYqK/rQOM8TDmiw2wN4cxEcbiUUE2Jrs8qon+Oua/eSJjrLfs54OxtU+ogfaOfGSsb6S+9S5/TkjU7/Uiz/gHGJnv4mvR/raGO/5BdnqRtu2H14Ls9wnVsvstxyfK0fT3Wrx9dPV21o6c9gm1s9mVsxIerW29MxeFDw+23OVH8fgEG2zReWAsGxVrszsXZR8Nb84d+Sjf8GhL2x07UYmBJGPLHXtQ+cAU6ABdwAVi4O4JwkAgCOibb56Hf+2M6AMSiAR+wAeI7VJ+z3DYHgmFrzYgEXyCkQ+I+jNPe3vUB8TC9I0/1J2rGPDdHo3dnhEEPsI4BJiAYPh3zPas0D/a7MF7mBLwX9pJcPeC7Q2G+9b4/5v+m/oPRQummO5SYn5r5KL8zYnRw+hiDDH6GGEUC0odpYIyha+acJdGKaKUfq/jH370R/QAegI9iB5Dv3IPSIv8y0ozMAbL19/1hee/fYESgGXKobRRarB0WDKKAcUCxFCysB4tlAasWQ6m6uzaveUVrr9k/8cK/hWNXT6cJA6BY8Rp4oT+nkkUIcr9kbLl63/7Z8dWzz/+1vkz8rd+nX953xu+m/zNicxCXkd2I+8he5BtyGbAhbyLbEH2Im9v4T+76/327vqtzXrbniBYTsB/6SPt6tzyZJTkRckZyfWdsWif+Oitg6cTFp4QGeDnH82lBWcHHy6jUC/xPVzSktIyAGzlmp3H1zfr7RwCMTz9h+YzDYAqfGZw/f/QAo8BUNcFAGPOPzQBFwCY9wBw9ZlXTGTsDg21dUHDTwlK+KQxAw7AC4Tg9UgDeaACNIEeMAYWwBY4ATfYy/7wPo8EcWAfSAWZIBfkg2JwEpwGZ8EFcBlcA82gDdwDD8Bj0A8GwRt493wAc2ABLIM1CIKwEAVECzFDnBA/JApJQ4qQOqQHmULWkBPkAflBoVAMtA9Kh3KhQugkVAnVQlehm9A9qAcagF5B49AM9BX6iUAiCAg6BDtCACGBUERoIUwQtoi9CD9EBCIRkYE4ijiBqEJcQjQh7iEeIwYRY4g5xBISIMmRDEhupBhSEamDtEA6I32RkcgDyBxkCbIKWY9sheP8HDmGnEeuojAoWhQXSgzewYYoO5QXKgJ1AHUYdRJ1AdWE6kQ9R42jFlC/0BRoNrQoWhlthHZE+6Hj0JnoEnQ1uhHdBZ+lD+hlDAbDgBHEKMBn0QkTiEnCHMZUYBow7ZgBzCRmCYvFMmNFsWpYCywJG43NxJZiL2HvYp9hP2BXyMjJOMmkyfTJnMlCydLISsjqyO6QPSObIlvDUeH4cco4C5w3LgGXhzuHa8U9xX3AreGp8YJ4NbwtPhCfij+Br8d34Ufw38jJyXnIlcityAPIU8hPkF8hf0g+Tr5KoCGIEHQIroQYwlFCDaGd8IrwjYKCQoBCk8KZIpriKEUtxX2KUYoVIi1RnGhE9CYmE8uITcRnxM+UOEp+Si1KN8pEyhLK65RPKeepcFQCVDpUJKoDVGVUN6mGqZaoaamlqC2oQ6gPU9dR91BP02BpBGj0aLxpMmjO0tynmaRF0vLS6tB60abTnqPtov1Ah6ETpDOiC6TLpbtM10e3QE9DL0tvTx9PX0Z/m36MAckgwGDEEMyQx3CNYYjhJyM7oxajD2M2Yz3jM8YfTKxMmkw+TDlMDUyDTD+ZuZj1mIOYC5ibmd+yoFhEWKxY4lhOsXSxzLPSsaqwerHmsF5jfc2GYBNhs2ZLYjvL1su2xM7BbsAezl7Kfp99noOBQ5MjkKOI4w7HDCctpzpnAGcR513OWS56Li2uYK4TXJ1cC9xs3IbcMdyV3H3cazyCPHY8aTwNPG958byKvL68RbwdvAt8nHxmfPv4LvK95sfxK/L78x/n7+b/ISAo4CBwSKBZYFqQSdBIMFHwouCIEIWQhlCEUJXQC2GMsKJwkHCFcL8IQkROxF+kTOSpKEJUXjRAtEJ0YA96j9Ke0D1Ve4bFCGJaYrFiF8XGxRnETcXTxJvFP0vwSThLFEh0S/ySlJMMljwn+UaKRspYKk2qVeqrtIi0l3SZ9AsZChl9mWSZFplFWVFZH9lTsi/laOXM5A7JdchtyCvIR8rXy88o8Cl4KJQrDCvSKVoqHlZ8qIRW0lZKVmpTWlWWV45Wvqb8RUVMJUilTmVaVVDVR/Wc6qQajxpJrVJtTJ1L3UP9jPqYBrcGSaNKY0KTV9Nbs1pzSktYK1DrktZnbUntSO1G7R86yjr7ddp1kboGujm6fXo0enZ6J/VG9Xn0/fQv6i8YyBkkGbQbog1NDAsMh43YjbyMao0WjBWM9xt3mhBMbExOmkyYiphGmraaIcyMzY6ZjZjzm4eaN1sACyOLYxZvLQUtIyxvWWGsLK3KrD5aS1nvs+62obVxt6mzWbbVts2zfWMnZBdj12FPae9qX2v/w0HXodBhzFHCcb/jYycWpwCnFmess71ztfOSi55LscsHVznXTNehvYJ74/f2uLG4Bbvddqd0J7lf90B7OHjUeayTLEhVpCVPI89yzwUvHa/jXnPemt5F3jM+aj6FPlO+ar6FvtN+an7H/Gb8NfxL/OcDdAJOBiwGGgaeDvwRZBFUE7QZ7BDcEEIW4hFyM5QmNCi0M4wjLD5sIFw0PDN8LEI5ojhiIdIksjoKitob1RJNB7/U98YIxRyMGY9Vjy2LXYmzj7seTx0fGt+bIJKQnTCVqJ94PgmV5JXUsY97X+q+8f1a+ysPQAc8D3Qk8yZnJH9IMUi5kIpPDUp9kiaZVpj2Pd0hvTWDPSMlY/KgwcGLmcTMyMzhQyqHTmehsgKy+rJlskuzf+V45zzKlcwtyV0/7HX40RGpIyeObB71PdqXJ593Kh+TH5o/VKBRcKGQujCxcPKY2bGmIq6inKLvxe7FPSWyJaeP44/HHB87YXqipZSvNL90/aT/ycEy7bKGcrby7PIfFd4Vz05pnqo/zX469/TPMwFnXlYaVDZVCVSVnMWcjT378Zz9ue7ziudrq1mqc6s3akJrxi5YX+isVaitrWOry7uIuBhzceaS66X+y7qXW+rF6isbGBpyr4ArMVdmr3pcHbpmcq3juuL1+hv8N8obaRtzmqCmhKaFZv/msRanloGbxjc7WlVaG2+J36pp424ru01/O+8O/k7Gnc27iXeX2sPb5+/53ZvscO94c9/x/otOq86+LpOuhw/0H9zv1uq++1DtYVuPcs/NR4qPmh/LP27qlettfCL3pLFPvq/pqcLTln6l/tYB1YE7zzSe3Xuu+/zBC6MXjwfNBweG7IZeDrsOj730fjn9KvjV4uvY12tvUkbQIzlvqd6WjLKNVr0TftcwJj92e1x3vHfCZuLNpNfk3Puo9+sfMj5SfCyZ4pyqnZaebpvRn+mfdZn9MBc+tzaf+Yn6U/lnoc83vmh+6V1wXPiwGLm4+fXwN+ZvNd9lv3csWS6NLocsr/3IWWFeubCquNr90+Hn1FrcOnb9xIbwRusvk18jmyGbm+GkSNL2qwAS7ghfXwC+1gBA4QQALVy34V12asHdhoRfPhDw3R7SQ2ghFVFMaDyGDCtJ5oRLx98lYChIxGYqPHUwzSM6OfpyRsAUxNzHKs+Wzz7HqcmVxz3Ai+dT4ncSCBIMEXIV1hZhF1kUfbCnVCxIXE2CQuKdZINUirSVDLfMJ9mbcgflrRTYFD4o1ivFK2up4FWeq5areavvUf+q0ay5T0tbm6D9TueObp1ehX6BwQFDkpGGMZPxokmvab1ZhXmlRZvlpDXahtmWxY7KHmm/7rDmBJxxLkRXir2ovUtuE+79Hu2k657VXqXeOT4Jvn5+tv7aAbKBIkHcwcwhlKHI0O9hE+H9Ebciz0UdjU6OyYxtjEcl+CS27wP7BQ4oJxuluKTGpB1NL85IOih7cDIz75BlFn82eQ7IRRymPiJ0VD3PPN+hwLnQ+ZhjkX2xbYnVcfMTJqUGJ7XL1MuVKmROiZ0WOSNZaVKVfnbsvFH1pZq5Wuo6/otSl1Qu69abNThccb/qfy38etyNA41pTQebs1pyb+a1Ft8qb6u+feNO193h9rF7Qx0N9307mTofdpU8iOv2fbi3x+GR1WOTXoMnhn22TyP6zwy8ek7+QmJQZ8hoWO+l4iv+18TXq2+mR16+vTd69l36mN+43YT5pNl7iw8WH42nlKYZp8dmcmZlZ8fmLswnfjL8TPa59ovBl8mFs4vxX92+WXw3Wwpc7lg59LN5Q3dzczf+UkgUcgY1hp7ELJAhcfJ4f/JywhhRhDKO6gENM20C3QsGacY0prcscqyZbP0cLJyOXAXcbTwjvEt8y/yzAk8EzwpFCquLkIm8ED29J1BMTuyX+AOJo5IOUpxSU9L1MrGyanKQXJd8joKFIq3ikFKpsosKu8oIvAtc1ZnVhzWOa7poCWitaQ/qXNU9rOejr2pAbfDRsM2o2DjWxMfU08zfPMwixNLTysJaxUbEltWOaI+wX3aYchxyuu9c71LmmrM30S3A3dFDlyThyeQFec16D/p0+jb6VfuXBGQEhgU5BWuGCIZSwDthPHw04nsUd7R7TGnsvbiX8ZMJ84mr+8j3cxwQSuZKwaS8S21My0uPzHA7aJfpeCggKz27IudybuPhpiM3jl7Nu5xfW3C+8MyxsqLi4ryS7ONpJxJKw076lQWUp1TcPS185kKV4NnCc8/Pr9YQL7DU8taJwPtA4bJ6vW6D2RWnq8HXMq+fvXGncaBptHm65Vsr8hZjm+htlTuadxXaue8h7k10dN9v7KzpKnuQ333wYWJP5KPox9m9bX0MT/f3v33G8lzjhe2g71DK8PmXT199f0MzIvbWdDT83fGxW+PPJkYnJ97PfUTD0U+dGZijnpf8JPdZ4Avll5WFj4vDXx99u/m9cil52f6H4I/llbbVxJ8qa4R13Y2Z3fiLQ3OICqQbShiNRS9iZrCzZBO4RXI8gZ9Ci+hMmUp1iXqAZpOOn16PIZDxINNp5hssXawP2R6w3+Ko5Izn0ub6yX2Ox4RnjjeLT5Cvg9+Nf1WgSFBS8JGQnzBWuEbEUGRKNHOP0J4uMS9xIF4hoSrxUjIGfrtpkDaVnpZJl+WQbZGzlpuXP6jAqdAMv7VMKyUrMyhfVNFSeabqpfpZLUkdq16mIasxpJmoxaHVom2h/UrHX2dTt0rPUh+nf99gn6Gs4axRlbGrCZPJkGmxmY05pXmPRbqliuV3qwbrIBtBm/e2lXZ77ZntXzjkORo6bjo1Oge78Lm8dS3Za7532a3Ind/9hoeWx2tSvCeP50v4OeLvY+Cr4KfkbxRACgwJIgVrhFCFjISeDwsJlwtfj7gfmRNlGU0f/SbmdKx3nEDcx/hTCXoJI4nBSXRJz/fd2n/nQGfy/ZSbqbVpJenpGWEHXTL1DolkobNeZJfmOOfy5a4dHjvy5OjNvDP5BwpcCpWPsRxbLRoqvlZy/PiRE4WllSevlz0of1kxe2rtDEUlV5XMWcNzrufDqg/UZF84XJtSR7qocIl46evlT/WrVwhXOa5JX7e8kdR4o2mlRelmeGvprSttLbdv3em5u3TPoONmp03XUndJj8yjF71H+jz6jZ5pvdAeCn5FHJmb6Jtd+r66Ff+d/wluNYw8AMdS4Qo1EwA7DQAKOuE6cxCuO/EAWFIAYKsEEAK+AEHoBZDy+J/8AcHZBgPIATVgApxAEEgCZbhKtgDOwBdEwdVlHjgF6sEd8BSMg+9w5cgGSUEGkDsUBxVAl6CH0EcEBiGEMEVEISrgOm8TrutikTeRv1AGqGOoCbQMOgv9DqOMKcWswRXWIzIFshocK64AT47PJseT5xNYCDUUshRtRDViK6Ui5S0qQ6o31NE0VDSXaXVpB+hs6QboLeifMbgzrDCWMqkxjTLvZ2FlaWV1Y8OxtbHHcshyfOO8xhXJLce9ztPNW8Lnz68qQBQYE7wulCXsKaIlKrCHuGdN7LP4e4lByUapJGkp6VGZLFk52S9yLfKFCgmK3kqmypIqjKpENXH1Mk1RrSPaPTpf9Mj06Q2YDdmM+IxlTcxNI8xOmHdafLXitXawOWrbbY9y0HXMdOp1YXD13Fvn9t4DQ6L2xHgueX3wHvGZ9aP0NwkoDpwKVg0pCv0cbhxRF0WIjoh5Hacf35IollS9n+tAWQpDakE6PiP14NKhwKy5nNzDIUcbC6iPsRR9Kqk94X6Soay/4shpgzNLVXnn6M5nVS9fCKr9ejH/sl4D9ZXFax9vTDfNtUy1TrYt3mW8p3Pfrcuj26ZH47HEE+Gn8gOhz1eGUa9xI6ff0Y7f+UCc3jen9anhy9pX+e/6y/gfR1YerU7//LD2av3GRv4vz03J7efHVvyxgABoADPgBiJABqgBQ2ALPEAISALZoBTUgpvgMXgLFiA0xAJJbkc/ASqCrkB90CcEJUIG4YxIR1xDfEByIt2R55DzKHlUBmoQLYxORY/AsS/DAqw/dpBMj6wFJ4GrwwvjL5HLkt8lWBImKeKJOGIxJTflFbh+fUMdR8NA00xrT/uJbj89nv4EgxjDI8YwJkamduYAFjqWdtYwNj62EfZSDkdOJs5XXBXc3jySvID3Bd9F/gwBV0FZuJabFe4VuQ5nsTyxdPF9EtGSXlKa0gTpPpkcWRM5RrlF+VcK3YpNSlXKh1USVWPVstVbNH5oyWh76+TqVus16d8yuGV426jHeNwUYSZibm9x0LLZat6Gz9bdrsJ+1JHHKdC5yRW718HtpHuXxwCpw7PWK8s7wMfa19DPyT8toD2IItgzpC2MJTwx4m2UdnRtLGVcePzjRO6k2H39B+SSz6WyphVl4A8mZc5nkbInchOPSOYh8t8WXi2KLZE9/rX0allMhfKpn2eqq6TPVpybqhas8b9wpY7xYvlltfpPV0qvKV3vayQ1rbVUtVq1gdu1d03bFztOd3o+UH7I/Qj1+MmT2KeY/pxnhOdVg+7DZq+C39S8nRrjnLB8n/rxzgzjXP5ngYUn34qWD68arUmvn9p4/2txN/4ogANU8OnnBqJAHugAS+AGx34/fPIrwQ3wEIzC554ACUCa0F4oCSqDbkPjCBwcdRKiGNGPpEf6IG+j2FApqFm0E/oJRgdzG6uGvUdmSvYWF4WnxF8htycgCc0UEUQp4gplF1UpdQyNE60RnTG9FYMxowKTMLMciztrAls0uyeHLac5lxm3GY8prxmfNb+7QJTgEaE64YciM3soxBTEfSVOSg5Js8h4yzbIrSlYKj5RzlZ1Ukdr5Guua5vopMMRbNZvM7hj2Ge0ZmJi2mQubnHJSty6yVbHbsghxAnvfMnV3o3ag9zT3dvF572fin9uwMcg6+DeULOwZxEukdPRSbEccaMJD5La91ck26X8TKvMsM/kPLSQfTv38BHfPIMC5sLHRb7Fy8fTS6lPVpXLVzw57VsJVZWfUzw/WBNTy1r38FJyvcEViWv6N5KbqlryWp3aGG8P3y2753Qf23n+gWz3rR69R8O98X0S/ciBhefTgwPDBa8EX1e8+fVWbzTn3eNxygm7yTPvZz5KTQVNn5l5ODs7j/7E9lnyi+6CwyLpq/c3y+8835eWjiyzLdf9UPpx8sfqisNK0yrDauRq0+raT82fGT971ohrNmvH1/rXydY11+PXr67PbHBvOG0Ubjza2Pgl9cv71/Ffj3/92pTa9Nk8sdm7Ff8oXxnp7fQBEbQBQI9ubn4TAABbCMBGwebmWtXm5sZZuNgYAaA9eOc703auoQKgfGELPW75XPn3N56db1D/qmP+voPtTLStFc5EW20rK4H/Ab8i6V9gYWvZAAAAVmVYSWZNTQAqAAAACAABh2kABAAAAAEAAAAaAAAAAAADkoYABwAAABIAAABEoAIABAAAAAEAAAEaoAMABAAAAAEAAAETAAAAAEFTQ0lJAAAAU2NyZWVuc2hvdNuxULoAAAHWaVRYdFhNTDpjb20uYWRvYmUueG1wAAAAAAA8eDp4bXBtZXRhIHhtbG5zOng9ImFkb2JlOm5zOm1ldGEvIiB4OnhtcHRrPSJYTVAgQ29yZSA2LjAuMCI+CiAgIDxyZGY6UkRGIHhtbG5zOnJkZj0iaHR0cDovL3d3dy53My5vcmcvMTk5OS8wMi8yMi1yZGYtc3ludGF4LW5zIyI+CiAgICAgIDxyZGY6RGVzY3JpcHRpb24gcmRmOmFib3V0PSIiCiAgICAgICAgICAgIHhtbG5zOmV4aWY9Imh0dHA6Ly9ucy5hZG9iZS5jb20vZXhpZi8xLjAvIj4KICAgICAgICAgPGV4aWY6UGl4ZWxZRGltZW5zaW9uPjI3NTwvZXhpZjpQaXhlbFlEaW1lbnNpb24+CiAgICAgICAgIDxleGlmOlBpeGVsWERpbWVuc2lvbj4yODI8L2V4aWY6UGl4ZWxYRGltZW5zaW9uPgogICAgICAgICA8ZXhpZjpVc2VyQ29tbWVudD5TY3JlZW5zaG90PC9leGlmOlVzZXJDb21tZW50PgogICAgICA8L3JkZjpEZXNjcmlwdGlvbj4KICAgPC9yZGY6UkRGPgo8L3g6eG1wbWV0YT4KDn66SQAAQABJREFUeAHsvfeXXdd157nfe5Vf5QwUUMg5EAQBkmCOEmVLtoKlJcm27Jbttsfda3p+mulea2Yt/wUza9aamU62WyNbmpZlOUmWRCuLYo4gEYhQCJVz1atc9dJ8vvveW/UAgkQkQJDvVN1304n7nr3PTuecmB3L560YPrgQuJ6vE7vGZl1PmddYpF1rXVXerajvtbZT6a61rbeindda14vgE7/ovnhbhEARAkUI3HAIFAnNDQdpMcMiBIoQuBgCRUJzMUSK90UIFCFwwyFQJDQ3HKTFDIsQKELgYgiU3HaKtItbULx/dwjcCuXhu9fmvd/cTnV975Zc/u3t1NYbVNciR3P5blGMUYRAEQLXCYEioblOABaTFyFQhMDlIVAkNJeHUTFGEQJFCFwnBIqE5joBWExehEARApeHQJHQXB5GxRhFCBQhcJ0QKBKa6wRgMXkRAkUIXB4CRfP25WFUjFGEQBEC1wmBIkdznQAsJi9CoAiBy0OgSGguD6NijCIEihC4TggUCc11ArCYvAiBIgQuD4Eiobk8jIoxihAoQuA6IVAkNNcJwGLyIgSKELg8BIqE5vIwKsYoQqAIgeuEQJHQXCcAi8mLEChC4PIQwI8mmgd+gxYHvXyZH80YtxN4oy5xM7/UrYLPrWjrzYTrB6SsIkfzAfkQxWoUIfBhhkCR0HyYv26xbUUIfEAgUCQ0H5APUaxGEQIfZggUCc2H+esW21aEwAcEAkVC80H4EFJIFpWSH4QvUazD+wSBkvcp32K2VwoBEZhcGFmWl8j6Ep0L83k3YnSpuIXpPuzXl4JLBJPoXSGMNbzqffTuww6fD0D7Vszb+ejLfABq9WGrwsWgLbwHAeJZswSdPq3nOoQIEa9ZGDeCixBEzyNE8Xt+YhwJYZQe+ENORPRvG2KXHitE58L8o2dBjBUCGN2/n2fVo7AuhddeWdoV00ElY2HkHOd8RDVIX1h/gUEhwaHnOvQsyjeCL4+W3+u6GN4XCBQ5mvcFrFeeqfp9KUggfBAeQHNWQoQUhQgUIY1iRYgj5FOI4uss4pIDm3ToWs903LaByouoLMOC+4iYLD8raFzU1sJ34bOYCDtps8oyileQtHh54yFQJDQ3HqZXniNIoI6+KCqjIKRQx486vyNJDqTg4Fk8lw8GdCLGicSdZYmTBv+cQHk6/YQEJsPlMjEKHi/nTRQPXkZ4XXh6t+eFcW7WtXMuIVCienFO4GwaBwolaiSvI7qjasVon1KICRJBWRQXpAOAlwOsBmCTAu5zpTerER/tcoqE5mZ//wJEccoibCjnR1iS5wei4odfZ6wiO2Ot8bTVgCA1IEpZJmcVRCkFjfIlpTabKLVR7ifJdwqKM1tSZrlEeYBlImBxXoiaqRyFqPzg7sL76F10juLcyrPXhZ+oTtk0lCMDAclYeT5rzfmMtWeyliyB6CYS0JKYHxEdzdLwFG3vhlKPxwFIrBSiHLfFeBxmTwCKAHMrG/nhL7tIaG7FNxbS6NBwS4e3Em5AHksvmmUWzBbmOBasPZaxvVVp211Zai2VNdYAYUlmITRi/UmSryi1mUSJDS7kbHgpZ2cXM9bD8/F0xkbJNgXyef45PnMepNIhxPKyw4YLz3Sv44MSovr49Bg4FohuKYQlvTRv5UszVm9LlkyIuJhtg9jsr6myVZUVViH6Cjzz4lwIYujGyasftu/04oIdz+QthSg5CgwnYhUAsZoYQoEgPhfF8D5BoEho3ifAXpBthMTL/VkPxLnwQJzLEqN0es4qF6esbm7SWjJztr6h2g61NdrB2ipbV1Vu1VVVoERsGS2UA6kMsmTzYNQ8SDSWztkYefVPT9nxxSU7kk7bWDZh07kyG4tVMYpXgVPhJ4/qooyi+kXz3kJE5c0NChTg5YWFRuW9V+6CiSpGncrTs9a5OAFXN2cdVaW2tSlpbVUJaynniCVsQ1WtNZSWWSV0FGg6gVHWEienOVJwgWPAYwxifHwyY0cXU9YNweqGGxwUoSePYnh/IRCzNyXlE1x7//4W9pHOXVAWnrniFhRA3+IiTXbJymdTtmphyhrnJ2wno/KhzhY7sKrF1tcmrQ72vlzY4+nzfKaY0yc9EiLp7Nlynk8v8T5vabij0UzMji2m7fj0gp2fz9nRubyds3IbSVSSBsWECI4TFNUjOsKcbjSh8TZThvJVO/zQD8GVKVxLxAsJi4uOqWlrymWtGo5lTXbWDlTmbNeqWtvQmIR7KbdauMBkPGOVqNHjrkoPtFZ5Wifdlf6yXOvQfQlthxbb+Rm4v8VFOzo6bz+bStsL8aSNlJRb1sUoER0iifiTZuXgshiuCwIxO5zWFwa4Rap+WUheCwI6Egu+HEIm2bLp/IYoYBCC6qlRWzPabVtyi3b/urV2aGOHbWyqtlpogVQ35VkulCTq9+CCdL3KTodQIrrOot/JY1KRnkKR5tDNjKO/kKjwFsj1xuy0vTaZslOZcvQVHbBExANZrUQIxgH3g4KHtARlqrJuRFgmNGQqJFZ7Iu4pQSES8RCHbH6KY9420466vgE70Fhne9qabWtLrbXXxq2+Eq6Fukr5G4efi8O7BLUtpboiNAGQVHWpytWIQGUuQhOnWHQzFL9EtMmlrB1LZezpwQX7ZTZuJ5NJW1zkheoXoy7KKy9N8bvgBQTw2oLy5fiIhaLodDM+uPq8KIJjGCKBO87QladHrfzMMVuHWPCbd+6037xrKwSmFAtTDq5FogMd0pFUZ6UPA/mJlkSPoi4fl4ITZILvcZN5I6JZTUmJNYMvreWltrk6Zvsac3ZkIm3P9o3ZcGWr9QohIXJWCislBHAkAPlV5xsVlKdzCspUldcJgOh5hnaiU7JMCiIzae1Lc7Z1cd4+vWe9Haivta0cZWUJy5etEFWgQy65IBuyCngWZau2ByRGT1WMnkWkQtApp2lkZVVc1DTDGSGKWe+U9c5MYP1DtHTO5koafyVxKOiSQTX7aIUiR3M13/taOBoRGD/4QblrcUbLNJoDxKX6vkHbONpnf3jndvviA/usAauJK14kVpXA9nObKPSDUV0D7FmutYhK0OWjX1ANBPY/HkkNlKbe0uUgWBkkxfqw1HRPxe1XvSn7yVLejpUnYTDCzu8cGMj3fnK4cREZKiciM0fNZiatbW7YNuVTdrCj1R7fuc0eTKKXokolEOcs4mXaLUpqvgiIbEmY/PlVEKeimHorQqMgaOgQnxP393qqGMGdN5Ooozx7dTZv3zo9bN9GlzVXWgnQlF/hoZQXBWB4bYFCP4JqiiJHc2295epSqe97/wfBciDX7JTFTp6wzlTKHtuwyj51713WQM/Po0eJoYPxyCC6kGGR/i6E0U3OTd8BYfFneg4RieuggDLSxokXSSr+johyCJR0ImuM0jVi4t1TZ7amqsHaemftJyNj9hZ6ijEsWIHJN0Iyr7RKubagBujwELbLze0h0YWTqp6dtHUTo7YnPmef2LPFDm1ea9WltB1CsmTzlsmA0DQoh2inv0g8Cq4TrvhNQ5j1l/MzIFaxKpP2JuDySkifQOErzsZVQSre3+exYJntq4pZxZ42Gz02YE/DHmbzEF7XHQkOxXAjIFAkNDcCiu+Vh/qqer2zFiDNzLjZuVO2aqDb7m1ts3/98UcNDt6lKicyIIEG5yXSSZcwhY5lam7eTnb32YmTJ62vfwDkS1saxW85StHGhgZb29ps7Q1NdseWzShJS62yvBy1C4ICVqgc+plEKeKD9DDKG0Ti1ubBul2lMVu/odoONMTtmYGUPQ9Sv24V7pOjqNcVIiLjilVyEgwgIDYHN7c4bbH0vNXB1e1YWLSPd65GVNpn62tKnC9RpwyEQIhDiYiONlQVD6O/uM3n0zaHRS2bztrATMpOnz1j07Pzdr6n20YnJjCDS8diVl9XZxvXddrurdtsT+tqS1ZWQpQTlp1ZshJE1FgFIiY5NkOCdgKvr2xfZaMvn7ZzVSU25AQyqIlnBtEqhmuHQJHQXDvsrjylkAyCYfhy2PiY2XC/rcst2e8/8YB14gxC12cERSRAFyGlrDxZp0kzND1rPzvRbU8/+4KdO3feBsdGbRLTdVpOaxAay4AwIGJbdbW1lCVt7/pNtnvtOtu/a5dtWtNqzY01VlVTbnkRHKLHIDau3yRvqTn18ZNc31dfZa2U3T48aY0TU/ZL6jAcl4L1OoPrYcJcdK16x+f5RxczPW6PVVfYx3Zttns6W62VCuHZ4lyHSg0EHJEBcRiIkdmspSHWM/gXDczM2Os9ffbssaPWOzhk3X29JEzYxPS0jU9OWgaFsliWchTNLbS/HYJ81/bd9rlHn7R7t2+36iS6mCBj14GXYt1qAPR7if+p5mr73tSkDWGNMsPPRpxNMVw3BIo6mqsB4VWNagVoCqK7LmJq2KzrTas6f8T+14cP2f/0xGNwH9LFSN6H0OQ1cpfYJEhybGzSvvn8G/ajN45b11SAOHEpihl50xAYERlbgnDNz+IoMgNlmrfEFIrUmgZrrkzaDpD3/oPbbN++HbZ23Rqrwg8nEJ0CLYbQR4KIfAWFczK4jC8t2ovjU/atyVL7RbraJkBsSilANiJFzVqWzzwCz3nHvwedJb9I1HNioxLIKT1usZFe207dP9lUb7+xfaPtbK7BTB0klPZF9dJdhN46L2AhGh6btS6Iykunz9ivzpyzY1NT1gM3JD2WuMV4dZVVlpXijjRnS7PARAGOyWZF2PtQvM/Z47v32Zcff8o+9TBcZDOyI0HqkpgEMNqTjpfYy6l5+39Oddn387S/vJXn6Gy8RlHjIgCEKvjo1nO7kh/y+UjqaJYBtXxxJdD6iMaJOttFzRfoIvApijx+pSyUclfIJu4Dq4Z3+JE+u7elyX7jgUNWISShvybQjeS5kLV5Fpb9+Oi0/ceXjtsPsYZM1q02W9tIfuRDvIxYetfVkCeOfTaPKDKJWXhyzvKTsza8kLWh0Qk7ffiY/ezkq7br1Q0QnAN26K47rXNVmzUlq8FL6gZhENegaovgIEVYM4qce3ESLK3MW9to3p4dn7YuykqVyRojsw/qV6ohnU8O4pARsfFD7RcCqe36UdA9WIxFqRRRKTE3YtUzvbYNr7qv7N5qD61dZW3MbEzml+CuVA/aRhqhL0U4Z7NAm1Pzc/Z6V7/96EiPvdnda31wM2OIhzP1ayxXVwMbBB8E1yGwzMORJGTBmgUumPNtCjF1GuJe1Wz5wUF7tqvPJka/bVkI1+c/+ZTVNiS9PIcA9RaHt7Wuyh6qrbSxiXn7oVTnceTayOSvBkqZr7Padi0Ew0WyCEZk9REJ9PCo0dH5I9Lya2rmpWAEQgkzdOi1WARND0aP4A8kLsxBCMaHrAwLU+XEoP3avU/Azpdp2g1BY7ajJcnzOJNl7Cdv99jPJrM2sXYnWC1EogyCmISVQIF5Rm68iVFQcCxYbnLGJsamrSRZbzNzQzYw1W1nj52wF8+et32vvmpPQnCeuPsgeosO8oJ/8HxREIdNkP6igfrcn4zZBujK7soS+/HQgr2emUGUqMTLVhaZgNjE1G80BVqERRYq1U2H33PmVRlEqgLCUD1y3hpn+uzB9U32iZ2bbX9bG8pv5nFJMwvlyoDuecQXBwh1WITgzKCHOopI9NyRo/aL82P26kzC5ipR3basQSaC8FVywKWhbKFc1QGtDsRPNNiko5kBJrUiwi3AsB8w19nS+IAdG+yxv/7h961d1q2H77c4CivpfRT0OSQwHWpqsq6FUfsxtrqMRKiI0OgzyO1AhDrLd3Fio0ZfTSCTZZy7mnS3d9yijuZGfr+AHtARw86n+UvoFGwO0SY1brnBPtucrLA7t22wZBmdO4qvjseovIji9sjAsL0Jcs7Xwtq3rvLny1X0DiqkUv46M9qmQbYkiNUAAjTMM8pP2dIEIkMKojBTapnZCRtArzN+9JR1ne+xV984bJ996mN2z4E7raEK6wp/slSViCsA4TTNQWblTSRvKK+xjclK+5fz4/bM3LgdLq+Ea6ixRZUrE7X8gbwqdCMhuA41Co7BEGGq4GSacEZctzRmT+xab0/t2mjr66qdeyqFfRMnlZPSGmIjvZQkqGmo6bmpafvZkeP2zPETdgourSfZaPNrOszqmmkriI/+yCNLfwJhUsjrrAxENKQPSwK/GohNFQ0RQYUCZSH+C5Pj9lZvn33nRz+2zk3rbfOGtUF6/w18bDpqqm1TXdpax+etPwFcnddROWH+oszFcFUQKBKaqwLXu0RWv4v6XnStzq0Ojx7B5ujw8zOWGR20nQd3WEdrg5Vo3QcFkDxHvFgplo6JaXv+bL8dB2kWRGhQYgaIHEQNfh2bueRM9j6iS+7RdQ1IUc2o38BIPgVCzqDMTKGjSE3YUl+3dUFw+l543V4AiX8L0eHTn/i4bVrb4bPCIYmIK4GORD5rYszaeFZfW2Jl7bVWOog4sjRix0sWLVVK3SLHNrxqnfCJUojoiFwtzFrt5LA1DJ+z3VVZ+w0cEe/dts7a8Y1Rq8v4kTUJv39aIRN1HkN23qYWMvZqV7f904uv2xF0JbO1TTbcsd7mK2uBBW2pgKiWw0nghBgoaSlQxEbBiQ4ZQ7j8Y2SBXQVsGRNSnShKD4NGPJ+stSnEzeePH7cDr7xiq9tbrJoJmaq6V5+zdD2raqutdTgVEhryCgmaaYKqWlEkNsDhykPC/uR/+7MgurpAMbwnBEIR5sI4wE2gC/u3KxfEcYiHl75gGm5maMjsbJetSyzZ7zz5oO1b34F+JlB9yqIyuwAnUlZuh4cn7Kejs3a8utGmy0EulMPe/Z2DUamF6KAyKViIJV2QDiYWus6imlFcI7lEiwhBq2qQcMrwB8Q6M89cnzdftWPnz5BFibW3tltdOaJcVISaFB6ih20ok9ZAJFowIdtUiikNSzYryuY6CspleQpJFG2Ym2160mL9XdY6csbux2z+u/fusie3rMWEH7NSkJXYzDoikK/mbS1yTAO8EyMT9o/Pv25/+8JhexOT23TbeutvXmsLjR2Wr4GTqYS4lUFkUNg6kfO2k5sqKhjonn/XZYmoiBCr8oKJCJPkzgxEH+4pxyz5mYlxvIRjtnfbNmtpqIdWiquTCZ2oJFvi3YmpRetlZnwezk4ugg7+yIFSbVd5Vx2U6JoSXnVJH6QE6snFcCMgcEH/4QZzrM/KxvM1Po/4hMm0sTxv6/F5QfWBdJUBHTQ3CT4CBBpAifvWFMs8MMN6tqQaoqBRlIqJyIi+XNw3hViO6GGHVxwurZzMWT7CCY7MuNUgaG1DcMjrVVYU/EkmZ2L2y2eftzPn+21ocMy+8NRT1oklplI4SzZCOKGriq0AYbchQrV1rrXGmknLD4/Zz0DacU1bECclpzomEZWxjEPHzJAlUr22tyZnXzq0ww6ubbFaRKwSFFJ4vhBZuQeNEROUwiL3au+wfQdO6+jkgs00rLdF6jtU22o5rGc4C5GENql9+pE2WqKpH2QQZKWX4bUihu/1UgQYBbjVw+nNNvEdJhDBGlBtTdjbXWft3Plu28kcMxEqtVnZqYY1cFw78cM5zmz607R1KR7qylyhRX20Toe3h1MxXBYCRY7msiAqiPBuHI2iRB3ez3RZTMVu0h4ds9jggMUHemzfqnr7zP37raW2gpFdAoPSoRdhuYITU7P2vZ4RextCkCqrtSyilI/SId6sFBAhKgU5+64COVwUA6k0uovN98mKEAJxATr0jEWxmDgUYBJ1yJMmNZayt157y6YHJmzLmk5rbqihWPxvyVKIRyo/a7SvYFmGGohUJUSjZDFvg1bF8hT420iNMZ3C4XnAKgfetkOtZfZvn3rA7luLkxxEJsu06QRtzElJTm6aby1+bnwhbb861mV/D5F5a7HSplbvtPn2jTaAR00OYmBMjXBuRG1SW524kEUkLum5Az6EgSqtS/34I35EsAULWe1k/UOENeZSqb7xmSnb1N5m27duZsImMAqDQC6OZpZavtGfsrMSl0SkncjwMgJMpIuLEl7R2St2RTE/TJGAYDFcHwTULdV5whARBrHqjPC2kLI8/jM1WG42tW6zJDqGeChyyK1eKRdBxGGmH4zBzcwkai0tkckRi5ceVz37ouDFhp1W18Jhr4aQTw8461JWK3EEkgdYIsJqMJVrdEe08YVs0szkHp+0bz39LzaCn8of//aX7b6D2y3JGjilPsqH86KVnOzWMBnxUXRMpYzwtXAgv8LT9wi+PJmFcatjcugn1zfbbx+6A0/cBqxO2I/gQOJ4Kst0DbmhSqwCCJfWk5q1779+0n7edc7OYkLubllt0yh9nZPDgdBEaH3eBIUKs33ugK4Jhe306+BxSF2CCA43PXcgQGAxhWONsyoOcXiNTTY7tGinewZw8mMxrZo695hWbIEKSFk77d8K+3melVT6ZBVzvVSYJadrC/7hri3pbZyqaN6+qo9XiPD0Ro2gHug86j8eeCYiofscIlNmAivwOKvBzdvqxmo6M053MhGLyHg0RneI0jRrxszmKm0BriOvkdLTh/xENIJ7/ssFhWVedO9VUnoduhHBQZSqhcCwQJShDzIpml2pCtJVD1q+qt8m+87ZPx9+wfoRe/7N5z9rn3jkYatvbgSnheQJfgNfXeH7apiij3dU2tbWSqt++YzN9LyFc9+S/cbmTfbv7nvI1uFlLP001IJDdq1ADMuD/Ep/Cp+fr7/4tv0AxfdAc4elGjBB1yDWlAi9vQGcKFfEU5jveXH24EALLtVGRRe35oE0UZvDJ8ZiV2QMlYR4VVFG02qU5JMOi+nckJ3qHbJ5lPVurg/LVpHib9qpbCvOlKW+CBdsm76LTPoqVxXz73xB5Xh+JUENu4awTDyvIe0tTsIXKIYbBgH1Oe93dEJZnHwJBPxblmYZMSvclFqHolYcTTC9UbgknxEWqpqZtwkQYl5zkhhJPVxJH744jkSEC4JjYoCQmmsk8UlOboonJzw4nhiOgMKbxeG4vYni+v/8q2/4VIdPfOJJW7d6LU2SoKOCwimNXEKybDt05LNbOy2PCTtbXW6/ef/d1kkZWtPYV02XEkbTHihWXMIIIDk+MGo/PHrWfj40YedXd9g8nsxuisbr2RH5QqqygswOEv+5oHVB9AIgFFz6OwcHD0VsmaYR+N/oDAwqEFPRoQ3jNZyDqCxLXrQTcFgFdW8kXtmCyiUPiX4igBERd6J2YXWKd5eGQJHQXBouV/C0oEfrMrr1UY57WZw0EnLkOEpBwLqaJBZXuBkNaGEn1eUUbPkYawXPxKotK0KznBmXNzoIm4TU9XA4bpXBcwarTALdTRbL1xyey1247v8f3/i2nWPu0Jc/+xnb3NnpniTqLEoi/sGzoc17m1qs6eEnmQqQt7qSqoBWOKFRxYlMHIEG7QiOdwP2N4eP2BGmVEy3QWSaWp3QMeszoEROFJSuIDj3wL3D138KXoaXF+tKLo6mPES8MVsbbTQsbNE5hc/SAL5LuaUMIh7vFYiqIBN8DfPISlMsssX3kjTs7/Q+qpciFsNlIVAkNJcF0XtEiDqbOuAyknCj5zJvi6thlrGUkHG4hgTYKTISBfVXEZoU3MUIK+7NSichDF7OVxm/H4EyJDrF4SYQi/IgXz6JDgMzrnQZ00PduN4M2dee/qmdHB21f/s7X7ID29HbUJU0GC+xT+1IgHw6d1Ynvdo56u36WT1UWzjLcjXMzzNn++yvcBp8ifV759s7LNuAyVrmdy0puiwSCG6ku57gyQvy0KXAqEOVE1GTtQy9UQkwWGLJ0P7+PmYssGSFrHVqn/8RDdjIpybOyOBe1NF3EbXxPPVTDFcCgSKhuRIoXSrOcqcLX0YdWrd6p8NnWWN9QoSqqBA3o01SVoL0FWJs5JMyDEqm5MQmJNUyzp4H14UJVpJe5xWZSq8hhKvBhwTxKVOGCdg1E1LcUgnEirHpEfv+y4dtGqX2v/udL9rd27daDZyP5ps7MkIU9ReXOEEQpxMEITSqEJrRPZ+3p0+et++cOm9vQWxnmiAwEpfI3yMRx9sqrkREVu3Vs+sJEcw8nzDPKH9xc/Kt4SiF2CjqNBM00xJzw4L1CXTI0lZGOt8/ig8Vrq7NG4I+XDFcMQRuIqG5VO/5MH2sEFGiZqrjuo4GoQGOJYlbewUdW4yOCIz3cE7iaBbgEGYxwS4JU9XDFaTfuG6M85wu/HGQ8yMFs6xbiHI+x4jV5SwHlyOlqRzcgr1LLDuRtWcxfy9hXfqTL37OPn7PPTjbCkE1R0qqYmlvtJimmhTs0qBFozCi2YnptP3N2+fs73t7rQcv3YVqERnNPaIcYa3LIpz5X9bP3EgEVls1VUJOdhERE3EVoZEYhY+N6rwSoroET/RGh7ykdQSra0fxo/NK6uLVu0PgFhMaVezD8sHUScOOKlOofDbkS8OR4L4Gh7dy+bAQpbDJIjRpHrjnqUARgUMj8I1EOrK+MFCQzLWqj5TBcvRrgMsQEVCvEMHTXK3svKWxiL3edca+/nf/YA2IWU8eOIhriixR4DAZyHSt64Bfw0MIAjI0tWA/PXbK/oF1Y7pY9zfXvo7IWLtiCGCKLKFKC3w7N6S26plC4XXw5F1/RTwURLAcdvw48QoeL/8KlmqPylBbNRETL+ksZn/pebXEqVfJEyhSkF0ABpaP4G9J9fVMwjI9VvHnSiHwPpq39cGCj/buldFHu1ycd0/9gXkTERi1xa/pttLNoGDESQYHt4Q1YVIWoXGDkppM04UnYmI0rpZohrCeLx+6IJ/rITYRIpLTO0JUjpBHn0FbLkAHrYI9kkra0CehoC5hVnUZ7ehftPnFSXubtWB6B0eoYoCCSqZDd8pOuOxPQPYc7Z5jQmkDSzlUNrfaLLO/LQOR0dwoJZJvj2cTVsThxvXVtFdpFNROzya8D54Gv06wgWM0J8vTeEN9/RkmhTNHOyQz/g49E7dSemtOVjWrEJZVML88y6CRl04paKV/58JybsZ11N4rKits0xXFff8j6VO/T+ESH/0dJSmOet3tHmiHTEk+mnItjkadQmdkpRiiU1wdXk1VPw37gG5FaNSxY+zD5OIDyB1E4D5afkERb3SgOstBdVOlVA6IXldXj2QDgYkxkTLLBE2WV0iyPMPD+3bZoQP3wc0IUYMQoF3QoMBozzVYWs/qfvvQ6XSd62XLl4ydxf8kI3FQRakcJ4KkjgiLnjvMCisWlPGuvxEhjRDQCc7F6VU3ylFFndgoN91oDaCEL5ca+Gjj70O9HBSKQggGATksChZwQYUvgyjF3yuEwPtIaC6ugT6497CCF967Cu7VAT4koaBTqgNH+LTcOkSGoPWBBSfCGX8vtieyviz71FyMQMs5Xd3FO7IJiIRnojpDEKZRSi+CV1rjN44eowpv2k90bLf/+fOftx2r2h0BL8xG3y3Ix3U31FlS4r7V9TbB2jAp9mgayk/aNFvQ5jXXSvOEXGQijSSSSIfyvn3+gjZ6Q8MfwKy1lUvQj8mq5PqasIvq5B+IH2+rfvxhGMG1a2E+xdNlIXATCc1l63J7R1BH1MgaHdL6isOBm8lznVvmclaaqS4r3Ap8U4K4nt47NC+i80qS9+cq4gg8d20fO2cVWJoqmHneyBKh963fZP/jJz9me1a3B4QBIqTmKmhnBu0npZaEKOltEs/TQv3vX9VqE+kFW8BB703sa1MoYefkXSv9j6iv0sPNOfN2o9srwhmZ9lTjC/IPWqBHmtt1qSDeMgtsdHiDRfydGCqt0gR5XCpt8dmFECgSmgvhcf136nt+qEeqM8bQC6dZXXLOt6r1Avxx4IOiS32EYJAHVTX4BsnCfG5SZ3Zio7KoAMtndrKu78LoiG3DUvaHv/ZxFj7v8GqJnSmsUQbHxAoc4DJOcGSBUuUDfJSlphMjz5PrV2NNj1vtwLx1Y0J/hUbmskzPQG8Tw4dG8bIgsRvaguSex2V/IgIZEYro/uKEnqdqHdWcM0RI0w5KIXYJ9C7Rm8Kkyk7PtYRE8FE4idh4efpQl0rF42J4BwSKhOYdILmWB3Q+l42ic9gBw2da53eapSUXtcSk6E/0OixKugBpDMp4vqg0/Ac/fhHGeh9PQhxROPdknrMETnpT50/bJnZt+OqnHrW7NncwV0vVpoIuEqpegWE4iwPea0ffcPN9xwY8iJnioPZoXWHFkg+KpiV8jDWC0yzNkJ1keQb2UZry2dJawpMF0B1538/2URknFmEZ3Oo+BsfpingnNCKSQZ0VS9dOSogXCbmeh/KJxhBFvKmhsIY3teDrLqxIaK4GhIWdNUrno5s6QNgJdF948Ebr807j6i7vU8WKfkRTIg5AyOkT+7wMvRCa6vAUnN8lFNbJ6/Iu8Qofe8Hk7UWEdXdCA5fBKnzW32s1YyP25Scescfu3GK1ikc9MuhVAs8Z7bUUmLR/zFYwf/m1v7SOjjb7V3/4Vdu5bYdzKDEIkPKXkaaGi0346zy5ocEWzuTt5NSYHZX4VI6ToORG6WgUvJzg8sb90r6wicuEQg+Am/gYwd1Fp7CNy+UGUbydgefyRZVzuCvjmxkuqsPNLPo6y1oxb/tIdY25FXb2C7Io/BARkAqevQMxCt5dkM8lbt61zEvELXz0jjILX77LdVTWpdJGHU7wc+IQ5qG4UuQK03ilGcLO0VyiiUE0dhXQlAUfR0X/BS+lD/O7+BTVqfB54TOVf/F9FFeIHZmZ2XrX8hCYJdZp0XYwvd22BkLw+/fdY5+7b7dVU1/RAjUNgQcRJ1hPZob1jV9kTd///IMf2qsjrEyDZWrpW9+w/+Vf/4ltYh6TdnUQgY27tSZgArbWJ+yBTfXWcz5tE6lF61em8uURunv/Ew9xA4PaH8FAhFQfQodfyxrINTDXPCYPes17xdQhPTVL5lh2AaU4HsWaeOlBureQNgYPbtavyg/rcNkiL4p30e1lk9/gCAXgihpxI89XW9sbWfbNzEvtDDurN5lrIXp08CyLiVdIqkM1U3SdlUoLg1di6Sl34hC+UJwL8vQHF/5ESHTh0+Duvd4pX4krOlgLxx0LIS42cN6Sg932m5s32ufv32OtiDiiQ0E1gtrmmJuUglC9eKbX/vxHv7Tn2H9qkrVdBhCPvvvyC/b//e23bHRy1NLQygzznWS1l/lYqTXpYEddqT2+rsUewa+oZR5RMuR8gkKIfCODCvWgCw6HSUhwuBahKccLWhMn427dU5zguywTmgwWqQzioIizZxNGCHO+uSevQNCWoDLvcX1za3a50oqi0+UgVPj+Usgr4hCFiLDoUfQ8PK90Eb3kjlExkhgq6eTV2IMrc6VMRdAIr1AwBgQPLv1bWKeozEvHXHkqxx3NEpclbAE/mdkRM3ZoSA722691rrHfue8Oditg+QhhG0FFyPxbQp1mIYpHhkftu68ctuMTczbbsIpFryAhENCx1Ih9+/s/stpkg33205+2JhbY0q4KgfYjICWsgGP7arA8tVfaMLtKvgolmihh0QnVXZzCDQ/kKQ7G4aTr8OAbSMlbV1NrHZjsyzQHqiCIyVHUHDvUaUKs76flyB1GUl2vRwooKOuKL6/0+15xhjcv4gqh8Q9x8wr2km63MqP6XvaDg8QSCeTuLsLh4kEIW9GZgqDbUvIrp6NXsCymI1xUjrP0ihFifEG6q75UnlG+yi8BkVlkwaeZUaudGLWagT7W+a22rz5wwHatYQU9tRGxwQd6LoPN3WLWNTppTx87bV2M9A1b91rz+Di7NwyhxkDjgXfzOfYG/4tvf9fK2Brl02zr0lClZUspOwxC59Xc7k8mrAu5rG96wiY030pr8jpxVXtvYFgpmvaTr9/zw78U1XXMPG9pbsFliG/l74KyVQuBK4PdPcY3DCxPiqDjBtcxKPJD/btCaD7UzbzBjYsQVsgYXV/QARnFmbhXxpIEi5pXA6FJMUO4DyRc2rIdZ7YLR08tR1CK6DSrtWw150gIJ9qivC/H2FyW6IX5CATLdSVzxBt5M5dPj1rV6WPWwRo0X3jgKbt7fTsLlNOukLZpQrku0eBYN5azf3j7lD3DtrlTDW22xLIS4ywrkZenMDsg5Bfj7CMVszNwKiI2dQ1N9umH7kMsgajBHrFTOH9SDrM5XZJdFza1s9/UOUstjFl/JRMuffb4DURitcOz0w+wFAeiTchzUFCW5VicYx4XFdIsbVmfXJ/GdRibffnm7NTpHnZpQGmtZTQEa72UyHkrwvL3u4bCRR9vYVghNNfTiCvp7Jdq5O1W5qXa8C7P5JtRxqpui1rZDR+S0YlJ3PHP2/w9C4hJLOhNXxUCq8tqj6dazL01WGImxOZLgeyBs7bWLRxqwzfe6aPrKzkL1hG8lSdrbZaODFtz9xlrgav4zMF99vjejT63R3qVBMqZwBEvqOcEuzr8ZKDXfjA0CCfSalMVCEGlWlpCmheIBtUuQ8GcZQp6Nl9qx7qH7b//4z/b6uZ627t5jdUwG1xLlMrWo8ZL57G5NmlfZlO5kjP99nfstdSP+KiZ3zc8CMg6NGNcW674hFfIHv22iekWSTbSi7nToSKtQBvS6TqmrPp3RLSEsBI9I0qsBMVwWQisEJrLRi1GuCwEhG1hhxQh8RnZ6uEgzxKIOoN5W/s46R3/BJmLE05o6mtLLTkBUWL7kWAdCX9Nry9APE+kTn4V4R0jmQgOHAbr5iYGeqxuYtge3rrefuuJQ+xvVEltMMUjKKmUBl/UPM7ukTl7jmkEXzt32o40oE/RBnJ+QGjYO1tbxtag7ymHfqUXcbxj14Alinnh9aP2jW9/xxp+7wu2fQN7ZbP5k8ziCRZhl0kHXbPdyW4Ms6vq7Ewv2/lSrzlf/1cNDSC0gvbv0eaojVGSZcKsF9FLXXLtC5HB0eDTVAlxWd3WwsTPaiRc4HzRgKm6Zvh2bFu1Up33qEbx1btDoEho3h02V/GGDqxRThREnZmOKS/XOfZ19mUzS9japLTKnfHSvBfnHVlKSyBHNaB3G0SqOs8kRn/JLGeZhRWiRbB8VA3ydhyMFJFuquW5gp6pDoqgs/LyM8+V3id+guGLKYv1nbCa0XO2pbnGnnpgv3VwLoGgZFDMaOcCKX9lbY+R5/H+cfvea8fspCYwNWoaAoRCnJrylBjIour5fIMvD6GJk1r2QgsrjI/O2z+wd1RdW539G3ZXaK9nrpNImIhx2PPIyfY01tpjbN9ycnjWunif05o4S2EE35JW7SONH5yWg9oLjL3NaqPIo/LncKLPWd9D7x1ONEgKcM3ETs9aaW7WWmtKrK5C7pIyyIu00G4OrT0zC2u3gJUtI4LrnJjKUuEqS+diuFIIrPjRXGmKS8XTx7zZ4VaUebk2CtEjfJAVQ0tDsk6w5Pv5oRgblp2zCeYPtTc2OI7SbR3fNP2gBdSsSmNilkJYexEJMWSW4uSd2wkLEdGZOEHxe10LmcJI0bweLCXLK4LrlQ45yKGXsEW0LUNnrXK4yzris/aJhx+y/bs2e5ZaNL2cfbVL8osuMshjtzs1Y//8+hkbmitBvGuyUfZfYse7sH6aRkAd2e9pWlwKFfUpoohmuTTWrPSUjY3N2Heeec5WbVxnf/D4JwAJSOtEk+pQpTxEoBYC9rH1LXY202dfZ5+pKe2G4Mtm0F4ByamyLi7CbrVLFF35BRSAuKKOcCzsXhDoZICFz9oWgREMyJOdKm1p2koz09ZSE7dq6cWoTE758C8HhHnyHUqx7xWWwHlXVlO+c5ekV1m3ov95Oyn+Ngz6esVwoyDghIZOqH4vhNJoLy5A6/Oyb/QUW9GOslGcFoYKgkZQdCEQigbidlZXsCUbCKEj6shCMh2iRiIWfk8UfTk98zMFOgESooSHuAZ52um9RngpQJcgDOyYaT091spEx4/t2WkP7drtWhZFc4aAohPoWNjBzvrnFu3v2HvpKOvKpFDszpVDTJwAkK+ohC+MRb6qE3OiytiGt5X1Z5pbmi3Z2mbxOhZAr6i28yPj9l/++lv2y5dfAclJSxAIyMGZDUqzNRy/sarBHmJdnPqpcV4gkokD81icgmRcFAQ9E0wUTwQmLuKiI0znhfCesoICufZpFuTNpNGGqjLb2Nlh1ezoWYrSXisGStxV6kXgP7SwZMNwQHOCo3RHEecU1amgKsXL94aAeMJiuCEQUG8ODyGAzDWyOOlw7qbcprFyjI1PsMJnlvWDYdIhTDKbiiGpxUq1hS1gm8aWWAaTfJSVfjRpyLs+J6cG3EdI54RN0XgQ6XKcC+LeCZKQjsx9y1rEMrZ3tdFhOJphu3fHOvvsA49Ze6VsQEHWnq/yBqkWkB2ef/uMvdZ31mYbW1gqImHrKW8pPcdrkYaoEtSOepVgOauhrCaUyNmqEptgE7i5RYhTfsamRvACPt9j/+2//gX+OQ22c/s2DHHYecIshMdVIO8+ViH8KlMZbOScvYroOKBlN53tAZbinFaKVJUJggXtE8EV8utal4KFi43c6OxHEMUJzSLEcXHJuasmdoNI4LS3wCRS+ctIGS0wL6Iv6kW8GoHgpZ3QkI/g7HWgHKfsnIrhiiCwQmiiEfSKkhVEinpLwaMrvrzWMlXArSj3Pcv0Hr7SdLVNo6D70gBm7vt7++3s2XO2uG8vlif5jQR4od86OJD16ALqIBQ96sc6FDRSS3OqoPx0KG+JAer0IjbhAO5pJEpoJHfRQboIDszmydlpWxjstQoI3damGvviQ4/YlsY23+JNs6dFlzyQvfByKj2DgnSGTeKwhrGVbwlLX2oVwERJOQyaxKSVkAPBRTjKoZjxNERoqRTrUw37W7fb/MR6m5ket3RqigmVmMUnxm0BJK+GqERFqhkJcXWg+L0oh+fWtVsG5XNFFsSnbfNYt0bR22RdUUxkh4POpBS3pn3OlYn8lbSrgm4cRjz3d9xL1zU9ixIcgsu8szJmna/tbLOmBjbJIz/XS5FO2eiYhZM5gTPjeQcODzzwRmWq/Oj7RK9uxlltutZwHUmvtcjCdCuEpvDp1Vyr8e+JgFeT2U2Iez0f6z2rpy8ZfU06o49+dMhlroalFCAmY5i5F7B85N1nJEDqOBYPkZ024q5mJD8FfkAegvwk8qBY9aDsxT6IkDgCQYBCJXQbC42XsXZMDQrMCt4nSnPGxgtWgWihPe6rERNKqppt1c61dieesIc2tFsNI78zPmQn5Ap+OFNEIxvdPbaLFfW2bWMtb7bHpT2aXe5mYCF0QVBTJanJpZ8ZTuC41MEQnVyn1zMr3RB1yiI2VZZXWhULlas8NUdB10LxEtK3kvXDnXU2U7Jg55loND+XsSnqk0IUnWF50PmFRQxHwM/7HY7NcDpjwG+ETBacF6FLq35OdDiLI9JzERpxMiLQcHgISpjeW53QCAYJcTOqA7FF1kcwgZ/PztmMdvdU4wRzBVWW7G4JoVH5t2koKoOv58MtEy06ofdDnXXQG53A0G214j76i0qwPQ7CdvcPsv6ulsNeCTFGYfXd9rJK60APUi7OXh1aMpU4khyOfCRIwGrUwrIn0PVk2ZVgTUXaVqM3bUI0a4qXWydm4iRpyyFUVVWl1trBftJIH2wfbUnyK6Vu1SBmA9yHlt0sJZ4jTlQVlckhvKpCnKgSd8C/3G4kjWjTBEkMGtBV38KgpArBfGhFlFiIUlhcDpyI6z+YVyXuIUH5CspDcHBYEEfjlaSgNvQ0n1nXagvUNweBmKLdaaZMTGMzn5urtImxCaZnBaR4ASLTM5e2UfIehUsZIX0PeQ5CaIIlNwCArFgivrS3BFNahrWcywFtB3O0amtwOKScOPWSSV5LJ0t07WU5ix72DodS02Aeak4Y/8uERg3WvYusXIiz9AcibFEI2hndfZTP6hHFcD0QUP9SEHER6khPoKAN1KQIhrhYeRJrcBUDKVacwSGbgxvJ0bE1D0gIr6DfmrIS6wTTWuZSbF6GeAGSVWKKrszMOwJWg4zt1ShbWY+3hYmJa1i/oR2upbmy0ppAOC3noD2vdSSgFo4f5LskiwrjdBnPWB49KFHVVKHROaiG0zYtmyMdq3bPdcIStjFS/ygJuBjWXPmIvAQZrPyyzgw+QVpZUIuyy4FRUmRhULbKS4eCCA/NwOyct3oU1yUQaO2iqaC4eRYKz+FRnIUTkUiloC1qxqDDo1CJITigYbiVQQjOOUTFATi8Kbx7S+N4AKNzWliCeIyct+zshK2GY9vQsYZ68xWom4JWC1QFlmjcKOnmERODDe5UGEcYz62B+t7iLhVEZKSEXm6JP+VHtQ4BGz36iJ5XPr2zmNcABfVmHdcSrrVMlSXl4K0MwjQFKTTUmYSFrpiks0qcUafTMvp4nWr3x0wW4QgT8ABzhc5199m2NVhl4NnFy4Td2MoqUbiWz9pjg2dsnlF/TX2TdfKsPdlobczHqcOxrLoCToTcNVZGhz5i9CGltxRkwtr581JgxbJaAbKG7yK6qMhqQSE0ZSzzoBfKSJlTV63bogmSap1e+WvgkBfn5d9DT1ZCuYisxwqfKa+oYkRVHUJIeQSvg7KgEWUQz8IQ5SyOx7d1CStcyT3qHluF998uK8dJgG19STjN1i6zzAyXP8w0lr7B0XGbqC61N/AgODU+YzVQ0Q6sY1W4IChvzx8io2+Rmp+1SbbtjcXghLKitrz1b8pbrTmaCQ+1xb+5iIzicIjoOHC5dm6HV9cbor4W5XM9eBPlcZPPUf+89mIFhGslNNde6gcjZdQBluUK0EamVSli5RjmHY7JkmBqPaJUGjP36OCgPf/Si/bU3XuhUbiIIRKof+pDMM/QDnWusq0t1VaOe34jC0M1QQKqyFYERP1aOK2z+rXTeF1fIvA6QJ7wnQ+64bXTRnJZxgPqKQTz4OVIz8KdI9fy4/C1iI24JZUAR5FFDCRygsykv5EIUhg8Lvn7DO5Iz6Ga+X/A0YnYXDZ4oy8dS7od6WyVp0Q0tCrWDGHMidDrYUuNpTmW8p325O51NjfzSeCYty3tOB8qShj0DSSQjaQmbXR0zKrZj2pYynWHuGop4Iftk2LHYcSPgKv7iJstzJRUxaD+fSOo443I42q/xrWW6dhZ0LuuttwovjDRsZEH6mDRtXqfEEpEBuzV7inNUJIGfDwWxIm3sAUtyKllB6ogPjl0BgnOGjclbSVZG2U1Zm713UohKGepjnPSESgOeUksumRfLsRYNVFHFILk/izudRUhhNgQSWKcJkMoig5dB0ijDKKEQUY5ZBbpXfTY33oZShvUFeM210oTpNWVNEIlwETr7oTRg8z8VykvJE4FL1cuPeHFteE1BQjUQZBOJ6hBHB2N9joXAY08fsu4X4N5PSZKRBrBXEF1VIjAl0DnVYN7Qism7/HYPOlLcWAsRSVPfg57UiDGBY1RquhQTjz3DKNclXMxXD9H81GAYUREonNhm72TC2lRbAhfIm5Gig6cwpLs9LgRH5T21Y1W3V6Fq3+d3b13pzu0xjFnZ2UNCXu4kvuBQldK0DwjsiYiSkTS4t4RjVQ1lquia8e2oFLiNIQLHtTXda2zQvScS4QKR9BFyhmfWcCik2X2OFYeHNqWsLg4MVEaClpSW8KQwYKUxlFPWYqTyaAT0S4P4mZK0adI0avrlWJFSCCQUINqlDSltEM+N2J8ErS/EhGpkn24a5JJPI/LnTi4ZUiAIKFSe1lR+ZQpAiJYRM8lzKkMJQhIJ6mkhOZPEyeVh4QbER3BTeOAiIyKUFBeQfrg3FrfYPduWmeVs2nbyrrJo+w2OooI1c+WwVMsZzHDIl85adLd9SDIY/mDOHfruZKZahjlfFG88Hb55A1SfIIqqfuLg57fpiFmL0zfvrW/FqB7r7rER3yvvAq5p3d8bHUKKEWGtXbjUIgY3rf4rVRhit2QqLBNINOhirjtqy6xNQ01Vg0yNdUzr4hOWMY7IVXCzTlUQF8iGhxVH2FC6BvnCEK1vf8RL6RN3ifFHaWpYzkILu4nC7HIYgIuA6GrmBXuq8dd1OQF5lXNYzo/3Tdi//Lcy9Y1iLgAYk3hDTyPjiKXVVtUJdzx52lT1PE5R5eqonZ4EMHRmi2amKgZ3ytFkVrcD22VZFEGwmoPJS2foWlglbS/HqtPA4tPHcSU/okH77VGvHRjiJ0xkFmciqYFiFAo10VgNQURLJcOR5SKd6LTWtYiEAfh9nimuCrX6+HszgphUp09kE7vdQTlMC5wLWJEy9Ht5G2Ssnqn56wXuJzj856Zyln/Qty6KWMwMW+pEsiXLHPy79G3BN6B8lgfjpxdzOJMfA/6iArRObgLfhUneq5zlEZvo+vCfliY9ja4LnI0yx9JqKsOEXaK5ecFF1FH0AfX9fKxZMnMrCXnR6wJ8WhDfZ1tbG22u1hhbguIvpq5Ms3lzCMSQVJ/gkyoy6VFLuicrkrkgRSdYRdVpJVDD6N7VYdyZ0D+GUSwKaYSDE9M2BhrwMSxZg3hEDfQ3c8Gk3N2aNdee+SB++EayilmpV3Kah4E6WYh8n969mX77rOvWfcsOzWw/UlGa8sIiaU18iSKjfewTh5W8vFbsVt66SZrb5zXz995ItrIv6OwZqbDNcXYaqVCvjBzC9Dl81ayMG+vv3bEGrAyPX7/3XhNy6clgpKSa055zEaYPvHjXz1jIyNDVltVxep4dfgHJa2zrRWuqAK/oSqrqdSRdO5K3J2q7aoTKIjjq5oWBX8ZNFOt0hE+cvreSILGpjrb0RC3ycWcDc8s2cDkrJvTX5lZtNPkOQpBHkexrK11HW7OxZCLKF9EIKLydI76TOEzXXtc0qkC+vGzrsNwqbyid7fBuUholj+Svuw7vi7PCnqmOomwxuf4MP5lJONkrIHZwAfYo3o/lqQdbQ3WySi9CpNuAyNdHaNwGcO5466XICITzBBWbq5r5KxeLnzUSC+CE1AfztzP8GKSyY3jU9M2zop2c0xlOHa6i5E2ZeOU3z8xZqOpFLsszKPoTNns+KhtrGBL2k1baVLIVUgAC5unMucwzT5zcsieOTdmcy0bLLsayxgWGycw5bBRF8hfPI6CsNFRMnwgsUpwgZMJvKAvhhfxvFzIqU+0xBaNH9ASjne51LTlJ6YsBnE8fKbHvvVP37PtWzZa52osciis5HEs/Y7KE7exBJdyrq/Hnv7RTyyNbquaHTQrUbDX1Er0qrL66lprRuzZ1LmeOUzrrL4OQlRbg1UKsawMPkf14PAmcOn14kaPBXs9F71w2slZqwbKtVBNq8PdoKNqiWVIq3zN5DsWa+woXM4pvslpiOdbczM2ymRTnAjISMo4CWfKlRCWG1zoPqqESlyujWIGt4r/IQs3xmHvdgOKE4yw0upFy0HDnphngkYQTSBENHAqwQjqM59Zx6UMZ7lW5sGsAR+3sLDT9uYmO9jEyFpdbnXYhoWu6maapiQdgeOs9yd5zgRB50U8aMvhLMSqh13S2XhFGp+ZYvbwlL0FYh3p77ee/jEbxy/k7OAICsmEzS1l3RM2g6PeNIrKdKzJcovMZcL/JMmGbnfdf489+PCDuPKIMxHPpEIoBV+eBLOVj6fy9t0jk9af3GiTq2ptTj4/8lkhb29vKHJ45aNKRwgQwU9n5Smlh+ClY6WxAUIFJROHOjArXEQ6DzeTm5+3/EA/QBrH8lYG4ZuzH7/xhm387nftj77yRauBsyrFIidRSIivKtTU1dq9Dz1sJ4Yn7VTPGJxFwsYn5i0DkidyrK+T7QX2cWuqOGzNVVjuMK/XtDRaM3qxO1k5cG9nh21avcbampq8roDCM1ZTxftI3KpgcMhQxxL0STEdYf0rUBDnURAngE8lo0ZFFQ6SMHr3tZXbIMT2pTGW0xgbsbfRd51LMvWijBUDlbEWX2ewCYgxZw+CW1i4xC6NQnrlo1EISydGqhhHBOcwtd9H11d6JttbGYoczTL0+RKOQCI26qcE0AYAAEAASURBVBgiQFzLs1fOGAMD1pSZsYbpMVtTnseNv9Ee3LbONkFcWkHQCgiWDBEiMBFiKJ8snm9LmkZAVmUgj7xkFTIQhATiTDqH43xpMO8pZPR95H77XJf9t7/9e3uZ+UFnYEHSiUrMtVV4yDKfoBSrFD41VSynUM7omWWSoxzyNBkxjqVky9om+9ijT1gtiBmXvsOVlktUAQ6Bva/HqcsPXx2xoQSLU+C0NkYvyFVCNdUAiVi8DygeZyceQZ1Vb4eRwynsuX4dxvMI+iGPCEE0nCuOH8BVRIk65uXZ6/oNyiV6jiUbhgdS9s3vf9+27NpiX3zsMTyCZ4EPjovoa7QtXZL5Vnu37rBHHp2zwR+/yL7eSZthhnWe5S5sCe8Zrg3d2NgSnE8K2OdYEuN8PxzJon1nadzqmFT6R5/9vP3B7/6eNUNshNdSazuRodau9+GcwXO7jImhHpwAiH6KIHBQfVkHWfoL+Jt/+3Usk7Ejucp62qrt5GTKfjiUtp+xauG0fKvkIb7SI0ivfqWDTCI4+TW35B0819lvdPGhCEVCU/gZ9W3d8Y6z+gIjrzuu4OK+dXzMtkwP2P72Rrtj50bbvqaJ7UjkVyqsXCS6VJBYXeggMhYHI1SAt0KyNGbhtCsoWR8YBCtjtM1DgEohZD4/yBN4Sjp13FpxJivHCzhtScvWtDBPEUIjllybruFpnMdSM4OctYTVJ4tlpH52hmWAM1bLzPAvHnjIPoZ+RriuH9lf0kwHmKeTl0JMfn5s3F48323ZlrVWUsu8abnaa80V0RO12wlNkJbfleAZrtz61SUJDW+WCY1iURHBVnGlvYWwJkoXnfOTc51zXIsTlp+qtXPjQ/atv/+u3X//IXQ2KLK1Ng66pzJ0QCLi2h7lif377NzYrC2kNB+JLixRFuIikQyAWAxik4WzSLM8aH7sPN9x3OLoV3JTKauGQLc0Nzq909QKTTlwjoYfWeBKoSKV6HlUTbk5BkwGN/z7wVO5FznXCqw0RGipzwYU3B1VDbajosEOVeXty2z/+8LQkL2I/ux5LGpQLvoEqVwHRp09Y7VdGYf9RZeuUOL8IQsJ+8P/8Gcfsja9d3MuRhZ1fn/GWeys+Gk9YySNMRWghKUu99FhH0zG7St377FP7d9iO/D7x8mULidkYW8gMFQEBmOvd051UB+5fBRUp2LxJIjQIOJCHwTrRz/9mX3jm9+0//Qf/7Nt27HdWtvaQcVglBOuUwOrZsGsKQjSi6mMzXRut7o1G2yGnQWsnmUUmHVtjVwznymL7sCWpqwWka5+8Lx9Em7gjz7zKWtkbRhZevQjE/ksfXkKMescz/7q2TfsDFuiTDPX5ywKZedipByK9DKqQGHQcz2LzrqODj0rPLAqBfqaMD9/x7VzAxrXaCHXeeLlEEdKOHxjtgW4EnQ1spCdPdOFNSpp9+2+w5IgpqQuEV9ycf1VHaJfFnfg0wszdppdFnKCSQ3iULLWYjpXN1iWOWN5RJ8ks8HL4Yxq2CBvU2uT/c7nP2+dcHFyK5DTntZrltJY00D/01/+tf3v//d/tdePn7EJvlUFTpOliMIS39ReYoYND06iEYKx+zVqEAHGSXRfq4i3kYmjW9obbL04J4hNGvFqShRNnsXi5CSyq0HKRP2NfyfwehYFL1dl3v5BX/7DF95zVPCvG7Q5IjKMmP7h0TfE4AhYXttKZ8ZtzeywHWoot4dWt9o9m9YzYqE3ICX9yfuIeBcJJOIZgmmK4lzEWkspmMD/JG1jc3P2JgrcV3rP2mtvvG497O442d1nM4PDVkJZWld37547EBFCTojOpXlBMq92rF1rLaM5O1xZz15JMOvSGUG0GB7V6xmpUaxK3IHYTI6csS1Yvn7744/aRnQS6vzgJx1YgoHWJS7BnG32rcNd9jQixgJ6mZR6tnQ4whZ16igIftJIq/PriILg5eAriBu9iyJKH6HXIjBRkLjg+eusgzg8y6LEyrLdiS02MIegAw01S0kMdLP1TNy+9s2/tTs37bDHDx4AFwNTd4CQTIok680dTbZztN/eHJiyrhrSxuD0lC0cTRVznhK1jTbL9IJM/6S1MqF1Hs5v697dtn0bPkyhTikB7CQ6iYEbml20X/FtXjo3YD871Wd1L79sWh753gP77IE77rJtqzuts7mZ1fgqIY58bcryhBpwaJJWJ3QQcGK9DEvC6mylzWvr4XRiG+zIxKw9N8xWwHBb5yGy46qrKqzEIjwa5ARraeqVhzeGB4XfRfC/TcOHk9AUfo+C/v6ObxR9RCk08fGw+RmrmJuwVXT43XSgj23ttLs3rrYNdcyoJh9lpUPcS3QVo4NJaPKOBnItofwbYkJez9icvXa62547edJeQhw4zQzsNLK/sV5LbV0HegCWzIS9P4ZScwaWP47iU05mFZLpVRZ1a2xqsPrmlLTGjIakRXxyxaJ3UKqgmd3TvO/vYYmIEXv4zq12FxyNgk+A5KztXqWFmKLKLw2n7B97B21obSeNENHyqCos6OTh7cpzHkRNvfhddH/xWUgS5Ru9i+5dXFAEIRcZO9EEI7HS2QLEhvlcLFiDcneBRQDP23e+8092YPM2XzxcebqHL0QqDyzq8Vv5te1b7XzqiHXDj6S1up4CC29lsDCl4Syy6E5q4HgWRhFREbm2b9mCZaoaUVPe2HBF5KXd0Bf5oscwmY9gXk+1rbLUUtxSgPrM8Dl7/fs/tv/+9DO2b+1Ge2DHXju4c69tXN9hjY0VVg2RLIcwaA5YRBu8Dk6FEFjxj0rSzAOrSmxVQ51ta6uyl0en7EdjY/YSlqopfQPEYFhTPhjfXR8tYI88mwsBqQ9x+4YV0elWUMsI0W8k/Px78FP4XaKO7uXoxrsF31EjCvd48MaY7VuZ6rVt87322dYq+8re7fbUpjXWkdQ2IcpOfAEHN5qprKOUfEpFaECgkalF6x6esJePnbUfPP+W/Q3iyXePn7ZnGckGMbvmWphX07gK77IGOnYl5ll0M5kKCM6C7diy1tZ1tLozWwkjXMSiL2E9eht/meOYs4UQOIvApqA3ciRlHJ4aNRvuNTt70u5tqLY/+cyv2+aWJjcFq6nKRy2llXYai9XfHD5hz1PrTA1ILQczF3MUMwyCmcCj/FWegt/zo7My0zd7r0NpgkQrZwe3MhAR1Q156+RHmLfKlE6MvaOycIFxiPX00AgLmjfajp2bSAqfSRyZvPMcPn8MJXgpotcrY9M2gY7EA4NGHOVLnm1Vcoi+8dSQpYd7bD1rZfzxl74IV9KCEMv3Q2RawMK4yPUExw+OH7XDEzPWV9/Kt2qzHIp0HHooqwzdVrn1js7a4deO25tvnrDTZ3vs7aHzEDRm10OcSnWg21npzmorB+1zgZoBpBruaS3i9+raMpbqSNssC4tNQzCXgEeOGlkG/Y3EKk2b90Bih7OyErz0PZTv7RluLUcj4rbydW4ABPUxCNG3ugBZ9IIPJRbXnangELTOC7qY+NiQtbHy3N21JfbrW9fbw1s22AZWXtP8HHEZ6uAaTcsgMnHmHOW4l45BY+g41o4uxKBfnBq1l7uGrev8eZtEMTmq5S6b11q2AaTGFOqLwqg+pXRgrfA/iZITZeYZNpV74ehh238Hoy2Lkgv3FNSlNNbtqa+0nb0D9ryWLFBHxILiSgv5r8xM4DE2Yq2IaF849Jg9sG076VSroFOWSOQAFhNLMfeXeYk1FdLaCE11i1geYnt0Bx0/3qlJpLPguPycGqlS0pI6/Kip2H4PHon3isO1bv0InyuhCIzeKVOPw7Xnr3wgoPj9WB36lfbVcDcLlkHnNIZf0Nd/+H3bsGurHbxzByKlxEtM3mjFlLSExh1au8oe6ZvADzBtvQkgBhFKS2+lOdwsrzGXnrDShXHbvnWL3QF83GANkVFNEiJKVK0XYv8SxLy/vZPvTB5sF2MsWWop1jxGgcx0bssz4zudmLLzbAN88ucvWuL1tH3vuWft7jvusEf37bP9WzbZGohYORnGBSP8fGIYC+TlXAmRJEPKzNt6RNXk6hZrYwB7gT7wo8Fp68LyOOl6K31jompkUxCcHMR6SHBmIHwXPLmy3zD5lUV+f2Ldej+aa+WkLkWg9A2UnwCrwz3fQsD59+FHArl8G/K41S+MsJhJr7Xh//C5hmb73O7tdhdcTJVmVAtDlYZyWBWFPzoN91KsalGqKTiL40P99pNjb9mvzvbZ0YkyG2fLkVzDWogKfDcsumG98GtGO7fqiC0WJzGF2ZX1UIwlIOamM3YE/c3w7BTR6xnzsV3Jf4MkTmhQSO7Cge6FHKOr6q0GMH/KJsdAgBGLs5D3AzinPbV/vy/mlKeMLH/qnxoEZWk6PjJn/zK6aGfR9WSxVnnvFbFQdhcHwY1X3sl1VqcvHBCk3xDnobSOELwXQiioUF37t+HGiQtI5lyM7knkeRJP8NW38DVdIHxM18BRBnsxXB+Ib/NTNjHSZ6/1d9t3fvy0bWDZzdV46YpHi9aP0frvQNl+bW27jXRNWW+GBxJHVD8dKPFtftxqEwv2yL14HGuQUVXDKmrGdxp4ncZD+gSuAiNsJsfSYME3wsfJd7Bgh1FLzli8ctbKkqxtUzPNTi1s45vBr6l3wk70/sR++cLrdnDzRvv4vffa3Xt22Tp8d6Rbl1dDDMKjwUr+WSJvGqxWYaZ/orHRdtbkbW220r4/mrKXmNIwPI0fFKsgBro4VTSo68pFCLzwVfD8Cn+vJc0VZn0l0fgyYbhWhI/SX8vZO+S1JHyXNBEw9T0Kg54LMYQE+ugoBlnIFmQdttVD3fbZLZ32B3TETWj/ajDz5qXQlGLYEcS7tiOI1sWbQjA5fL7Xfnn6rP28p9uOYVGYQBTKNrTSSbB+aKcALUwOS+8HRMMRkFuXvyX+YFJm02cIRTX4UGpHT8COnztrHTv3BSOu6gts6KvWzg6Pd3SsstW9S9an1Z50SAk8OogGs8faEBMePbAfHQBkSenoyFr0PMf31BSHIXY/+0XvkL0JB7SI1yyYGMBC8FD8wqDvIQLE1rZeV8FRlVBExcWMXLUwZ82aywV8ShiFtQRmAs5GrzPoSUTkxnBqG5KuCSuXxWiv9A/KSIRWwQeD8Nq/CQVplS0tlF4Hdk7zbSRqMr1iFoXvL1543h66g7lQjz6EW4CW7iIrClT1tBLEnqZa2zywYI2TeE+jrDWsUdK3mSxZcCRrMC8/eOBu938JCKQyID1Efwo9V/fUHPoSRGR2bHDy7gSSOlN9Hyyq4T7rF22WNWqWmuFsGBTycEqGT9U8OqVTiHtDL7xqbxw9Yffu3mUP8z3uwwS/Bi9xWa207JjmkesQsY3zDav4Dp1U/ol19dbQWGaVZ+FsmS/XI32NiK4aFxFsLgOCr4vbM6wQmtuz/u9S67AXRsRTWKCPpk6tzcNQ9trYsK0dHrI/uvug/dadW2wTiM8abBxwE24JUE8kjdKCE5r3eLhvwH516m376Ykue505L0Mo8jItm2H76xn9QAxW0QvECZVVeJCHT2TiGWw7LqukoRejA8gyLPdDMF57/TW7f8tuDBDyFgkQSWx9FUi7lXlTuyAs1NxGZyCS7A1lqXGLDQ/aI3fus0N7tzrSq66y0GihbRnap7FSvTgwaj/G6jUBt+Rev+IiFNG5EV0TVFAUhP/O7USEQcQNx3osc6vgEjYijmyuyLKtSjVzjWotiXkl2jo3CwJNMC3iDPU7Q9wh8hrQ/KZsOXt341gozg46504swiRxOF62yqfdeRA9ybP6Jmsmr1E4xlxVDYr1cfvhL39m27Zush0bNjqRcZUFqUTCksDwwJpGezs9ac+nhjFNi5PRMQdhXLJD+/faBvbS8jRkr6L1WbMQlNQCy3Yiwi5KfMMRMqAunKS/0jf0pVjxYULiXWhCp8Pi5nkNUhMQNKY3GDtE5OAqpxBhj0HUzj3znD17+C279+VX7dc//ggi8S5glaTZ8rHS4IH4JwdK+mYpnaoD3U1VE/O2YqusETh/b4E92st478p6Op3EOBdzBa+g7vzedoFWfIiCPoSIi0ZOHzV1z7XYfUZgeaQ6kRkftk1scv97dMCvHtphrVgn4ni6aDxeQEFXgfes+ti88JH+hhHEfvLccfv6K7+ws7DAA4x+U41rA/8NxBFjs3vfu0mdUwkUIiLnN5QddRJxNDXqpHRqZHcNnhnSnTh10lJMGqxvgmCpvhAk4aSsYbvQ8WzG7PVizyAjP6iFPskG+20Pz7906E7b0YI5mySOPZSvGTqiFd2YbP/x3KC9xtKWS77aHYUJub1uqqfuOcGZ+FkwEjEWQZDzCr4nEtMq4TAeYPS/BwJwcOsGW92YsHpgVgZBdiJDdBUv7dBCtsq3/wV/7e3+GXujZ9p64AD6gdmJmnrWd6FMzQwX9XZkVj1UHnUQgdcCPsl6dkOBa2vt8PbPQLx+8dordvcb+2zT2jVWLWJMcjEI4KnVAJK7myqsb5bJjcOj1oNYO4Z7wuxgn9Uyp+rxe+5nxjd5q9iwOFmRJ8njNMr6Y9Msj8EqiKzLwSGo0xLVkzr7gSVLawbnUf7mmdpgLIjFlPOA85oY9WfZasQ+Fsya5v5tCM85uLCfnT5m97MkyJ/+q9+2zatXwfdq+VafDcX3Qv8HvLUJMdZwSzZWWVP1Blt6o8d+SnvPS/wWdyzAql76oMsfmWdXG5TPLQwJ+4P/8Ge3rHxh87WGS6VVdkKiiNCoN7pOgY6DgtHFpYkeaxo6bb+HVemPH9hjbXAVpYwkceYDSc2oUQ5/Uo4ECjqzN3vn7C/+8ef2d6++accZwc/j6LZQ1275GkSlGkQlvEER3gMkUZ3EsWiU5t/Pfk2d1H+FxI7oQmL4E4kIs+NMLuy3GsSSOzZuZR3btR7NOSDyyyLmlTFiD6OfOds3ZAMoJeNTY9Y03G1fvHOvfRI/kySKYuGoilCQOXsETPoJPibfZ+fHARY9txLq6I5iwER1c4KoeoZ1VUIUmF4v5nFpJ0fDWbGs+6z9LjqH39+zxT6zrdl2N5TZaraQbQBxa2lbDcmrOXTWmsX1PGvBdNyB+LirrsK2Io42ULks85H68W8Z1wi9PK+KMknjlVfdRAV8UGCXAghEOQPDEtYnfrDkMzsdpcfmdRutFUW9T7aU0hXOTCCWvjWDpWl8uJ9jxBI4Rs6d7bKHtq63zz/5OMrXGtQk6ht4PVEMqz1AADP2Yl/KfjVDvTRYOELzgsHE4QJZAHDBIQW65oHpENFmoqbr37TFhEzU2j5H+i9tI4P/jjzBU+jRjjGAPPviC9CMClu3aQM0vIQc6WmCP/qpmJvHyYJsNdWiFYKX5htPMEVlQmuq8rkCroYIgpX60G0YPnyERkOAI3T4Uegz2iyMVarhBEZtzfg5+4Ndq+x/eOge957VthvCNYlM2nMZCZqjBLEjbz840mX/149/YT8Zn7STeJ3OrN1h+QZGWScwTfRuOqc6oJfJib4QdAbOCo5EnEV8og4iIiiOwa1GIBGEJj49hKs8DoIopO/CgiFFouLHGMFkacnDTSygOzraPcxkwiFM2kyFwEz6p089brvaVjmeSjEqBHLaShGnMYv/+ek+e1Yr80m0y4MIqqDMp6qngvdZfpzbE5FhyF8ETmnMwn1ddj/rsfzpnm327x/ZY1tqmDBKXbSAg3xzNLhefChbTSJVs5V1husq1jje0lppa1n4q5+sj2IBU4XzggHIuEyMnZOgAaoLjSij7EaIsghUZh7XQhZpnxgadHP3rs1brEqILV0apckhIIFmtwLOY4b4Z7v7bZqJqBXMZP8SMHoUR70cbGmpdGd8C+mf56lb1/is/aobJ7pMHOc+uBR3iKTmIjTeCr6tCIKLmUG9DUWuc4ACuAimuA5tNcF0iWAhes4Sk8WZQTi04t8IRO+XzzxjKRz21rR0WAMWNryognwFLDWbqomkrYeQtcarmba1aMP4V03K1yjitNSHdNyG4fYnNBeIKHwEv6cD6nuoH8JGx+hwJTjN1U302ec3ttkfPXy3tdVhS0Jfo50BhKExRlol1Q4FZxlNv/nWUfv6W2/bYfQuM7UtZqs3oqiUwhekraJTikvQ6KZE6ph0Fme31UHV0dSBosMvdM9zdVp1XhEAEUBc3S2zwNycWUeefbt3szAW1pWwXRKEMiBmAsI30D9iZ48cteT4gH1h/257as+d+GSgHKW/qwhydOlgCgrwAo5h32a0nqykrr5sgTosEWRq0YUjDwByfQEERgpmFL1xfE8qek7a46z6/ZW79thvHdjCLgzSFaHQlNnYCQH1F3W+OESPwroIJKAg4gGcDliUbKmwBpTTIvgjKGqz2vPa4U+ECJnDD5cGVlN4TstDOs9CXAm+1QIm6AUUt7s2bbGO9pZleilSIyJbSttE5vpR1o+cPoHfSqV94bEnbF1bC9OgZq2ciaPuB8x309Ibb47P2S/YGfQsSuslTWxVHSSiiOuMsD/i/PRObeY/4MD49hKv9Ew+PCI84mh0iL2UiKs8RYwQqdIMFsf4dr3MMVvT0mqtTE3wmfXUKAbxc0mNz5Bg7GluYz4c+R1njaFzgoeU6loQ3cvW97v9QsK++u//zKsdduzbrwlhjVV//wb86INoWgHelzY5bpVDvdYxcNoeqMza791z0Ha2rYZV1Yp0dGLiiX2VbK7JcWdxbPvmm0ft/z1+0s6gHMzVIR4lV9OB8KmQEledyPU+GvXUIRVI74injsetOqWPhIrL4e9Vr/A5I6gPq0I6Rq08a8kswYHMQ3Q2r19vOzCVluB/4fEpT2v6Sh/SQPKJw6/Y1mSJ/dbDD9jWNR1enA+FvKO1mF3zdnRm3r729qAdwYKxpNneTokoywmd4KR6EFn119INTF1wCw3r2jT2n7cnbNb+zf377dcRl5LAtVzch+ouXY5b0bhWsy4+eOxNDU7Lr7n1a9m87mphiQUI+RDK0yH2Gs8LPuJyVB/l5xfcC1GFwM4xwmmiZ8rOL2FsG7Y2FLv7d273qQpCULlSyqYTg4AkUd5mxkZt4O1jtgcP6KfuuY8lQrHx1GpOlVpMTLiE7ulZ+7vuUftpmu17NeHRBw01gOBcgyrD4deqXMHhfU3f3oFIPYmn+jqHA1FAvLZkM/eIVBG3A0HNQCx7B87bQE+XtbB2dAsLdrlXMenFlXlRAjHVqGdbmRT983WsWmjJqLhgoSqFZXJ5OwU4mpDQ3IpaO3JeY8GFaf3DRx+AryRiIEIj+R7rUmn/OducSdkXDu6xR3bvRHnINEiN7Mj8SyB6iZZfIM0J9Blfe+UN+8aZ0zaAT4XJZI0nr5Wg6JNVQh1KH1v9UYdC4dmRMXj8zl8iOvHhLG7Gx2My03IJLCkg3Ugaj9hmrDn7cC6rY1KkzOt5OqiWs5RIUo1MpY3gNrLT5J6t23DFIY7qQ+cU7RChmYIIfrtr0H6It+xoueoNcYzqRZzlCgtmcvRgHRhfYgGuzwYHbJ2WUrj/LmZ/b2POZikuLYgcMtV78AzC6/c+KWZhbFWTmQEob2PWihg2AdHohrDOQiVzkmWEZVEiNcatLpyls5ESH5O6sRJfmikX8zjzHUQcasVNICE506cTKAt26YQQau3heo47d+22TWvWwXxShrAXwiDyMM9HPDY+ZU8P4j+TYMEvOUOKaPAfIHJYkQipw1veFoRokOGR4Ks+J2Il4qj8SugvWsOIBblcFpYShv80Su4+nDpPnT7NTPJa27COtYlFoJgkF5OtnjhqsxagL0MXNjy7YL0zcHaYvIMxS5WMgip2e4Tbn9A4kQHYy/Dngo8k06ZMwDY+aFX4yjzIokefe/A+W91QHxo7FE+bhSGWMIfoJN6fX2c5yW/2ddtAC6ISm5S5kk+7HOKC7pisfPVtL/6+6mjLL1QRxVuuUHCvWyGQgosfuqZzyrqCtUkiVBrHsTjOagd37rBVTODTfBx1Yo3WCpqvs2rVatu4YQN7PFWBXzwnCwVVYY4ynhtJ2bfO9NpbEpfKxM2QRxQEKwUnMhBiRDb3gEVcsoE+qxwZtN/cs8O+cN9+lKcQsSA2OK/ef31BJc/ITESF63CIrILY9w/h/csMyRkpggUbFeiFEtvL5EawcrEOC5gU6BCcMSxulZib7jm4n/jojEBsBy3Rhe91tbW2rnO9rWptQ1+LiAwCSyJSHfJwZaOY3F/qGbGfMq1gCN2MnnnwssM6XHyt+8IjSHHRL4WL8qufiLDp+2j5Da1YqHtxqTL34zk+iE6uCzGqlTp2dsBh4zGshd61PXKO9KpvFeJTLRbEQTyI+1HUpyPOcrlUIt0m4fYjNEISh693mwBpVqgMYOe5FK2sz2JDfRbD63Ydvh9feug+2791s7uI089BTKR1sHOJkadnIWvfeuuUfRerzmnmJbl3qvQwrKG7rPFXoVG5haOvnhUeF3z46IXicK3Dq01ni5Bec5eQ4Y0V9URscrOz7JTQzEi8lgmBGESVRsk5dC0LVDlKzVI6rl5pwHdkpHP2cv2N107Yz6dZYLwa1t0d5mhsVJbOOjQYo2x1jmYROKG/su4uO4i/x588/qDtbG10RziVeSOIDNl4s+WEL3c7maTFnc2zDm83k0+H8CfJiUJEQW3SvSog5ETk8AmkWncGeGXhvoZHBmznti1sA7wWiU6WnBDEYR7lcGFaLD0Bcso7V5nJbU5swZmpBfsJZv8301gWZW0qpNZh+sueBPyLDyVSM1SczuporoDmLB2OOB7kN22dk0VJPMoiWX39fbaqvc3WoHPKwoVrqxevJnloo4VaONIxROFTWCinIb55F/FUhgohiMJGA5hDOXj8jl/B9BYGgeP2CwKa9CTLhz/gnrOQSCutgbCGT0NycsTuQB4+sGWdb9AmJauiCEHTdM85vuq/nO21v+3ug8igh2nsBLsQm9KwvnJpjywRzkaTSEX5j3LRzcWH3iuoIxQe/jDoIBr11FGETDKV4pTmCmbMpKOsDfzz5160fixdUQkab6MPpYFRyaJSNQ9LeUEu3DnvMCLJWBkikzia5VRcOmzI0c+kYSlQrUbn0yEGB60RB7eP3bHVtuGTU+pwRX9FXB03IggS8obVxFQtFlbLSH+wvc7uQHnazOfytR/0UXREdRWM5DBXKd8VRFgdrKGDK631TE7bn3/7H2wSsz8tcXhEcBJd0VGK1UdERi3QAcnBXSBnp/pTdppJsBl5Iv//7L13eN7Xded5XvTeCwES7BTFJpIqpHqXXKRIdiyPm1wy4+xMNjPZ/LGZ2dln/vAfebK7zzPPs8mmbJzZlHHi2HEvstU8tqxeKJGUSIq9ggCI3usLYD/f8/vdFy8gUCRAkBQtXuD33l+55dx27rnnnnuOtxHeQjgVMlwCQPwsta+OVkiH0KLlZktWc61C8nmxjcOof+PgYfubb/2z7Wc5lccSSmWR8+MKNBc90raiE3krhcuX7iCFUJuHdgmFk/8BdjAB0oC+1ICGvOfivx+MIrM1OmEcosXbMkAyi9hmvHvztZzaLYcBHJ3aVZtodtN29mH0zz6PpO9BdpEGC+nEGSCZYSiZITr4CLOLC0oRwSV7iantae+28uK6O5dP0GnOZ2v1SJw6YgkdsZQuBTU1xk7Fu8dO2v7DR/2goIKk+q4eYqcyyDnFQ7mOglifOnHM3hFyKSAtzO/y42H8Jx1G1ZMY5c7D6vDt8gb4ATc1LLYqBif0BbhLFFN0TSUy/zuVQYiAs+PUHnwx/GUcLNyKjM4qdvwKpMhHLkZyTqUJ0Wj5qDNjojSRY/K6QmguidDec2+8br9ARkW8KQ3QuEZTvppJqeoKddjPFv5h9C+fGs+0HgnkTYU+//ZUXaa7ULeeIXUrROCIhkCiaHQsQgziinqQzTKzxcvRv4NfUWPjTDIvvrHTfvLUU/AJ6Z+KSnqSIBYfMZ9uuB6+3Y3I1JRq4yJVonQA5nAfYL3EflpPnAOwH8igdCXHARpE8B7YQUkg/buI9blO1uaL5KQ3ijDxTgdVoQ76Pw4es+e7B21U1IzUZI6DXNiJ8IvO6BSNyisEo23P0JvVUBfifC1P9TOwkeNntgbBiQGNIJiomhde3wFRBlWGU7HUUGGw6F26Q7TOdmPTeydr/z6kalFUzJv3aVoNZi3ZtLxkq1l1tbwa6w0ozMqlp7tGufQMFug+HX4tZIoxQbMOo3pr2EUr1CHGUKeCT8hQzymqj7ZxZANSRsJY8iwDUGTf+clPrY1tYCEappfIqY3VPFzy5FQjwmUnKXIjp2I7Ye4PSYAv1aAKdYHO4Q85kpbaWDlLFoZDmy7PpF3MqqURdVOLjy7oESab7//8STty8pQ3tncxii9ED03ppnrWFOfYEuoswyk+PgYKO/THCwT9Ykd/n954sbOea/pUrg85dSldNGjomN6d1DK8b4ffwKnfPETQS/rarRacUV8JAxjhMB+sNIz7pHAKbv4PW/vtTO0ykAwzjpYbYrjRL5xJoXvNTPxHjvQD1SRw1FHPdkkYLVziM/jFUJBov9KQ04ytNXmxBlEsacrsPQxz8vlXX7Pdh06iFS8OS/AAt8AJ9wi12gnAePpAi+2fYCngemmJIz3A6XWkvIJTvWlgI+qOFJxVwMPaBMVXyQ5Jhu9SaVheLKflEzqDxa0BpNJcllG5yMmw/xS1K55g1SANA1dLEITcDK15Tvkhh2JLloKgS+1XL71uL1NXTPwQQ5xWE7OV4vmFp/GoupIbYtn0xL4O283Zq1bSm9QOkcJq8Oqai/M6JE6qDxLZ0wJ2Tw84yM+XhFS1Y0ExnXXUIQ/KGUsJVlRHmWo4d1qGvahB++ETUDUxZeeG94gmxfI5+RNWhUR2Ge0kNSUuq+OwpsEsPo3271P8Gg8QwTcbrPHnS+WFNrhU+S18Pqprr0h8NbAYhgieFWESJR9Br8WIwJcgqAULjlaLsvcxx31rfz8CeWwb6jgBM4ufc9EWtriVqpk4fBSL3/ROlXp5Pjfq/EI88tMuRdWMrXMtvixgpsbPQMVEJ5LMz3FAbwBMEhrJixpnp3vhuBH67gtH2+yADi0mQFaaPQP1pbxmc6LMRtiV43Cp9CLXont40/KlVgEvREq8Lq5T+pIbiapY4ieFBeOsMFL0yFT2qcFPQ2jLOC+NqhF1o0OtqO781a+es0aoGketoZKCP5WaHcTS5EsdXbYHIcwJHRtwGZ20AAt96+IMJBpg8eYAaUq+RoiziPYuqbIMllVDyHHt3L2XUzIRFSshRPHHpEM5h6VxKdY2ajmIq5Pfzhh3oUIlfGW43wwejdc3Pz6T4LMO70ImpR8ZkPq6OsujgcQITMcbmmxaOZyYrUGe4q6mNZwCh9EwrS0Jkz5DnO0+wOLfpyUw/UFYT2t4LC7qNHACRVkZIJt+pGJ/9fyLdvDIEQ+vPjpzKGryaof5+0LzCXsnm6+CWZemd8kJnQ1n6EyTlk1ckyzPCuAjVKN0SueH0mqARBbaqRQ+2jxh5ZWNdHApRtmyhXFmcwouSkCi/0IO2g0UZaOzRvDVdNr9+VdesddefdWRuPQNu1Piiosv7wxI91k0ER5E4nmYpZpTrjNLG9rsfHzPJP7xNiaX1CRyllpU22gi08l9xAdExWajlyaTdk8yQbx94KC1Imwoii6ciBfC0dmoIqjN0hImAuXB7qRTyOkwnNc9cKVgTIf34t9PdcWzDZiL+f68Kud8Aqk3cUlIT0sNEM24DlEil1BOQ/r8SSNLR4vvonCfpMIHQUZFQjJyKqecOkNw8aupERt/9NkkBJrNT0Wc7eP0d5EUVjRo4K/kosG/sAALi8XsrJxps9defwP9t7Juqb41PV0V+VTLGbbnhxA0Tvvmyz2evVPJj6+Qs5ZxEhQknvukL62BYyzrAskegl5MXxBr3OUjZ5IppunZnC8LhGwYoNqh00lp/ERJOSdCKt0m9zPPPmutOkw5Iw0tp7TaOA3ldoADl6fzCCEGjvpJaPMZcS78Uf0kXDNSUztJcpHDvBwEQw0GSknFo4MxPgxKHBR/UaARTUrUJ+Kls7bpc5BMlwoQ9L+qMxMiXDPy+AA+ssEA4HK+nohuL9nvXBr6PYN7CkdGo5ByMGC8AaRdDUSjrc0iGlEKmiQ3M8lAlaStnJooh5llkm1OH5B+elhf4vrQrTq4Lh1EdDJYsWL3HnjChzn6qncpu4GczgC5WAFa85DtyIK0TrL8G4H6GAZxiipz0yBpyQuP5EAJyGxrQrM+KNV5G+IDOezAG5BMaF89q5NKIE71RPtnKg34FRKDv7gu1K0oJ4kZqD6ZsdlZklZBZ70JgJnLNy+LykYYLZ+k8xjdvlmlPZbb22tj/VjvpFwSdotSVBrxxXtaP9oIgn9TCOGkA7MpbvF8i+wThIANjoRCHeuVAJnNqdtqaS5kwxa/Joh+9U2Y8GLPFIpXh4uaTYmozggHCT6GhLQnK76ebrwt4yDKWwj0A+pU7MhFJQslvDR+yPtCfa9wKtnLQMNIGA3VD0lm7sbTp2lAZnBaRgqpvcAEFWmai1JpUTneK1MdTs/xFd6po1+0QSiIdOmsFbpJkK3IhlcihvDSlavtJhRzFSDdKgGv2WbrJVWVtiG/1BZNxksPga7iRkWO64SXXk7ey/nkwru4Y8oszKAoQO+sodBR0Iv5K1C1hB1E7mlMu2DuZss/1L+oEZCNpJ3h2UxwgjvJfSlyKttuvNEqWHaGYseJgbOgZ4leDQ/u9uVrbA2KcvK0BnWKAD+9XkKki+mrKPGc4M1ehP0pdt+0o5kpO138iaqcYLJQc8gEr1DNKH16CApUCNoF/9RlVIHudJN6iN99sDyBe2W59PpMv09VNC9ROK6ZQMujE42NdGL1LImqM7Opg0HZgHNYKueil5dmFHWiDuc+XVWkgjdvnIFkaXTxv+D4Rmm60w22oOhYfcCiszlbrt+MHaKV8WcphJzudG6oGt0nN3JkYr1OgvvOFqEwF4Ix7qjvzTaQ/F1cNmbmMRiqQxzqdLkZr8f42/TsFuDpvRUoucFe9NSMim8kp9E10wVE79HjchFuEmnbBFSMzKg8cO89HEtA47I+ezilxUVVSEizCmsGN9Utto1say/C3EpUmQSYLb+Z+S/ks8NG/WrkhWW7KEvOQi1pqIf1hKZHtT+ToyhyTYhSjD9AH+6HNeAUuVOvaUApzVT/j9+rjb2d05/j+8vgqbhXhnPymRpN+THYPiZU0+pR+Lp0voT/cTphI8y1PgaRN6qWVurPpKHJfFFlsa3M0fIBSZRxwgj7aLZ3RKOGUlh+xBvxS8/pFw+hQWfzFdgbe0a48F7fPD/5XMA3zPGJQbama6rz7eab1nK4Egllwmf5skDzWfTHS58YZTdo++IKu7YEuLHIGMGrZQgVwKtp8CkS4VMXp9YTHGjsae/hBMIJVzI1KfLcy6/AC+z8+DTtBAxS6KAlTR+UVDMM7ZGwXAr1GLJ2eNVuWg7iZ9KAKCnDUpzvvhTx/f4777aGRbIPGY1fv9GDrriOtXNTX5xl16F6dAnUgdRoOnXkgUJml8BP1b/IGqhQKQJz66hZdvvWmzDXW+7IM4vjCxl00iSNCCfNmgdHrZG2Gg8S39Lfo7TUyKGP+XKel/7Mp1CX6luqO7/i7+HbJfKvHEST3nt8ylIlz3T0LHUunSuBwTgBH6KRnaWDR4/zWh2cj0Im8e0iOt1tNaXWMAai0faqM9noyL4VLYykxsHTLZ+jgYvvTh/OcXmDh4aNgyuuogUXOoCWDhwYnORk8iRa9reuW87hyjV+pkkRVKzpEaNHLZgasDa/dUmZ1SXEJNQgVAF1KU6aS4dHsyJXBrsdw33DdhJbRT2cvRFVFOWVFm+hbjWguASWZukRlrfN6Jh5d2DI0J/HW+Wsr2mA+ysaQOXSZCAzKFJtgZWEiTPNtg7F7dtRFkaLu1NTKbYI0CglctIAZMtf56s21xVbPWnBTiY75XmJnSYWdhT9EpdaK0YELdfVN9j9N98Cz42lksrMJZvskqNuJ/wR5GyOU3cIAlAwPpKM+6FN49J6qQPyUF5h4owqI1TKJfcvQ01fpIaNG8f7qsTWOUMzwfq9paPb9h85ho4pOqoqHUQjrQSqd9iK9tDSBrsTRmiBTJgMa6DF4TwEAZxKIkKqU6qFvZXxz9cJOFW1/DQXZiDlhX0oA8lAXlgls/YtW1CDgHXDDMJEbNOQZ5S/0zUaXeALaRfYtmix3c0WaLHSUe/1oxJpeaXfCgxtsbKtPoGGOInL7QUZn2pja1XqDVJlTY+0APeaxFWVFEEqHfo5VLkfieYTgwOopKEO0qvHAykgg1LM+AQUDCo9TSZJdAAV9R9VfHvkgXtt7YolXrthLGmgSsWQD1hqTzs1CekfIv91dXm2vLzA8qWuVIc1QzsvQPHOnQQQijLT9jQyXm6pob2ZCWbAHsAKx/XXrvUkQjmE8kX3dTARHG/rM+mlj/CKOrD6k5zqzSs0evRXvPOAU68u912A9nLDsTD5O1IgKc3WeXDvkXLtauu01956x3qkYRxxf5/o4w6NJINt5DDJA/WoXkD7vHc853PQudXa4iJq0LFs8SuOtzDApqVCP3EVCNIJw7GJzQ11tm3dOuw8Y2EgLZiQy5TjCXh0ZTAjrkXO5H4kZjdrtpfxtATIJmb2epwwy+lB5dBhRRDNJNcw28a7Dx+31/fuxxxsvLPhkRb4h2aRzi/BLF1XLUNj9taZLjutbLSTko5pAqXnjHzRKVoqUS4UnevIhM6y3cpp/IfvutWKpFt3Fqfa0qkhYbeAx/IR3rxpfTk6j8XTok/4pDFL5IV6FcoR0tPyXaIFCEwW0+dymFhuX95AOe4ApUSCjAoquDGUjH105L3QLtBGhY37cim9D4REP/j+lMBe6IgfVF/rzPQr6kVRDQsZ6CyTtkglyCVlQ3nRQbwhdmNe37PP3ty9J1IxSwxFFTGQT1nL8e9fWWEPo69mGQJsVWh/89PfqfYMN/GscUH1Q2ZCKp4Gg0flEaMa3STWzuBBrUUZne/WNStsLWefOBAArFN/EeSiutHaz2wc2MOZ8Bs06T9EObbkJK12XDwnZk1fApJHgJms/V4KtaVzt5QFBBK2kyjubmbn5+lXX7dDzS0MaZY3inMRnNKVis428OCOphF0G3PqSZPCNCQjxIIL8EtBlxj8Or2s5R2qOkuQoP3MvffZ8qIpJEMPYLBOuUko2BRyZsBnkV4JAeryM6wqi3Zm+ZXikYU6Om+fCg9I5P38AI4mMKUtqhr5rRJ0JWWcOGSby/Pt3z/2kN28bAnn8VChQXiJGUh3tQ7NCNG8ewZ9yeNIsEtoUU7puNOMoWuGC0zmwLOUf5ld+oR5mUFZgOyFbFwbPUJdOlyI8FsC2ZT2zj400e+yTmwx+TgnKx1JkLmLSdbJVVAsH1teY4/UL7EamL6u+FpIQGtpNZIomgVbTqQ1eiB5hSCR0JV1g1UYgrsdi5llxeyHgVCm5riof41AcWirOwdUKa3+WlkQyJ34DvesXW4rWNln+CFFlTbdhQ7KO50ap36srMoSCL1llJRB0bxrT730MraZ+m2YWXeUvBbaScQgjzXMGTQb7kBnbzumbSKVFkIRad3RkYwGJ4hYS0FRHzIKx1GDDIz2PbRlq9153WqX0UxHLqrdBPUzhGY61VPClWrF6YIQRNmUQ8Vuwg5ULQiHhLkusgvIS1oFoKxzsHs11nzaqpkMPnvnzXYbenWK4CfmAF+oAXHl1FpHT3bb3tMD1sRB0DExjoVYAgK5yGAvZPKhXAuZ5uVJyxECjSBEozMkuhDsmmTG7uGU7wtv7LCXd7zpvBrvmGpFRulwUjwNc7OzH1lRb9vQ41rNtwwNMvVKSXK678Hm9+NrHKpa/jRH2iKlUWqUiW7YCpY921Yvs2vqqtkVoavp8vBRM3VjoOx7P/2hPfmLZ9D2jyYdpSdEQzIKSMmxilBqW7E5VIeVx9QgSjGHSUcJ6grnhtDtMikKh2MPnSDeHz/zrO05eAi8SseXisnU7KlMdF2YExXWDBJ7AjPCL6DQqUlnzDD360KLEVMlykAwet1TP0I2UuWJBkLZGhdH5vEHH7CaPKRqAUlBg0sC7yE01333hz+x13bs9l087Th61av4DOZydiXXY7StkuMPbq5WKYQ60lBXgumJhsRn80O84KcihvqKAZTUuiSxmVDGWfYtBo6v3HunPXLLNigskD71Mgl/UNWtmGrWtuGkvdnYase70CrIbtPUqbdZAFFEUUvhmiXI5XyVaV/5j1+7nADMK2/vCGk9IdzK90GNL+avZDMQ6Z5kJuxDHcIoOxxrVi6zWp3mduSRacOQ5Jkwg3NAVAUIThWzWzXGVmI7nWJAW8oiQzUAfHkWRrW6gpxmQ93rUuZc3qPje38WWgvP3Mr5K+LKkJq23pndMjtPWn2in463Bf7Maj9IlwGvSQNebhIK5QAD6E/+/Ot24PAp27Jhk9VVVjNQ+KjkYzClBlJKso/19NlxdT7xqzQIBL+QcQpWRaA8WpLA+5iUpj2WYy3oDe441Wir2C6uA+m60mwnm5SR3Iyy6FEuwBE9vedX+FSgnabIPzh6zL554Kjtl94cP8yqmVoXTgVSfrLOoPrVPQKFbp2zuQm1rKfR/bzZPn3bViuDz5SAIk1I0hYnELoI+9TLL9vff+ObsHMG7HpsXxWiu3cCWZUM2lnLKVGoY/SNIx0D1jiYRCMIA53XfqhW5XPms1KcxSkrv6g/Vbr3N9Wl7uNnbb/LYoRvxZMwSEXLpYyuHituO2PrUTL2hZs22Bfv2GIrynWQFbEG2ncSqkaHWodJsxPE9NyJM/YTTOwcR31JO0cuxnzHlMy9HWeB7WyvQtOd7fsleB+37iXI6UKzUOO+n/Pv/NBYbhKljMYWv6UMm0AlbdbN1uiv97xl1/ySAVTzmNWgST+TQajDfNrVUeNV02HvqMyyipwKKzmBXacuTLuCdJJS6el8BIWj1XzaiX3lmxrAdDT1wtCwjnT0Ln6hsIqrVxKJ1QCCkrHBdgwRoKRrcYlt3LAKE0E6MqFYEfk8QUcdZxm389AB29/WbzmtmAl59S1bvXgpZryl4CpyGpqFRNxaWWj3rK6xnYebrWecJhbJreWfnJZrcpKuFR+rjME+UkddsZsjvg6Gy57HWF7JxDd8MN5523bGC3UpqsKBgosQjmuoPMGFMqe/45vO60wSbxS/g7r80dHT9jeHDtl+cSMkEasBikpNH7Bet0TyNJQgJRIlwASRzfI3l12xDcV5jowrEE1wagQhzGiVC0VAGY8S5sldO23nqVPIHuXbSUzUlJdyUBXsnsUgzmCwonXBVsFov4M0TqDJcB88oCEE+rxhlLfKqXoSbDOdw+aBoi9eJ3EgD088IZoEdakdTBWD3bUMKLFqFMbfzm7fY3fdYHdtXGrVTGqT9IMEZJkU0GvrWohdOo3faOmwb6P58VWOKgz6OTBR2BEHx/vQTLj0LFiCUz/7ALkrk6JRBaZX6rQKpXOI56GKduXbUAz4oggGMFXaiWLrsiJkKeoXs8pi1wWKIWoerY8TrlO4uiDDVpUVWiVJDLS3WytWG5P5DAZ1eiEPJ/HjzuaUgjqkLt5FiUW+ZrjwXj3Ov+GLuamdByHCfhANeo0LupsxDbKZQbTdioFfZ5cmSZtuyAw3bp3wNP7uZ0/aqwdOohyPcy8wQ9evWGn1i6A6GGxK2wkvcsyFdFDcRmQvtLMzxkzulI3DwkAABJ+9RWI42HqhAYLHTI+NCDtx8IgdZbBWor+4FBWauTrQR526PJLKLKfwuvTjfnjWO3AW1AMbYihNn7DDGFH75tsH7W9BMgc5KmBoyeMEKXAwwIUMAwIWshGAQmzi06ieMHObc7rRavvb7eEb1tuDUDQVaATMELUHchkleD8DVtKzT+zYad/79YvW3wOVBmKrh+rbjEWHPOB3bYQxYhDCYTPHWvqH7QS8k0GZRYlITeoEoN2FQsWP4Z2noTLH5VYwxdFSz+OCFNxyA8tyqeLA3E89W/IfrSy3x7dvsns2gWSQ6Bbgkv5VdQo2ncqSgvldUFp/v3OPvYIgY5/UjTqCUVm5Qt2ngxTuZwM3fLvMfqZ9+Y++dplhmFv2atyUixs6HXvruzqggrmAF4hmjM6q9S98l4HufqyKYEyuosrqkaGRZQFJK2h/RwcvJfqdCzlew1b40qJ8W1KQA+UzxLKr2/LADxrNI8ovlU+MTJx6ieFR3rr0o8Hsz/6Cd8QVPDqlq2WTLCCcOmpLCzPsC3fdZluWYh6EtCQ/IfO8QoMsauzVk/AdXtphLRwtmATRyKh8LbtGmzasdk3/vjpSljhBlE2nHEG+/zC6dTt8F0KDWTCQP/9RqBg2f8G9EDSxE5zuGyWPxtPNtnPfAesGIZZV14IXSgiiAR4VP1UuJSsEIT/6cR7DAPXUDIX0JrB/Ax7ZD7p67TjUhWvKk6oHSedKL7OEXlSfng4DVvUrZKwdOQ5N2skTIJtGTOzm2ucfvNPWLwEW6sYZvcCi6DKX8w66Zr71wg7bz5a5am4So3zZCELec/utWD6BeiOs6kYI2ecLttRbBkfsHfgmvVLVET441ad6EkAznSIrFX3j0q2WSBL4zATmDC5RMppExFMCwa6F9/bYhjX2+A3rbMuyarbjaV3iyZyO89lIRIhPcjNH4ct8e+ch+zEWKXo5xe8K8kX9iQL1dpwNphhGtWu44lcpT+8vo4OiucIQTaisaQiHl+kV6W1B40sLvaSEdchS/Br6cJJZpBWy9DTIJpudlw1rGaikRSgmpGSkiY8OJnWWBTR+XWm+reGowjXoPilAaCoPkx89iPoP5ZIJJjKUZmSniWfl63njy6mjhgEE7vNvWq+70BZIpgsk03TKspuP2Y0NNfb4/ffYYqitaKeJJQHRFa2LiN96c4+9caaXc1AgGpZcYwyOUZZdW9ZfizGyaj/ZrSxd5yx+PrAXoquliRn7KJK3CN0DjxCwYCKADxZ83asDCzlLERSyR+OQ+hMoZZfy9lbUiu5jO/mtQ4etkWWJzhcVFhVhCwvVDqRFKbQnxKUlDAib+h0AwR3r6bVn9h+AinnHvnP8uL0CadNejGY52cnyfBjYsr7oyw2NVgGCEw9FlAwMckc0IEprgbIaaIUvs8U+um2LlbPkitSNiskrymTSOkEo/7L3qL14otn6OH4xzvmpDEzuJFFQf+OmjbZ82WIve6r4ZJWAEuyFYnoNU7tt6ieqI8ccdCbvT2mdShHlxPPyMPGzKtwlsrVUQghP6regnK31jK1CsdrDdfX2JfJ/cO1yW1uFKVyK6ikoupJX0Xkh88GH+0btx/tO2c9Ot1sjFjBc/w77i56nKBldcgGW6OmK+I3swF4RoMZAhkoOVIyew71GplrP18j4EuSSrMgiOpnCMBAmOHA4DE9g19FmG/7n78EEnrBPPXiPFSDgluekKa2uZGBCimFcTuNu4bzRuqW5+IU+2KsRqnsFeZeTsjek7VkZl3PTJrNUpDqTepYuISWfNfFFWsN70HZtGVTPXRs32CL4RtKfEra0VTQN5CbI71daeqyzeilrOQZh8RA8nX57t/GUPf3iC7Z0xXLORCEVzHJCxVdWeeS1jG3cBxdX2vHeZnsDBDkEP2pqkAgYOUJLny0UVUSis4QYg3eQjYKpojY/DtGORO5LDOK3Dxy2Z158zdY21Nuiqgpbt/YaW7ykIVq6kVIG55ZO7DtoJ5EJ2o/06zssSRolEAginJAVAKWp+lKeI+TnAmhxmwkUIWFvJ3zqPROKZLytw/Kxp72NHcG7tqwHyUDtsQyOkEJUpaIw90ItvdbVZydBZElWG5NFWJEq6sAG1Cl7GcVYd9x+E2I42lqPakBopYSsVzGRLMaO+UEkhZPatxOVpTaOpFWNAABAAElEQVQShRaPa4E25dSguuIwYuhP0I7YBvfzV8jHVDIJ3Ajl9siKdfbg6lqrk84ZkBp0DjG1GFY5FZ8MaHudzNjDUZlvvr7bftWfbYfQAGhYqnRjdLLCIXjEiHKqET/09ymgzn0XmvvcIS9KCNX3b4ZT5afId4pE2/gszaxu5cykjqBoWJBMHkbhxjqa7J2DJ+xP/+Lrdub4Ifvq459moNfQoKoO8TjUoSV3gcwKPSQH6mhTTYHVlufZtb0ltgkbUC+0d9lOqKBWkcvKzy1N+40eIqdH5e2v49bWkkBWCJhNs7hWVZAeqjSL4KVIOlQwhGhiv+w5fswOJjmTVFHNbMkMz2w/iSh+R1eTPcFW983bt9s2zvsodR8bXhXjHLGYsBuwhnh3fp+1QdUcgumYVIIaKBqreFG90JllJ7oYRCR+QIJ7abLrhfrobGOJ12MT6MbpYfdud3OX7W1sZwmFmo0X37JitsbFZ5AbJf0stNd1km6yuMqSlajTlr1ymYfNIL1J0vWzASqggARaL6judfE+PrxaAFU02IoQI8qsqoD5wRuvs80rliLECNXpgINwYyc1IG8dO85ZIHhCUlw+TKIl0IG91ACU2osvvmxf+tzjtnQZcGi00+spsQnlLSsptC31lfbGsRbr1k6RJgyZKnbYYjjjfCIkKMoYWB1JCl4tg1ncdpyxMqx+bkTy+OGtG+2eVctsHVr0CklHxCIxWBrpV7xApctSifUTKMp+eeSwfevtHfY6SvFP5i21JEbtfBkrIKFMnWJ2LKU64p23tHw5r8Do9gP8e4XzaFTPXvNTVRzqXe/VrmoI3aMSQnaQs5EcTsLUHed8zQQduAvNa3v3vm2DzELr1l5rJUjJKo7+3ImUV0KaRSGRS6AKGuDbrGaLvKoYUphTxE0Mwn4JY6kDek9WHJwetURRp9Rg1HayuBcDQhYsm7o7EEFvsVuWV9tDd9xstSg9yvQZPcpb/b2J9f7fP/eyHaxYZsNSHK71P7CLx5MJldIGVTPBoLzttltdgZRIc/E3EpD0ksIVD0CWGI+wBDrJQE5K1F9TqDvByb3qR8snUXSieiTX4SZOGIoiAcTfwPqjdqgmYeKOg5SSJZU2DCUkPkIPKjZ7mIX7Ya73QkGO1TVATVShixkqpnQxdQ8/JhPpX9WDEI3P5so6hkNIxpmowKPyU09jMKITTSethAOm9y6vsy9/5F6rR1+LzLV4PEcE2W6X602ovW/s3me7tSzTUgP+ki+7oIRKaLcx5I/KkbTeCtWoseu58uPZ89PEUvZlqKG+ceJqshBV4+2g9hJsikH9iLIQIvRlOLTmWK9lQsnUDXTYFmjPL23eYF/BnPA9ixfZKqhJLV8T4lQTX8WWeR/N7NpbEroc4PmZ48ftz1FD+nRbm3UsWmYT+SDDLOpbUKpNlLVTNHrWxbO/lC+nALrO4QDjcrorD9GE2gqdNP1Z79IvtYoaR9uxGkQMMul5mdTpOvqTBq3UY/aDIHYdPG7v7jnEDJRn9VW18G8Io/W3M/pg0ykesz0yt8wnEf9mOQqjr0P5+a0MxpsY4dUsp9r7OmyEmV28Bp8gtfbxAz7qqHRcHdxMwiRsOQIT+LDldZ2yj95+vT3MoToOF9P9FI44eIr2XHO/PdM2aAdFmWkpKPMs2v2CB5E9NG6FBDoDj6GqstJu3bjWBibZYQNKES5iJEu5tRXl2aFRJEzJe0RLFyZh78QaRF5fPAfng544wlhSUcGMj3o/qJ1IqM+tEFQuQpMUSGQRvqgsGOumdxVcdcvx67nqyJeBL0pJvDJRK5KNkYyKC+KRofIOOzWu+gEkoi1/ZE4MWZPMo+/ahuwR+w+f/JhtakBEn7ZyfUKUSW0wzvGSDtruPz/5ur1dVMPOEXkJlcBjssExm4A/1QsiHxzpxXhgwj750ftoTvLECddJZc8AV4Kt7vZTZ2DEIkMlBe/OeKVu1IBqDPFlQOZUK49QnUwUOafftpWTnFMqSNqnrllsX8aM8D0NtbaOLWsthYkROcn48K+URERqAhsbmbQD2P3+Bsz9P3/9HXsrAztVS9eByKm/Ccog4HyCIgLZO6LBi6gs6jLldE/Y83EU53I6IdjfLPeeCqUxnMWPL+RSrN5Ck2uXQJ1cCGiwEDL9jP3izd3WiSTm4eMn7OMfhzHbAJOVGpLyIRkJUffRFricshHtU0LHaoCRu4E3Wwbq7SaWVDuPt2LCdBCyGJs9mUXWTPxOzYQa4dKjIopGu07DA9gQq7brN6yPKBlRT6I26Kjqa23EefN0K/Hp/G5Hm5dCVrLYiMG5gsoRtMVNsLrB0ubPnrI7795uDdXFXlzlJkVWWZSxAsR3L0csXuvutV2owhjPJj1RRsJmUXG4VwwuIRpfXlFwMWpVP5K29p078tZOmag3xXMqiBtRKsKSWnY5MgQpagdLCN4RmUaL0o9dOiNar/RJ+WoZopPNMFGt+aQVJAfst++73bZfs9JP2qsVHAkgZDikOCT/xJ6TCLQVW5uoAMGUzQdRYGgptEKosKpqxBpa7M09eznvdtC2b7iWckX5KQkh4gb6x7aKMnubYwt7qBep1YzqgPJANSagqnJY4ubAM8qDJ7OSows3r6i1G5ZXIWKwDNthGMAjLV2ANOXiuqXW/D34xc4gpX4EA3Y/fW2vPYkA5vFyTOGCJC2T5f24FnMEEjUlF3tRG5GY6vIKdb85FM25GkBtpM7ssyiDgg7mJ4ZFuUhRtDAKs2MnErV7Dh+24x0dUPsFVoEVyWxUKWj5EZAMsVNOfUFJS0FRBYNtS0WpXc85q+0wdhcjaIXssQ0yk8PWhOIeQDyE2bqtyRIo5MpubrP7Vq+0Lz78IIbvESgDaWRwaV2uXZyjXYP2g72HbB+CZyPa6hSJo+WTxGzZPs3kGmdgDrKUOnXqGDIvxbb1uk1WzK6OZk7xmaIJPMNqmLXz2eXZ3dlrvSq7yHExD7w3q164hHhVGO/Q3Gh5ImSk8DobxdLIl6CyHJEP8tFyVO/lO8UFbDoVrsN/ogLCwAjpkZo7b4c4L1+iqMw8j4JkupEr6mizxLGDthmDdn/0+GO2ogRjunwWnnFeLYhtkKG7F6rlG2/ssnezCiNGt0a5kJ/SdB4Y6Q13wmtqt/4z7bayttZuvXErYEl+hTBkK+GGYqL0gdTfZVu8hbijGSA8lp/ZbPMXMSFUJftsU+ag3csK8LGVpfbZa5fYJ5DN2YKN8kXiVZGtslbVkaRqnirTE03F5VMbk8hJNAn8fM8R++s39tnz/UhhY0xurJKlpUtIi5IBsSkBd/GNt4Hagkvt4LnEQabdh3dn8VV/l9Gx6xTnHtXLZQTlEmStzi/hNRBHatbQFvUQDESWBkkYm/3orxlg2/nYL1+w1w4dtI/cfZvdffONdtOqFexOaOuZqFyhusJ9GW+SMCXz6VlV5bm2Gg15y2uKbSOyOzfRqd5s77P9PQPWiYBez2gr1mhbLHu0A/0o5QhvIUxGB89wkllbyyx+APV0T4e1wYzu0QgTw0a0vqt3YKbGPMpAJ8swZu6smjpLNg7Yd378c7v35u1Wc+21dHBJZQg1oocFiDUYPrKsxt7sGrDvsU3flwHi0oBUBw4DP70J4oESfY+HkQaxlm5a/siJAlMaXgl880rhJ0Wx+AsCBt9jRT8hfcXXUlBKx2TTqA/E0N5ktewC/duPf8JWVnK6nM8CEfQAAkbdKdRSB1k/sf+AvcG3DhR/+UhX48hpaYxVATdpgqCesR0/AY/q1V27rK2nm/ahtVQM8taltFdg33pl9jhL3y47xrK0mOXTEnYTV7J8XAJjfG1lra2vK+O+wKqoB+Ei7Wq71ADFEyGq5hEuEJyCWdXA4XQ71tZtu1pa7RmE8J4/020nS+uiZafMx8ignCYP1aGq1dsD3+tML+Nb+fGjbq80l2lf/F+/5gWgQq5YFzrt+xZABdSlAcEF1eDLApY+zvyU9nmR20yZk5qdIfs7WWrsPXjY3kGGpANR9SLiFUjPMJ0vvbrUv8WWyeFyUPSCECWIj9cxCNYiNn99WT47QNl2XWmWrSKbCvgli4nwrz5yn61G1oJ+HyEaZkhRIgNQQf8DKdpfsR3flQlSQE2Az3hapihzl5ylZ/oghdznXRcM1Bxkhm678QYIDcpAQKUr9dZiQOYxCjLYbm5q77VjTh1R9tCx0wtEnPc4kF+026KAFFBwKHU/jiBEpPtw8ejpKizXbGl7RfFZ1JmWZVIEhcyLZGYKWAo+vn2rPXbHLbYIpiqSB56cBu4oZQC92kssP/5672E7JkpPVJWWeGpT5aXK0FJVyGsYCgmrpeOIEUxiWPC69ets5Qq25IURuETdiH9UwPmwdpa7WratzZu031pSbb+NitT7EbDbzhJ6A9TVInhxecANpw/eNfH4V4ZiPylLEYkqlmpDChNP9w7Zy4dP2t+wO/etXQfsJZ67ahsi/hVWNn3CEz9I/VFwyIkp7jAJLhLz+osTVibpTs+Kdj5XerzLcK86uTKdZsI5ORpFPUGDxBsX8p9b9rrpFQxKMT7FTNS5IK3tZTsIvs3AQI+9faTZ2k422wG2Se9lANzKMYE1qyWRi+EzZvhozGipAqOYNCPI6IDASIrwScb9WFFdUbWts0rrRffN4Mq1HCOgUy9f5chAndUTigeLZt4TLCFaEjBbZc+I7e1IuI0yZJIqgn1+TomBMdHfh7VDntkFeu7Xr9hz22+2R2B8unJrkhVEUgs5ykjdzvb8ido623Oq21pDHapazuUUxju6BoWuOFJIQ/H1yt+rMLjQRPLDQPIPBIyjeyClIcQgBeuYNL5pUbl99t47rJ7tYY+mdgpRCHZiYNCeOHLEjudAmUojoJaACqNLeYnHBIIyJLstn/aEaW/Iy3RzAnzX/n12++3bCUIY8o0Y8Emn+LY11NmaavQAwWeqY9KpoW9o3AedNg4LDeVyMJpZROHRespSJRbORKjcjrZ22X76yyscfn0FJvN+BAg7imCeS6OATsrrjJkoU68DMJIvrpQKzqtO97oEo14G5xHCwxXlX7mIZq7V7A0WGooO4jsLdETNwpIKxR6z60VJ0AnKYHhWwpCUKgVE/TXLtbON+dbRE9bI6eEnQTjbMe9xy7Zttv6aa6wKhdISyAqDL+oisrSgOwng6Yo6rJRZjTPg6+uWWGEDs7U6kzqXgrIUkcAeYr6I2MB85HkVvbcZ5mcGGIwNbXbICCarlNLfCblvpVBivZzZGs63InZ/BiD9v/O9n9ralSvt2mtXevra5maTl9g5VgmyfWB5qf0SXTA/Q7bG60HQCXkEN3Pm9PeqO11y8b28EDaFSPQyKu3UIKFMIZxH59kHFD+SkhaDW9K0UDJVlPLxjz5iaxfXWoHqgk+eHMkKNyjajpON9jJLodEsmOKSm5H6Uj9hzkeiKJA6dhm7jCNQiBkgjlyWxrkc5pBoQz8SwxVaTpEee1Mkr/aZsNVl4sVhPVIGlthlytY2uZBJoJRUNMqupVESDDQJn0fgCU+y2rKDzb327rGT9jwU8A4EDZvRGdtXUGbjstdVAyWj/kSOTv4KUJU7UDBK2gtKfipDutOz553+8sq6n0I0atRL7hao9lKd/H0KoN6g1krNxBoMIBkXO6catI0tJmcmlEE+M2sByEbr5woI9bZ2G+tstlZm2Ha0siVa++2tJ39pT7z0pm3bsMFuuel61BFssKUMjkx2MJy0ZpZyizwMMEn65oDQou5MjlBOWXTghNPaMcwi5TXYgVMneZeUV9m/ueMO297M4cj+hJ1BSK8J3bInJ4fsJIJhp5MMNOnRLQHuargwQ9nI1WH6dyDHXnz7gP3Lj5+yP1r6VXAR7E7Gi9jDQnwqcUNhwv7NhnLre2WPvcN2dxfMVN8l0ghVPxBV50ujGDYNANWxIwvg9LrUs94TRlf0E0fwF/F92jePr3ZQPlySrHY9Mx1sxxywRMseu2/zersLRmsJyD9DA55gnjQgaafpbZi6rx9uNM4dIv0LVYCaByzt8cAApiq0tV3OtRz+SgP8uOLqJVZfW2nLYc5XYVJ2IxNDEUxtUTQK7vwUrxXqKC6mlHOhfpGqGAXfDPE1h2/0DQAZg2emZhN7ZpAURpDcffdMqz3LNvWbqHQ4jHK1nux8NjKRhpY9dex0IbwFkoEiFRXkyCSuZz2qTpxC5D69DkPd6rWcws4co04G+9dz/wjoy+imEI0KcqndQpX9vGFXQGWqAa0eLF9DTw5fn3LofpIOFUmuSzwArCJab42N9TSiPBwKBwGwEYTBOln6HHzuRXuaA4PrVy+1B+++1e5AkdGaJch8+NAmD0dsolu0lIq6WZYv3chL+QWQYl/6b/S6GMG50tIyW6lVE/R4L5RWOx2rkV2p4+w0nRrotqOcRG9HJWUyEyPxUD2nO9ttGL7QBKL2P3vqKVu/ss4e/dgDfqDQuf5CEKRRCHV0NwcUm1dWW9eRRuvKYLDqlLByVufVLC7R9+AEm3/D8/vwIa7D8DjNjwvnSIn0FF/rSqWvNFwXj3aFoBw7Wy23s9G21uRzaPIuqwSha5c6NSkQdZRt5yMsZZ997S1rOd1l1TmUOdFLMuh5yRi0pTCAVyNMuKKqzNaUVtlipJzrwZ/VyQ1WSfxCeGU51E0mvBzfjSN51XTEMNfBAEHIL4Nelmr0TVavZcFTE4SQklScjoAARmnTLgn5vbPHfr37XXu9pd1O9GObKq8UiWioF/UXaXjULl0kH0FsCqSJwR0AeT2q/+lFeNatIImd1wH3HibND9/PZ4INYZXHZXRTiOYyAjGvrL0DzydmWkMqumYOOW9gWlSzi8YYA9zvXVJW631eVtBxuulA3ZwB4vzRJAN+oL3VBrs77eTb++yZN3fakpp/tvtu3Y6toVvt2lXLbWntIpISA5FkaWs1d5wjd7HTS7LWpBP6lG/nAmouPTyXWa8AXlA1S6qVrOxuB0kkMBjSzbGFPpYC4+xs9bBbtncduyrY4u7t6LJ2mKqDglEJCtmlqAkmWBjJpezc3L+0xnYDf1dvvzVK7kW7H0Iwgid0eI8X6kwf5GIove7Ct+jLtF8hcw/KjzOvePbgFErStaMgOMnloJqzhGMZn7j3Prth6SrOIEUDW/xdH+GixKAIRYUUYfPqLhi093B2ahwp7wzOd61qWG+VMHPrKANDHKZ9BKc6ty4Ri6jzQQWQ4JBsES9jJ1mjqMFBJ17W6IPriSF8BhLP4yDeLg6F9vJ8ih2kV97eaz/f8aod6x+0Jip4ksOik1X1vhPoExNwOb/PxQdCTvJVGaEO095P68vx9/R3XocKP0vctGQ+yLcJe7YlKkZ6wS4VxHGHmFd284V3Zp4hHQ0sDQL5XiPxYJBci5h1bqeaGQkhO9fEjwSwm/2AunEBM6kE0L0UaKMaIYet6Y03bPaTw9dds8Y2IC+zAjmOcrZHc+m4uQGOuBPJm0iboXSrIJpz3QkMwSpsNYsbRu5jhIGdgwyL1JZLqC4BAiqV3hclHsoZxx3XCXCOGjwPUvrOjneskd2tJMuNJCixmZF4Bhg1LmXt0/lGAQ7i5zEgpcoiuIyArMMLfGXncXVD0CIQTR5pFlKtBfBTstgR0unzLs5SZSO5e//aWlRb3mFrKiq8GUB5lh2XWcmLCumnbrvZocqAkZpFObUcFM5QMPmKkwNTOTuW/vWXQlbkP8b7cdpWu28Rconql68p52kJAYKZtD0t+PvQ53OgqdvePHzMXtt/yHYjzHkCBNmvXUod2EXgzpC18h1LMXk55R/JEU3VTyoDv+F9aPvpH6KnEE1tJqfncD+zngXw+Toh+svoOGwRI5pUaS4hNO9X4ecCY8bAOVfw1Pez5RkQjDeqfui+nod8dWW9wte+ZVIkPwhHZL9MpEilAWoRDJF32egRonHNeYjR63s+29jL2S69/pq1dveNN9u2tRtt/bJ6V+0wIeVHMJJ9CS0YaAcNnyRLhXHyzfBpXQMp6m1+rMCB0TOXolAmyXGg6snJe1npFkFWCPwpkjWKzls6nJAEA0n2rQYJ0IHC7DOcfs5EN4xYo12sW3qhekbYKpeC8h7phIk7ufq9Zv4UAuQ5Gg1+M+0nPYxKVY2UrtQ7ZJF5DiM5R0JxIB3xRhqqK51BG9JygjKGOZ3SU5lF70QsWWXHE/BkqkxcLnMYVWMEC4hGoAv3gDKRCRxGvAbxBOCIazAFM8G8vIMcgXhr3zF7dX+j7WXX6CQqOFtZvnZCoQyCuIdY0k4KuRSCbCSFLBGJILSoZbEA9nbRzwK6mYhmTkmrdJfPXUU0oe5nIpp40DuFI+QkXo5GpuRWtHMAT8QVawnh6GwO+mmleNq3aLHZ4xr7WbqgaYv7dhDOGctCjUI1y5MvPfyo/cd/+/sMrFyk7hk47CBFiIauz/84SEbG3TNZQiAhA2XBlmpM7WjwqssAUbT1632Z2ZqXssgkvSYy06GlGuIgvgr0GVRIk3/F1KAXopE34cJ32rIFDimhYjaX6W5KF2UiHxeILc83enXOX4UNTtnpULXAFfJzioUn8Y5UHiEBoQ/BrowV18H1bxEoeieWuoTshFA8MbyoMPIJIYQjX22G06OQjOpH7xNQLNIbnCXeiQeLwumrgiRZwu179137s+8+YU81D9hAXpkNo8Z1FF7dJNvTOSCYMaSsJyVNrt1KIRlRTVqPhaMuynQ6dlTyF+6uYESjNr98Tp0/7hCXD4hZclbfC/0Pcl/bzS7+LyE3IRzNWuLdSP2jZDnyoGDyuVC96Esstk9djajONHFOBvVtXAwkjh20NbV65w/jIRMk4/cCg5tWwhxH8K68otIqUXlZAokuhdVhoGsJ4ZOlQARG8R80IoUv6P7+LfRHDRwviAalLn4mSUjxJ/08EyjHGZQgTob8hAaLI9RJKA6WIDwrjxBdWQU4uD27UwQFlot95SlkwyLUN18EW4qmIJMIViEd2UmIkGGIQ1BPRtSckKS+CyhHNvooZrYfylRd6hL9F/kKq0t5T1CmbuxC9ffAzMeO1YplDQiE035pLkJAUHWUvXnlcpssXxTtHPnOXAFb6rSl+oQy1yUkoy1qHRj1Lfa4Dr1EUanSkv/Q3jKhqFfgzqsHRUEX7lcdJs5/zonOM56iafTMdGG0p+pBnYQOpPDqpZ4dP+pYdORIbwsPYqL6OR/W5pzkdcEzafTTpYOTUgchmRf4C5McQSiBB3ENPJtsickr2WjMuEjFKMuyn7/4qv3LL56xknLsDtXV2cZVK7B2UOWSq1Ugn3LUNeTD+Czg6EQOWEYzhUqjIgVqRys8jYFUMVUUBYoLozy1vNIrFSuiKaIHEXI6IS3N/AKOXyZnveRGPySqKooGub+Muo4Skgu+PnF5XvJ5lOS0S0/jO1USBSEcL1Sl+MpKxzGEEFXNEYXjn0mDpQ+Fy5U0MoNdaSsbNYruk0QW9SIqsJ9zU4MsS9s6hqydeu9Hb/QhVIIeP37cOk+dtDKWpL//5S/a9evXQUGi5Iz0JGMjRFNXt8iu3bTJCvrQQ4xeHdNRAenokWCntqSUa5bqJL707BQMPv9eWP9RqfViptP7+bj5xlNeFxJ3PrBOj3OZEc10YOb2dAEVlx41jEbvtXzwfhE6Bz1do1bhhRA1YOXC5/BCaYhCEKUjfo7IaomISlRUUr3oq7HMVqLlW01VvjUsWcyRoYjromDqupLd6uH08I7GJnv+dJONHD3GhyyrgsFYjQoIzbuVIJpaEJBMoaxcXGfV6MMpRvanTH5xgZVyFksuwWiTdgIp3Es5nkUPcLRTIeLXKpACaQuXtyoHGMTF8ylbtJwRBRSpbIoiRdSHeCLRLk2UlsacJyJfjqRFHCUJJ/6R0tcOWjgm5S98V0ZfQCHOBwOJxUg9wU2Cw6GONMg/1xdZgl/oRohQyjCAkHbpRQ90N9LRrWi364GaPNPXY8cQrBxgm7/x9Ig1tvbZIPPA8YN74dH0WQLkvxpq8aPU9eZr11H5wOBNHQEvsYIGRBRKTnAmrYD20zJLhfFCqTBcKrYoG/n60TsVRc7fRbfv/SWQ+tK83Hzjkdm885wXoO+JpBp8z8tL9+Jy5j2jlLN1DgcvdCAeNMW+xyli+hV3Po0odT4hH3ZIsuDNSAnVymVLbQmIIkczKDHVx7W014TYxWnsVrZxx+qXREgKlQLtvVhzbEFqVmukRu3QjFkZZ27K0ClbyPKtAuSyuK7GalCXWVJaZKUcTahA8Xcx34s5mV7JzkhFWQmsBHZ9oKKyxXklUwkMankhtCHo3YmyEFUQys1LffeVgcriTrFgGQsxxO/CF08oriIt32RjalJw45STgodkHL8HJK+viqB8FUBpEA86w/rI6wzM9QGUuPew5OmB6T4O5THE0qeLYxp9GKFr7xhGhogjG60trF6HrR+k3wujeYKjGpkomOgbAiWhR8bKKiGpQKpicKMEvLGlDcORw5xf453qRIx3fKkFqURtROFpqFG1X2h3wZUqLPcpp5fpH8J98FMBP7Q31OKH3KVjevULPacGgOomrbOkhw3VlvY5CsoLDRhfXnFDHKkMEGIRU3fZ4iVWxm6FgmjnXGNbRJPEV9pZOvWilzixZi3xGBjYlQINQeqAaKSWgdPaY+gZbmN7tU1LM047Z2ErKBedNVI1Khokm4GUw85INgM2H6GyJRiBa6jBZArndkb6u60ag2VS+3nXzTcDrnM7vCRedO4AxYES1aC8hRwTzOYqupZLeiseyLgjJQUmTnod8Ox8klneRwxZ6oPElI8QbFS/Slj1xkVxdVD92z/+BSL9nDGjrGOcW2pHR3ILFh47uMZh2Iqy0TJqDASSnChCiC7HNf5ZPnJO0hCotMtKOcRdaGUk34lSMmyXwJRnGYT8izQqtqC2YUi7UFCgahsx4MUoToBwKmH6Fut4iheOBFRGlTlUwowyqyTT3TkDTA/+G/70IUc06u7qkbFPP/Jn93UfOosPP714r0tHPu9BUKwD6LgTHBYcZibORhanAlH4DEhxrRA0apXDBEusJFKrZ1BY3gYlMi55DJ3WlvZsdW7J5iifWng+yL34kkxrLXa8kiAcDbsBZnCXthXWUlgk1BLoaznQfcyyMZmSoTTYBctC7P+Gl3fACF1hK+pqKb0WVAJFv1F5JWvSNdJn//DNb1t7ez8DkcGrJZaOUUiSEKVh0S5YFN6RjspBvqIMtJzxFIExV6pDkemZoGxjDPC77rjNHrjjdg8bRDtE7aiYisZqx77z3Gv2f7Dr08EScJDl4zg8qQmwUpJAHE91qsR0Ol27PtnICWXCR5FCb60V9Y669BUhyHeIco2ALxCZ5hvvlUlRBYe60aF85ASnS9qtFuplTPWJcz4R+dQgnbwcu+Q7KT/SklE3UVdR+SljXFUe5+rPuWuAVvmwOwam1gop5oHqQwMoGkTTa+d9EM70gHRowjLzRqoph7FRP4wp3kpbuwZGsMh35cAAEE9CFM8gMDRB4vRpAOlczRj8FsL5GSwhQkUoInA+5L8GBVvgjlh0KFHnfKQ2woUK8TUQoAQkuTyGUqwxfMNyg1jHGfAvXty1z/7ir/5f++P/8p+Y/MlrhkOdFgRVFqedR+1vf/QjmCuI1sMMHYNqGAPgSewXhdWEooblkV6q1vQrob5shAIzoNKyKVcvy5q1SCLfhcT0KEufHHbyVCQ594kofS4vHG2yf3x1h7UvbrB26mFSqked4c4ol7AilGGkxY+6ERLjxLolOE+k3SDpFhKvTJer0NSZdZCcnkeoVyEgdp2knmEc/s/JxmYUhjXZ6uXL/IyaA6PJgrbLgaqp5RCkDnm2qz4FpbChkA1B/GcO3UExPsxuihkc1d7c60Jt4A0x96iXJYZ3FAGNi5gR7733DuW9afq3s0jlRoHCrzKgBzKLO6LREkdCfvAFyquKrJaljMzwhtR9+QA/oocl0TH4EL3M3iYt+KNQEdrlCNumzlgmXR30FJIR5aJ8hKn84lHb6XIqniRcZcRMW+3oYbEOhMywq50AYYyDQJ7+5a9sw8pl9sXPPw6ygWLwiJ4iQ5P0WUb84e/9e+tFCfn3OTzaA79jTEcUBLlzfkMMvdI7fF/+cJ6I5YbMzmZgnG2SU9ZDXEvXL7P/7T983u5DCXuS/BMgiIiWErjR7tZRKLD/9sLz9hz1MYaieJP+Xtkq0C4T1EmEaISduYR8RL3oXustfxfXvbcfleC7QtQD+MgNu5GvyTomqkknOMM0xglt8WNy4dGM6pv4SSoH8XJARIs4FFma28cZM/LRB333AHgkO805FZf+Ju5j6a/C/XvChg/n8t8nzfeNKrjn6eYN6/T8VIORU79RO111c6sBtf3MdvRzPbwUktEJZbZWE+iezcf8awZMTEcSdFr9yYkN0A1iOEbQnkmWAJPx4BIjUjszrkpA+dBIvjRSY2kgxR3Pv/NO9qMVRq/VQXTAR1vsUDQZLDEmUXydHMJgXX6S40WH7YdPPGsNy9fYvXfcynLO1aIzZ8ieVSb6kCUlbPboPQ/Y0Y4R20+ZjnLqfFKDTmn75KK8uFd+cmLCgKPEQ+lHoDEPnlAeVMQkJoU/9sCddhe2lRKkn4vAmyIp/UmQE1HsBIj0H97ab8+hdydZVcep0nLKonC6SFeUjFcXP2Ic+6AXLEqEcoqi086QIz2F4YPCK5wqWDwviQlqq1oyUCyHTne32J6jR2379htgCAuJTjnXtcwJ7kJtY6vOAwmn/AS4u1Dw8PxB9S8/nBLMjB03M7F0+PSb5M9Gfemdd9ypqphG7YTyx+v48Dg1k+tNXJHeuXkUgtAJ5VHW+EgH58OXWb9sta1E/YM03Sl04CsSCuZuwppHsDeVZGANswxwx+DxQcKDDxwSV7o+I8T5KZwQji6pr9QoCINMuUiSGYQzkdkNwmEwjaBSAgngDKwl7D7cbN/8yVMcNq6169etgRmKVDDLr0yWGlncZ2IT+6aaSvvqAx+zv+OUcjNpDWq7Ppzs1vLQLwHB4Jd6CRWGE9Vj413wPVDqja6YRx/cZF/59B0gnWh7OoN6SYJEh8RUpu4H2ON/4niX/WMTu26lKygHyNYRRiir0o/LG1NNeuNOgz4we/QihWioK9WJ92nVm5ZXBJbKBi2xOM09gN6JQ50t1oW9qtKCaoJHdScek4xA1BYmOZslKpG4OsMkClhYUXkGKlL3ctP6Twxr9GXhfkNe80rxIsF0nrBQ4wvgLm8ZFqAAJHE+ZaC/ntsRSINBSx0tmaSmEmomk1mxHFI8D5Jduy7jGhCxk3b8LgidfjcRS5OIMuDfMZHCpMPm0fQzFd97vvJ0R0RRNYqvV46YeC4utUS1trSzLAu+zkiiB+qm117Ytddqn/qF1VZXcfIcywoMKPE1hARlKCKLdG9eUY3u4oS1oCh9L1v1g9mS1yEDweWIkBuVRwh7iPKiM0fG8XJJ//r6avvyxx+wFZWcDWLUa9xnAJMoGYHcx7Wjo9d+eOiUtUpzoCgH+Rr0gl+X8lHg6Cb29YxTOfV9NifYBJfXJ0hLaj8kza1zSWz9j1LIZk7eD0DxiZEttDZJ3YkhLJ1C5QhaFkjYUswjz18BuADNA/M6lffZYCDIwjllokyvPDfFo0nr+HMqhsquGfRKdwtVhlAfYgQ7bwZkAyUwAaLJp4Pn5qKIir6i7uJjE3+UmbIbfsqAwoticH0ScaDQseYKX+iT7pMW+U6yta1l2FiCvZjxMwwutnh7O+xnv37Jli9dYp956EFOlyN7wtLEDynGY72S0XzvygqkbRvsm8fO2F6WKcNiWCcEK4jRCyLqCwSTgB80ws5Y1xlbh4DhV+6/wzYvWeEmekfIW+eZFF5yyVrMyLDddw4dsXc4L5YsrI0GtPhUUoilwZ3qWtyk7ufQ2UgiFQ8k78J3OlKC2g3xhjqwdqFDlJLNyYBhpuWsduA0A5djPiZPTGYhGjlvOIBwJB6/C4nPtX2iFOf2m0K2c4sG4P4/11gefoHKNUXRLFCC8yrMlRxpWufXYNClAvFD5/WdIHacShg8ixFtz0WRtn9mWtQcqhl+iCVZO5QPEiIMBHqxd2g+hEESRVCi5+fCGNCM7p0MjMHAiiaEQlYAqJccruCZZR3b3seQJ/nnJ57BDly1PXDLDZh+YWkFsnMWLbwRNplsMVvHD6yosRaY1q0IEGIfkzQZuFIM7ogGILF7ZElsNmC0bSWyL5/ZdpPddc01pIf+HCmoYmt43HkdrnvQTvUO28+gZJ4h/54CeDIOIzCr3rzM51lw5Z/upj3H39QuTi0JyYDIJJwHZTWENPYgfLME5Yy27KOEhEvyQaJl8HQy+6HEXISbtBzJkFaqndMz/qDex/BeRvBUbZFTm873Cml8WH3vdFSeSGpVopYQYiBq50e7T/A9CrH2WMU5pywYkUIx6VU9DIXQxdkcjPRG1AxjwEnzqdaZR81qgMWDTANPA0sDWcq6S1hCoOfYkOmRMboxlKzvOnTU/un7P7a3DxxFXSXwKaoOfEKFaLMpl2KsoAwfuWaR3VqTY6UgFAoWwaVljtRjwO+w04etBv0yn75ug30CG9TVsnKp+mHQ+u40ZRRVcwYlu0/uO2VPH22xTi2VRG14reAhc+NOlaQ6DZUVvT3Hb1zmEEqP4tUoEd0LOWrp5Fvj2DNH0roHBDlNFxDBVPU5tNUilJTnC2ELDiUQ0pN/1Z13DVxQVz7vXD5MAZ3cp1OHpZNkW0A46rQF2OyWad10p/47hpxJN5KvPiC9I/NSg2N60PRo738fj6tUIKWjfN1YHsgGYTT22VGYzcXRBYnmj0B1vPLW2/btH/zUTmHXqh0BwCHi+ClvxmYCRmoedk82luXZI6trbVtNnhVksqOF0nYDsVhHI7qUT1oNCr8eXb3SPr1tizVghUC8HplIGXXJZZjM8IcGkK95ESsB/3TosB3SLpascGqJIoQYyhzKEPxUYeZxE9JU4qJmXNAPXhltMqQjDOiETmpCcEpIgaOlXS5LqWoEKItkgTMckRD/S9dVN6camFo6zSna1cBnrQEnBfiqWVkXSwaZes3BDG0+WxliD8hp/PgP/ToJ47gf5VMYBY9e+kduw0ysTj4Xp/CpwRVH9PGjHw1sKIhsBP+09c2M7vI2MKz72lrsu089ZeUYtfvqlz6HVZBsG0T9QqkYyChvz0QdQzFT+/XV8GsSHHM40Gq/bEVP8TD8lK7jlj/WZQ+vXWW/i57i1RWcMo8LOYYskKg4bBGw25Rjp/pG7Htv77HdnNkak8zQGDBpWZNG1KSKqzRmliX1cQ43qkLhB5e/EUWTizWJHOtB73MbiHWUiaEQeRo5P/9FHWZT/yUF8JKCLFOoV1FoCwKUZ/eh+LlwZrCqySv+Q1Bf71tORoPzH+RzOUXDQJaGfsx8ZCGDkkmH1ZiJLFJGyIA9GkMbgY3oiLMT7LxXPkIyGhjq0++bL99n6/S+axPDIni0nItyB9fomUFVQV5u8UCfWC6BTPo6Wu0ff/BDLDrU279+6KNWwDa0TJKIIEogX5OHLMpyDUIM4pWvQNbm1CF79tgBhJV77Nr6Ovv8A3dhXRIFURrYOO1zyV61TnEnoCAO9U/aHz/7gj2B7p4k5mFsgkGf5FIGfhA1pha83CTAa68DJRbcOesjBMRXcoJFSMITwncmNlvoLNnQqmxNXZ2uWQ/zCCqkR5BgcSn1VJiFErIsloXugNPrUW0jAC+xm0u5p4FGYVSs+bh55zk9s6sUzfT6mN9TaMT39D29gCQHweQXcdhR8htyQe4jjqetXumHcaE0fVfjusyOAsQkkN7PyYWBFUcSKAE+CfYx6BHoAdkwErXbJauO4yBGqK/Wni7707/6OhYdl9vtG9aBAziQSXTN95kIxUlzXwNFyasusoG1K6z13desH6sDf/CR+23LksWSOsFpT0cOBMMgT4LQmsjq6y+9YT9qbTWrayAx4ECI0a1OSOhOTOAAdqhTT2O+PwDqyxwlGjtf2ipxSsOyLUnZpJkwRm9xoAC5oAcmKQebBAl5/fHjfkjwqn8+NXAV0ZxPLZ1vGPXP0Ald+IvuK6QBpVOE9cs8MSHD97Q0o1eKzIDwgRA+qvvPF9HEaSjxcPmreNApO+fbAFMJxx362YXiXJRxbCATBHCM4wq/90f/2f78//wTu3fzBkeEHlPxuIR0KgHtEzeut/KJT7Ern2kPLV1NcTmdLcE25anzFfyL/9OEMba/fvNd+6vmU2b1ixGYEzoi71C+AKP84JTXgrg0NCKqU7JFErCT5DX566sUZinrmVlq700n2D2QL2UXBKAPXSLedz50pV6oAguJOPUhPz1RHvw8ErMhu09SJFWAtGu2GJEznYJChktgLNXNPd04YNoYmRl1bs8aQunNTX4adKJsJJZfwjKmsh7mcD3ybTCLy6qtsbHV/uTP/sIONSNzAxwOVgyPUmOON1CUPXrTZvv4dRshwkAy0n1BsTVyFWeIq4kDnk8eP21/ue8QkRDcqwHRwLOSnXMvsw/gtPL7cFcOs1y+BNL7eTiVV5enKz+6l4xTVP/T01Qu2SyldJrdy6Sya8nk1/SwH+wn1e3ldarpyHkvAqD5+CGND5P/nnqi8OqIalPviBGS0X0OM2gxemZcH63qKH388DjO4BxjJ8YHgeKHtJXOBbkwmPB9kJGxeBB6rbSVvHZ9dNCwpIZlFAigZhkIZxEjDGTDgcqd+47Yf/3Tv+GkM8sdyjftFIbi++AjSe6jA6LcqHxQSyw4DAV39uMjTfaXb+yykQKopqqlkDggN/FlOOLgMPhZLQIros4rCZmc7fIwCpcWRlHfzwnO4Lz8qgDScKQDOBx4HRdWlPO6j271m822e65UtYY2EXVzJboU/FTGXO4XqKyaUq66C6kBNZqcOnBY/+udIxuNTK4QxsPxk97xFdX/NHBIw0X6NQgU+CI4UQ+6HCZlQr4SlMnXEQEtiBjosuwgKw+EGe/qsOde2WErEeb73c88CpO4LoKfqF5cYkS+CsXeEmlLzaZWJsi52euYsP320WN2BIQ2UQAyG4MJO8wHBXfqBF9YSjAtSKHT0+Fej3KefnTr+ai94ksnuFUGD5wKH8Ly1t/phyv2FgTUqSx+M++83qKiXUU0F6OJQwV7Dw09M+6jU4+pfqs+HmlySQNG4bzzp71biFsNuHQYhGiUj/bd84VoeEbpVYRoeARhjnDo8EdPPm1ZnF/68ucfsxUrFqdAE28j0uMb+TrNlAOlIDz7JlTQP731jr3N6fWxKpDMKFTMoBAqH/GcoiBbZ9gKhlR5BeAcXIQJ4ghKhPiO+HUb56Ukde/IhXvPL8o0AVb0z/FrvCnHh4itHYCL4kwFuHp31hpIa5eF2d4+a04fwA/qUd6t5gFbWsWlYqvjznQKF8Km384SVNGlAWFqYHAvGENYT8eBnpnLOZ6VQFq8AGfqFd+FdPxSWC7t6WayZEoixCeKRtQYa6XR9nE709JoTzz7pK1bt8IalkbG75Sk8ITAD4NxFKpGuzgtGKR7es9e29HdYUMlLM0KuSSzI9JBS5bgEzciJwSYli8pAPXlLI405EIdOwTRKy/HtG8h3FnSpRCJeAnlWYc0VTUC1dPSb5ynP0clPi9QFX7BHECdpRjvn4Vgn1fE9092Dl9BNHHotHqcQ/wrMOh8G+t9iup1l1aBATnI59KBvWGoAansnM1pRnU8IDJgNneW17MFTb3zpUIaTOFDSCt88nC81NiRE6NFu1Aa9Gx5J6BuihLDCAA3WnEllhY4mBktlaKhF0UjMSXBgJVYHuquMD2dZ2WoyMyRFU9kiNzAnsEAljpNLdEc0RDJ4dBPfI83bVDr8ZwuFOZsAUnU0/WftECgR6K69QdPIu27ouibXvmZsbRoDvTsbZkeasHvvV+dq6yz5RoXZrZPl+jd1aXTRaloNawS9h/EVMasD7vc4yAbVx8RZkd6sjqzrx4UVH1X/IpL5dKz8hEVZyz1nlhTsKIim0DyrjvZZ2s4UPk//84X7Jabt7L9DdzEFV50RBP3fVfhyR6NkqpEovah9eutF7OXT7S3waNBQC8Dqkbi/3Iy+Kb6UZmVmEZ84Nno+1ycD8C0CCQXYW5u/JtehPu0cNxqR1A2ncQni7BO/D3CoGnR4kJ6iS8DkpkO9pXxlNYuU4jmbLPplVGkDx6U4oZqTSQfKeEhRN0nQDiJMKjSIJY4i/NofKlCJw6DI33wp4W/4NuQviekQTjDOXMWOOgdCRBNbW2F/adPPWyPbtvuakg1Bn2oKapuQi/iWRtIWSCNQZTsLEUR1+9cv9EK9uy3fzh52ho5oDgpFRBSQKWIgsOVSZGiJJQdyYYBTZCL4bzsccLcS0ZGlFiEash7Wp2HulGJdQUX7rWPf9WdTw2ELnI+YX8zwqR3tLmWaGZcX++cJRGdRvaLKkbtQmdnl7X1g2w4Qa2jM+7o16JmpBlFshy+dyyEnz7WlOfMfOPo7+tpjKSno3t/DoOHZwkV+kyPJ1+IUQNtUPpk2izReNRqinLsf//sl+yejdcw1BQ3OnmutBwvqAeJOJEaBR1tEIWAV8LJ7yxeFWPm5ZPEzSzMsT872mpdslFeylLKjeyRv45eCMkI8aRTNULQ53IhSHr96F2qXXgQyP4cB55Rn7JSWVhQwBa2YPDInquijdIW3djW0glvrxvFTU3I3Kfn67Eu8s+F5HchcRegWKrdyF1mQAIYV6SvXqn603QenEufMnA1eKFoJjkNrf4+joRsJjNoOv8xi4N+Rdh6irQuqAOTjkTy3SnxBXbe1spDecWXBGSE7FC9mWg5armdjbZ9CculRz5m19dhIRN0GGkRJgrg+LDlZ4LyjKBLR3yOXDTYBajFV5aT7O9yjifcv2YpQosl9vW9B+3oYAcS/QgIat0o0f4JqBwhlotQ1AhQByX68bJPPRdT7zVVlRx61Y5b7GJQxqG2etFXk1S9BCJGNzxOt5oRIl71z1YDU4jmbCGuvj+/GnCSOx5dwiiOSeLeyf0gWvY7evuZ+BHgExmD83GGn0Unl0XJTJZXYaD6qFOaFzz4SEDpBMzmaYZE5XMJqXF62y0mDHRa/WCbfXx5jf3ev/osenPRPUOoCOSoPCqlYopHevRko/3kRz+1YiSfP/n5T1k2tsE1ZFMdi4gYTbG1qMhYvbrGSrMn7P/at88am5tstKQB5Ao/aAx0pOWU+DZejySwIA4oUyodBPFMN4lVzxK3HJrHki7i00xVuXhr7VimGOH8l2WAEEWqOeaaLa2ZaV99Tq+BVH9If3n1/jxqwPsaP6HP+ejTs15oQPJCUrc6wIhxs37MsjY3t0HcoM1NUrc4hVQDlIMEVuSBbNhSbtWQFhXkaUyhHV7MwwXg5GsQa2YmTcHqBzt5r4E9jpqHwU7LQK1nPXtGX9y6zr5wy43WAJIBereZ5pnHyckb5OcIdpH+6pvfs+/+4PssP7LsFGokvvzYY7YEu9a+FFQVQKmgkIFSJW2Uunl4aTVG5dbbdw822q6eEesi70HBw+HGqNpELujSS9UO732Jx7s4f15GzpdE4SH2FSZFtfhDlG56ZC1/0IuTQL6ntjLP6stL3ERwSEm5q+aHUOrejkqLQYV3KpOXfq/nOO0Q6VL5qbLNNUPBe/nclBzN5YPhysvZ+5g6G6CHhhfp75SDBgguIBmdG8oosEEUdevskEywlqJMyYPwo4Fcw5bvusJMq0OxVPs4GvikxiCQOx5yjj+Cy8FwAHlg6LjWfjFTdI+nHR4tCXQyGQomr/OkbSzJtsc3rrNHr9tsVfn5TsWIz6IrjH3dDpDMy0dO29d/9HN7Zue71l/fYJ2j3fZX3/+hYcnFvvjIb9mimipwmc55oQqUipJewSzyygfhfAILmRtKK+yJPSft56d77B30DA+j38YXWoJNlI2Xn4dwJEEAqK7TkUuoe6K4E3AphKIHhQdlKC3FjxGMn1ZHh04uZmDWIPFcWywFXQqr+JH5F7gylGnCmvrHrN/xPh+dUiVcCvEpj0vo1F7zcirYJYZ1BpxXKZoZFXLej95uodMplnqjnrnUIXU+xrW5QXLDuxhOdltj0xk07qOKIXZiq6oL5ECSNxTn2FIUTR1Cjy7adXk7305F1NTyQ0AKJnIJBxj1rO9jwDGCVr+Bdisd6LDbK0vsKxyOvH/FKisS3GQv2FBRE4ECSEmudmSBfnXitP39L56zV1pabaCWIwnDbIX3sA2ORYFvfO9HmL4dsc9/4TGrq6+hOpIuB5gDusF+JVfCLf1uYEcqf10DbzBt0tRuu4Cx33XjQME4Z0eUlzJXfQl+QYNTkYJLRzrhnb6rfI6E8D2a6lIIh+dRlRsdQageLYUxf+3ypdjZLmFVpDz4x1doHQY9xRmKbh0SlV5krXfHCOAVw7tUHfPqqjtnDVxFNOesovMNoE6onsqlpY90z0hmRNu58GBGOTTZ1NTkmvQUUv1feudktk0TbSEqJFazG/NqdytLCS0joo5/vrlPD6cccI70dA88jmxIUxlrGcVBwozW01aLJYSHl9XbF27YbFuhQpzDoumcKO4UHnC0OdQ8NG5PnT5t/99bO2w3pnVHpO5BRuo4D6UBPIGlyVOoJP3vzzxrHSCJxz75sK1etsTyoNhUUsznKSkHQTTdmuI8e2zdUqsqyLXiM/32AozXfgzIUWnkT91lQm0l4I8ohmsfBCiHn1de1/JxsyGc8F516VQN9SDTwaPsesnWFlchGg9XL12OGRxM0cSIxtPjZxCEerwXhfHS+8zOm7el7sXwF0VztjxDAlf9aTWQaZ/7w6/5G58Bpn27+jCzBnymTH9Jr1eH80vvNQo0qOnUWAtwkyHDSMYO9lgRFiszGYTXLFliazFFK3vb7Gfga/AhAIdEbhfMx72dHdaqfLTdOoqvJVhq1CuP83XE1ezr7cq9NP7JcqaEBjFsX9zZZttgzH7p+g32+LbrbBNIphAF5s47lQSzysSYl624fq7jWAr46c5D9g87d9lukOZoKWeXytE5LH2/0qkrRzYYLbEezPAePHzImlBwVV1XZ3WVVfBqspzvoRoSshFoopZKoBSWlBfaqspiK4FHNdjTad3sm48LGQpmDWrXG0M9OEObTFS06Ec3U87f8xjaw5sjDi+lWqLiOppAjJgG7m2yrQ219pl77rElnMNS0DG2sTM58yXU1oEO4SdRnP4m1Fm/2gIw/CdDyI+0vE0U6xK6QNXNOUvBeYlhnQGjenHsQiuF56v+e2pg1ioKDRh36PQw2uKOKZpxOklHR5ft3XvAfus+rDbK3jVrbtkE0GZGMYhmNQNuRUWBHegdAscweMWf8AGVnuh7oDr7Cw0ObVtLe552lmSpAPvcDdgx+vjKevvk9evtukUFVgUs6gjej8k2IZMvigpcPVyHUIb1rV+9ZU8fOmaHMaMyVs5ZqBwdU2BZmC3Y8DX2dEIbPcA6ZtDZ3W5Pv/yqtaIm89994Qt2/803YmpGOzuOv/hVfY3Dt5m0mtyE3ZZbYEsKF9u6qmL73sET9syZbsg8rDQIyYhqckZRFC2KS3wlJieSUA9CMCkX3/tpeCoC5q8jfqyG2lCnVYEwtm+81m2hhyhZUKGqMo6AWgt57u/ptTYtm4QaVY9yYqaLqhnn3XwlmaOUPlS/mfbZP/iaN9yHqtjzLaw6mzp12uWdW52cdxqp6t+B0aoBzlmhrIFey+xot3GMlWWhEHzb1i108Cr6Kp2frp3NMPeoOdnWQf99t7vb+gb5liXlULwIW9OEPm8X4mipgA3s3N5Wq+o8ZTfljNnv3LrJvnzHdbaxotCKmMGRrXM3wUw9CUN6EsoqA9meDgqzs63f/vLZF+2JUy12kmMJ4xWLGHdQMRPAhi1vy0Ttg9RMqB6ErTQuJUTD0i8JUHsYfAAAQABJREFU9dTUeNoOHTiAPvQsq1heZsUgMVmzEoNYdTbJMnOcKwt4y4BldUm+XddQbdWZnA1jJ+yU+EhSph52oBzS+GcaYuFdeI7L420hBIPOYpPNc6XVfMwSyAhdv7LOfu+RR20lSrgkyawoWj7JlxaLJ3bvs5+d7rWeIhCqlsCB4mdnLVo+iYoL60tuL4XzmWA+GXnp5hNxweKAaP6Xry1Yar/pCQmZzHTeuWnIFKLhXp1SYrMun4K51aEBRzD5zIrd7WfsmjWrbMM6JG0xqKauKgH4cfgHGqdJqAudeG4G2UD28EYzp77gwq6D8vSOL59LW9WOqQJ88hlYEzA9++Gf9LfYtRn99rktq+x/euhOu3fFUiuFghodHIV/Em88upivzl2DbFDaPcHAf45dsj/+3g/sKXTKDJTD2K2oi2dywSPkosFG/qKAxCwVX0lUnLT2iRIBgUyCWFtBNq/B1ympzLelqxdDvWGUjTJo2egWB7hPshxTqoXAVQXCWbmo2upKCqyYemmCstB2erQ1H1MUXnPk5aiBj1rzkX3EpFVgLi27pOkQGSbDbpZpGXv6BPqOk/aHDz9kD2y+ERhkWiVOhaSFnztYOn5n1357YRSIpH1QZfJBTnqiZpSRt4la7xK63whEEzD2Jay3C8pKg+1SuVTdqGPNuPRNHVp9238EV9zB9UokN7yBJMqkhoYHbZD7cTr9XbfcwsHDIsYHg8D7K1vBRC3HDMgq7FQPZQxZE4zh0ax421ezsjMhSdOLTiTGkNuVlpJvkfhdHB1QIigZz+trtYb+E7ZlvMM+vW6xfeWuG+329SvsmrxitpjBBdRfLksFJRVV5RgoZpjnHDtNun+386D9l58+afsQwbclazk2ACWjmKJeQAY+oF0mh+9QQb7+4yyTZaELmO38yLQvCEc7WIzTYQQCf/3S63YKlZ41VYustqIGxAKiBXlKTUMWy64MR5gR3ioGkgYOdW7A7tSqfMy09HWwrT4A/4Sz4eKZqMySUfLKAwYhdXdCBGoMtYng4h55GetstcSJw1bX22W//9DH7VO33ooVSmw7EVKX6mGA+u2mMn59stO+v/e4tZSgEVDHSLxtQ7oKSYxwonveg59k5uouKC/BffnclUvRXEpEE9pn1jy9F0Y9VeE8jDo5VwgftlQR1Z8EyYiqWVJTbRtWrYDwgYLgjJAsDWh+V9cvQ61CZRE2jyQwdobBPwxlQHoTPsCVri7ykvVJUVJaEvS3wy4ZsILeFqsY67VNeWP28KISlkjb7ZENG21dSblVQ2XkwX+QOu5slmRZDBZBP864GSf/QQb63vZO+9vXd9v//eoO68hnNm9YAQMJXkkCJCMTLcpYeYoCku+w6FmfhABAMvJVdiE9bh1WMXbBBYf2HbZ9Bw5DOWRiIrjeCkCQjq98EBFeDk98K6GRMqil5diI2sLOWENpoRWwrEtKgTqM2yxMDSdIN6mzG0IoykAIJuJog2BE1UHJIO2ci1mYRckh+90H77LP3XGzNZQVOsgByRARRJOww6yb/ubNd9huz7ThHC0LKYCSDs7bVHAqplwMc/RwcX/njWgE4yWEc5ZayLTP/MHXZnn/wX8VBvHlhjS0X/BDr0xHNDJnot0etpSxtmYDjadsAIsDN2y9ziormTWhioRotJCaoDNpG3gJnXxNQZlVjhda+Xgug2oIxDPMlyRDiQvhtwRStQVjfVYy1m3lyS7bmDts91Tl2qNrFtmj1yyz+9ausY2c4yllCSMUkU1nixYr8VgE0UyADCSZ2zQwghBei/23516z73CsoJ+dIjeZK0VYWUIywhgMLkcuQjCzVTyITwba8BwRyddBS0eQvNdWMwimBfmbN3e9DZUzZmWY5C0pLOasETtefiiT6iCKLlCGZyPYtdS7pqTQtmEL6kaOO6xjeVYNNVgEk3hQgoEgmSyovmz5IO8MbIpnsFQq726y2tFOu21Rmf3undvsUzffYMtKC8BLoqTEk1FmUUa9eE8farb/58RRGyoOVhpUbjnC6fJ+Rz04I1jvLqG7ghFNwn54JB1fX8JauwKzCkuoaUhOgy6tCtX3FC7wU8SM7GNJ09ZoduYUzEj84+8ilTpof/DFz9hXP/NpW8bWsqu/ZGRJSbZm+ywQAKjJTkKsnOpK2hG2vY929xgnhKyDvj/ADJ5L+EUgkXoGaQWz+IaaSltRXmqLMIQm20s6PiT2yTRwNaqAT5YXRMV0QCHsamqzXx86bb9697jtGRqxgXqQHzIuVsgpJySVsWlLHJCEM6bVblAO08ocBhzhtPzRLpCWK5JXQSLa+im/ZG1OU/4RKAwY48b2einyM7dt3mSP3nWH3XnTFqtjmVQg+SMAJgU2m0DAJCc+ipCOiBatkKhR6ySZ45yGP4EA5GFgbh8aQxhyCCVjHHVgK1vKt8ZZqq4tzkI+Kd+2Ll9u60tLUL2llEiEhCa0/NGSjXoY5fbXJ3vsz97aaz9TzecjhDhGHTiCJYpcekUKwEvtVLfzcmqf+cadV4bviZSwHxyOqiy9Et8T7OoLr4GAaEJ1eJ2p46b1OrWpnG+5yqdTg1Ssl8GFgJy1MNgaj4BwYEpWl9q/e+wx++qnfttqilEyJfkVkgJ38MMNaWhgTbJEGiCvbsj6bk6BD/JNAnS5wFMEf6MIgUAhlnwQVC7WHhmqUf4CTbOwljCClX8VAVUxKA6fsMbeXnuOpcwTuw/aO12D1l1YYaPllZAPLBmw0+QMT4kDC8H4bC6PRLy8JJJe7tCR9VrvlZGAh7Jw+RUY4tbcBMLpBNG0RsgXQ3WZSOkuwkb3A7dvt4/efbtt27TOqqEmZOZkBESjHbE8wS9Hco4nlAcgjXJBKyJRjI/U7hiU4xiIU2IDOmOVpO6LCvL+//beBEqv4zrMvL1vaDTQjX3fCBIEd4KiKInaF9v0JsvxJiexY5/kTDIzSU4yyWRmcpKZk2U8ztjyxIl17BkvsRzbkq3IlmRrtUWJkijuBAkuABfs+9KN7kbv3fN99/3vx49mY2uABECiut//3qtXdetW1a1bt27dqsqjbtuB1wReSjw5rOXZ42HGkUxGWD2+/fhg/JdHdsQfw7wOzaEE1Xm52DPFM26vcRWcXuP/Onpcw4zm9NApCeh1LKTLDXp6o7/c8C8EXrXRzRC4LE/vMg4lAKUb9DQ5E4L+oJ+GdvDQ4Zjf3hXrVqzkbG4GN9Iv0skIiotRppvV4TTQIDxwfi6SS09LI2ujmmIx10Ku+cwazYUzOVvTkkMIZ45U6pJWKXUAVOlgSikJ8Xs363e+/NJL8evf+k58cfsr8TwE3Id17ITDJczxi6ESGhLPxHb38WRW3Mp88JjMJO+Vn0qwgqFV8gzjS2WqjdYpahXJ2MuEW2K4vSdM0lM6+wf645WdO+KlvS+xiLEv5s+bF/Pnd8M4PVOJsyLZ6yaXCJhGMuHiLvtrhm+0wzw6YL7zKJ/5SEQ97HWzgKub8pwLk24j/8X5TEQgvSmHcFx1lNsp6uT5YwPxmUdfjG+fGIqXGCpOpQKYMLXDo6wY4ledyLzB7hoeOl27jOYNruMZk0vis3s9iyu/l40DaSQZTVqp0tND5CdO9MXul3bHPET11VjRttFAJmg0gzCJUeK31aMetmHQKNQn2LkrsagoFWwKLXnnqJPs32U06G9gUiYvc/HY1yFejsB7Ht6+M37/rx6K30Ph+djAcPTOmR/jrleahyTDBlBBeqn0dSmAYxSJOxlMJUHb10xMXn+d4fOZSJUGLUMppCLuMMdwq1CZj9KCDIh1YSNjg3Ho6MF4Hpubx7axUHNwMNpQRnezEtz8uuWmoO3UzZdXZh5JZkodGO8NzEZV9S6GoWrqkQqLaXSCE2nCi8Cs3Y4hrmdRfv/Rk8/FN48PxHbsloaZ2k+8ZTLirasmWLwWvyLwBrs3BaN5g8vsTZFcUrsEV3tNYzwOgWhPadkql9Clohh/lbFsHHX0yPE0aqtnGnfRCo4ywZZG5tKK/qCOu7NPjdiWSGdGhZNkIzJ5QatGdvHi6BRT5zw3MO3LoIPnZg6xr8PobZQTCV6Iz3zvSXruZ+LrRxkeNDGT5JS1h7o1MS3dYMOnSbvmwNaczISEbGvmwXvOMHHn9ayulKLKAA4hy/DOkjk1LTOTwWijwnR7PvNNRnBqaDT27T8YT25/MR7lOtp/MtpY7d41h+EUUptFWDfqGIoHXyhDJZM6yqdkMnX6ESTfnb4CgTEkyGEYvZuMsc9hHGd49aV9R+NXn9gZX9nfH/tZZX+qGXzEUUlM2Flf3AWRdV1mKkHWvFzko+Uxq0tEZusuJe5s0zwd77REc9rv+tOFlkCV+JISieW9bFUC4TkbaOUTon0xJW04PhifIc0kCs1jrPF59JlnYgcLLxsw1OtZwPogwrc5vLCBAdv2lXyGqJ5xPQkDsjd3iwMbmw14FOY0gb3LIOG39R9lfdJT8dtf+Ub8AUrO7x46GXvq2mN47uJinVIbzMbGlZa94JYK30oeUhwQfy/8fPfT+VyG4Sd7X+LIGWVaXubXWSkN+krbH6fQmXXCqKf4hh1RcA0Nj8SBI0fi8W1b43vPbI29O3dTmgwR27EDonzqKRM4BwonCqW9YDIpgbk+zLT5nPiCt4fajcNwxiiffnB4ub83/uyxx5nG3h5P9DfFKWx/xp3KFreSyRiZ/3Teq3Vd8ZvtDfTOIJGLglMidFGRCJwZuNhIlzX8aWXwZQX7FgF2TuKz18XZUG2kUhdSR5rDsyQhYCxBQwqGC3ECK2BmYeIU8gdd8arF8+Ndd90WH/u+D8ddazfEEqZ1bafZgSfQAmzOwuDvdr0jtLkJ2upxZl4efuqp+NYLz8d3DhyO54+cYOKE+J0wlw7WKGmE1ooEY4PWRsQ8SIfieTaXeah8NOw5gp4BojacHFJX+jkrp22Nwx5392OZRPShMB+gXJyl6uc+2EeZ9EYdCtoOuOzqZcti84b1ccv6DfGD7/9grF21goXVGPsBdoxCGOeM7wYKqREGLb+YQgLTFGAMvyGku+Ok95mHH4+HXng5Hjl4NI7OWRpTXcspD5hdSjIyazNYcTIrnV7T67rMRwa4iB/jzTZucs+LSKsaNCu4+nYlHq4zmstd6lWCLBkNlWw9J4Hhp7WqMzFDmMO7zID1T4FNTfT5DNM5SQObpOGxRqqnqzPuXbs2PvzOd8W6tWtiFQ1rPoexCU7nmpwTp9ic6WhvHBvoSwbz/M5XYhf7whxH75FDgQXoXzrmIbnIXLg8ZzuZTAkFQD6ei9GkMZwpXqQ7V4OS0TisclbOCwaZ5eDaLBlMMhzKZBCmA6PR/sgZKyWZVq4bFi2Nhay9+smPfjQWL+yJJWxgtaC7M1VADpkKNxX7Dx6IF3fvju/AXJ7YfzyeQBE+Ngdm6/niXTBeJRn3DlJCqsarRL/OaC6yws8evC7+dHtBDqXi6+xhr64vqax4g1GqlhFFVtuIphNoLVp+y9kLPe3W1bDCaFx64JRvHwwHxWewojqZDwyj6M1pZJ6Bjf8CFKfzYDBzuZyN8YiQCXDpZ73NYfjWARrhGFuBpiUstinhDn42pg4UvG1zYSzoQ2xMmuxXpRgbo5ng8jGlLu4zudkymlpYZdsv/RTRdDIbEUgzADKjnY0bU2GcGCNIfiwZiFOUEWumspxkOkpBDK0QY6KLfXzmMBTrbGvNDd7byH8TU/MMmICLboZbP9LOToZUfZ3Mqi1aSbkwZGynXNQTiZdSjPWUdVXBC+80T/ZumOl1XBPMIBfsCrQuOPiZAUvOd6bv+d8yk+cP9jqGuEyMZralfgk5Kwn1EkBcdNQzGA15LrNtPZauGqb0UIaHQHIWwwj03m6f6fogh1LZk9OITtmwaGTa3LB/TTYwNsbGAo1GJVPiuxsvqctIB0wtdl1dPI9Gw7R3dKLrYFtKD35zV7/Uv2RvDQ42ppLh5Z34MhdRyoZUZqYCvvZ2qYzmjPIpAVfSy1ulfMheMhzXdbmPsdtaDMNYLBOXcXAIH9NRPFcYjczZtVgOwYzj3SGQZZSMgYSRdFqYURthCUYOGefBbGQyznwZRgaXHQC36cwkFcn6z/DtHMVF6LM74802boHI2WGf8wtlPCtXW3kXC+B0Rh3eXqID2JVo9JeI9RsWvSSsnDIyVRqCjcEZHBW4bb7LFGgo9tpskBUstoxOGEgXjSyHF1R2GvMRPkV84qTCk+pTWumg0bDFBF06d/1UthInTfolMIkFRPJ0SB61iBWPZDg+n8fNtn5L0CW9le8mV332ARydCvfujFQumORunti7OK2MNQ1wzdWA0g7MAcO8QCeT5SNzT4kIhqxCt51ySH0G/o0tMdLG8Eg/GVAL5aUyulRSJx5VZIh3gW62ZVLSwwUmc2Yw8SwL88wv53+bZbzZlo8I1ZTRaUaj5yzKe9b5Pn/JnDvELMttVnmsYlJJtEx7pvKqLcdkLgZ2yMQ9w3PXq8p4qAKmZnPLBTfJmrBh0YiwsYkeLqUYoyvZGEcgpdTk3UbD8CH3TMn1BsDCO6+Z8ONT4iEOF1R54ns2QMKY5mqDmsb09zJ4EiEfq7ArZVQil3kjXzIObW5kDC2UQQdl4z6+yYAr98yLgHkwXtrvWAjAVytsGcm0hCU+iRNx85mfanxh4Er/4q34LfGt9bumnqdn8gKRN9q5htXnBHM6zdOMxtI+7X/O6FfFx6z42WACFUlIs3EXlOb0crRQIepUtpYJ46dUUYXHs5KKFqnamSjWl5WhJFM+JygaW5kBG1VOa9u48E7HQ/ls+Ko74wWQNYGmfapGqT6UYaseZ3+YHnQ67PK9vCckX8xnjSt1N84pJePgG8WT9kiWm1eWTU0cHx3+pM6lwmjEx7zW4uXz9GGSKJR+Rq11fktXfSg9rqH7bHEn3myj1pRODaOp8b3Yx2qDudiIb5XwVpYNqaT2c9RcSexlWKWUM5yt7SJcNaky7Urc8rX6/RwwL7R+hXkh8M5IqoxQ3ms/lkhW7t7y8ofw06n3bHhWotdCfs1ztdxf82Vmj7OlNXPoM31nyuqZIc7yNuuIZ4F3Ad4XWy61IGvKaHpV1Qa7sGfzfgXyf2HIzRDKzL+h+NYmVvsMbhfSAGbIwlXrZfZmladp5XK2DCZsfiT+HCIZkOeSoJ0yL5/L+9lgTfevDX+B6EwHcUHvryfsC0LgygRiN+a3aM7fkPK2bB3qXIizFXldLmfaF1C3lzPJy4X62eCYHfEtmUL1XolQvp8tfq1/bdhkXLUfrz9XS6C2nKqeF/9w6RLNxad5ZWNcpoK76Excigh60Ym9iSOU9VfezWrt82yyPpv41+vzokr6rcdoLqh46Dpn0rSXdigXBON6oOslcL0EyhKYrmks/d/a92tpOPHWrqm3WO4vYCh8lZbI5ZFoZiN6Xm0FogHd6+lmKqPqFLMJn0WKuhQRfaY0X888VrLxeidxVcCfbdnKK2bNL1JB9cZm/zLR33WJ5qzVNhM1lFQy07ezArr+4XoJvOVL4PJING+6YiwZihmrGUdN19ucIZG86Qrheoaul8BlK4HKMYWXDd4bB2h6o69N+ZwMACYyo0BS61nLaGoBT3s2WA0fmhluGaY24DQ4+cr3WhSqQc4XrxpwBgV2bdwZgddEfis+UiazLZZLGVJcS0U92yHitDxewxLNuSiktoFNy3FGmyHuGQXKdxnZDMGmQeO1EuhczM1v50DpNMyZAs3kdzrGmU+1CM8Ur/b7mTHfum+zLZOZyvetW4rnyzkSzeusBD0fBrP9Xq1nCEUmUUsvWo2+Ic5EKb+UrkgzcbjMaZ/BACuZKnvT13yrFEL5/Q0pgzdBImUncS4peXo2Z4xj+XtJnFUCnR7z/O9lm8x6vAQ4tSlpNX0F3TUq0ZSVWVNyZX2Ude0nD2TXXz8fSuLId/0qroxbfdeD64yKFpZMhHvGx+I3g1USTL/LzGRKfKbfX8Ngpge4/n7xJUBllvRh5Eq1ngEnGVFWdIU2+DojcyJMWUfaXhlFWrkgJ11V0iiX4JevFwzjghJ6QwPBaK4sp5t1bsuKFEBJAN7dwd9t1VwJ3cz+JPVsKyABjbFdgBebgRensskwKnm3Al3x60rocu9YVwy7rUDpcoMk4NkzyMCknpwSl5CMR/w8PYDny+Eyf6ZxHniGmy7B1JbN5cDlTQvDsqXerH9dtaylE96rdUAZp6uhl7LdVLwKWiBQwjI8l9/yO+noX3ZUk5V9dITvqn3prqTFsnMkeAEDANKvV8LOD9fcT01Luspxf42di0RS66g069eKde8RjkONiX72UeIEHxviuMTDlacuGhBnxWXlcdKAYazsZES+c8KAm1AlgzEc3y2t2l3X7HFkLm4ilffpOPHpurt2SkCySHpQqqBOdaV0Ub3rmdzDh8LV0maSFkAMkofvlYG4C6M8CcOz2N010Z0Q3aAsT6DgeznEEQ/DexeWaxIlryoz5PkactfQrBMFXeusAJ3eVoK9QwaBSEbYAnOoN3o66+LmeR2xvJXzkWAg4+wBMwVDmPKIE8JPcHf/XWvQuvTUxAlgnYJwDrB/zDGYzCg7uQ2zEdWYjKaeDZhyUxQZjEyLey5L4FvCSSiEuYyu7OnOAFmT+ex1K+9lWHvI6+7cJZD1VgaRsfCcnYp1qMMjeQ1EZd2f4QiTfvr7vUJ70oBw7XTcbyhB8a2UgK0ftyFlt8AG6q2xCXrkLK4YpweDsdXBmNw4cNL6a67ANW6uShc2HahJzsYlncwm4uWJc+1INGfLL/WRjdzew13o3Dv2yJ5o7m6Pf855zh9cxdGqlbhUaVH3Rqn41d7cGrdRWgDUIHX9KifJv3D4aDxx/HC8wgbXx/o4eMy9fZWM3H7T4VlBjQXAJAJweL1dSWwzZeI1jeL1RuYi4NvQxLnEP6PyciE418ZLhmo8AfBjIyrLQr+zwjNcbdgEQH0amXrjGOJid8NRdkNtjBUdrdGQEgYnhNL4DTUJjfWzKfoRO6w8dE9P81WBm51PwTiSwXiiBfsddyKJ9LCpWWd7I1s5N0XPnNZYxMmgns9l51ZHvEYY1St7jsdhdlXs5bSMk+wkOJKdKDsv5vamEOU16q5dRiOnTykCYrH3cB/ZQYZLnI0UQ8djGcT4wzCZRVQMO8YmkaBhqTKa6fUlyVGd0UrFK+3IbG7vbo7B7mVxIhbHy2wQ/u09/fHFFw/F7v1H46RnI7USSAKQ2Qjgcrqyx8xGVQN4uuhcm+7VLMmUTMaGoz6s6my+XudwZZAzouGZ+ycTLxsj74az3LI9cve9tm0mM8AT0smf1MEZDp2JG6HXex+I+qGB2LR+RfzzLTfGHPUpuFa2WZUuRhjuPH6sL37phQMxWjKaEm6GhA7Fxz6IM6lidCA2wrDeyybpH+rpiRuWLIj5Cxujje/Kx2ZJNL3oIuPwDctj14mT8diJE/FY76l4/PBAHKQTnXCTeSUu07oG3bXLaAqqKmrILR2HqaY+GE0fx3MceTl6OlYEZwIkk2lJwuKQWIhwxmqytnGFpMyRsoRqo5dqRk/TzLfuuiYOjZ8Tt2yYE1u6e+IL23bEX+46Goep92iCjXnS4zgULcO77K4W45Isy0T8Nv17+c177bfa59owMz3X5qOMV97L8LVhSr/z3EuGkPVRCSuYs0ogfDPZTLrMOy++G0dJIuPz7kMJJ8ObSPWjAQqnt43VTwmHHxmNEo1Hu0wMRgPM5u1dG+IdCzuShowobRilAYpavqQ7fuWF/RxBbJqZmEEKuMIe5niY/uHomhiOu9atip+9dUNs6ZobGxgOtQLFE29mcjKyBXOn4oa5c+PO1V3xEXrGL+/vi0+9sjde6j0JfzSiHdu1586S5WshI1ZwpZIlOM6Xjn4q2BMfd70cHSvbqFSJwzAQBERRe0aaNJJ04leC5LvP1a0zOYQWcdaOyY/zoENOSeK4pOZYdNcGOtPJ+PTO/XmOcw6jJumfUm9jhIqTMpM8TaCCa37KD6e/lfnIbxVv4xmsJOSM7g+eVVDVh0rMEq6vfKuVhko4JT6VGJnx8jkbai38ygeVndX4wk3EKvcyTCVtmUnpSnRKBlB9J0BNsDJ4ouZL+c177WUFiotSBpuO93A0ruc6NeXm7tZ0XfRCB4elA/Oex1Uq0lTEmlrcTEfgCZ/KFaZnanmW1LF90XrqpugihJ1V6RIkeWjxaNCMZ4YqzyUTnQLW0IloQ5r50S13xd+6e3PchI6wi2BNoFFvHqSFLEPu6Yp7fiMP0txiOq25PHSu6uLI3pH47WdejMMDNlc8y2hF5Gvi9xpSBpdUarlKbFYW96ROKnfKqWfPATqe5/+0DY2gm4H0IKAJCL2OIQesJkMnbQBumEsStLeyT6ujMbUQYhzl7yTwm9HBZAySMoz0MY8kb25riY9tXh0vIxY/iBidHCzH5uJYg2cSBBFspElgAvGqDYdH2ZCzMfMtP9fCqTxnnnkumVYZpLynf/WlSJfkMlHT0JlGhiPn4lI7FBOvvCoNMyPw4zA1ccsIha+PtS5xq/XgWTAlKNEqG5nPVVC8ZPl4r/iLqt/LS9hKrZ7w6XlPHCn8vk0b4oGblkdPW3O0VYaMRjuG/uS7+47FV189FEd4TvFBOLqEV/MiUzBNhySDHG0zAIPqPRJ1e/ZHY29/NviUcitRx0ukSUgpeVAJ1mGg+OXQHdz6jkX30KH4sftuiZ++e2Pc2dkYraDRVpaDJzhY/s4+ZVnzTPwJdD8T0LXnrOexvqDECeOxGL3Olvmd8ed0gIctg5JGzM/FuJJmLibOZQx77Ug0JX2UmafMq4SYD9RMPYSoFh/CaWEkldII0s64Gl5YRSMnO3IqM+Eivv3stjiAPqcDOXYuB823zuPweHrHea2t0c25Sk3ZexLNqDroyTbZBB5dpHcTx9V+cN3yeHngZOx1qrIO+SkZX0lRRbSiYVeeyzyU97LRM0Q7nRkSkgCVAvgvnA9Eyhs/VaLhWb8zHOESfplI5WOZjxK9kkknDhUgRkni907AZE7pyTsAxKmatmEqsL1VglX9avHy2UuFvfeM50ON87X0KsOUMG3ISqye3Im0UHdsf9y1cXn8+KJ2GH9DnvBrULPYR623D7fHEzsnUNji6zS19xmdMfgmw/GAOg/z65dZDEfr0FjyyNqamYQmZDx1mDi0WD7OLhnXI3HUDx7rjdb9e+M9N8yLv3PrjbEOhS9H1RW9lEnBmHLWkzLPDkwQZV3DLFU32ylO8h2Ww8xUfTK0eaTTPEahyGgu9TA/8bkC7tphNNMLJxsBNVWlTgNUCEdfaSzpy8NRfaDqvFFfzjD+9mf/LL723LZoQgyut0dBpqmHaLqZCbj3ltvjYw/8QNxz803RgQFfJiXxVy58oofnexcuii93HYy9+xjby8wq8Al52k1axEasOB9FW1xlZqngs3fjPYNVgEiAJbNLwMbhW2bCMLppcGUEpSsZhmGyUYBHEjUBTEvYefd7JZ638sqy5L0s4hJeJm3cSpwyvTJeLWpl3DKo3xxelq7ENyuKj2U40CuTz6AyilGYOUw9+o7G1P7d0di/KTrBv8MOhECClinAjlLJmqmU8PCb2SVCRCam5ep5WiNcY6PMQHPHGaKkoPSo+MkWEmGH7WPgdpIz1Bm2d6Hfeffmt8eaBT0xh/wZKvkcuFhkY0xpD+Pfe2oodu7aE3v27o1mFM0LFyziXPX5ccOqhTn5dQrJpx7Yk4y36ieaYs5EczQg0TnheS26a5fRWNpl7yo1JElU/PCfgghrvQ1RuiFo49BYfRwYbYjJ1rkxZW+E3Y1Gfq8e7I2tL+6ML33jW/GPf/EX4mce+HDM4yzrFDoEIPFyWXDr2ltjI7MJjxwcjFGnSP1W6woqxUfq4MrvJO5xuLakBpsGgSYgR3vHhJ1Y489LiuY81ra6pFz9cBm+ck+Pyo8NNxlBGcAwPNf6kXxmajrDEEQyuBIPAoqHoEpnXD1q/cpvxj3DVQIlsxOvMz5WXggzLjw/VgLYe5dhZcbjNOZTDG96GRofPpRMR1uUQmwtUDEliycntRxOvQaXSnJn3CppmieHWh6rC5MZ11QC59cJ0vfuFHfpGlP/w5tMaqLCaHoPxrqF3XHLqqXRwZBHHaHxREpw2uQdHR2NLz39bPzOn342nnn88RhniO/wrp5D8jqYVPixt707PvyB98WWd9wWHa31MUimBkl3CCUwbEdo16S7thlNUrqVT20kvWS1nq4IXgvi81c9TfHJdt2+Zh102AqNUARUfgw7LX4ypo4eYUayjyHRUPz6H/5x3HjTxnjvLTdhTwEEKbgCQ9aBPWDcMndeLMS6c59GOnqWzM/EDCt6NlQZiUjKsSZJT12D7x7ROgBxpyUq4bKBENae0q5QwvfZsBK3onPZgITPa17cqs5G7ThPJqIkoEiWR+Til/CBI9XblhySiKQKVV3iD1Bhp17EuKZbIZX8jp930y6nqqv5FghO3OWnpqeldubBdwCX08qexmkLNB1Pk8yjbnn2HHGZizjoUuIgrGdw91NPJ44zNLbAC/CioTN4eWV8j8xVuV/LTEsiyBjTfkpA3rmElcMZ7g3G04+bVdCgDdUIuPajoxuA8fUfiobje+Jt77wzNq9cjjRjXLLBNUi+WtDJjBLvGy++Ev/69/4o9hwn3qobYZ7QwTB5YfjdTw/4yc/8RXz2wYfj7Q+8Nz72sQfi9g3L4xBV2Nc3kgJo5kXErjF37TIaKi1d3vkpCT0bgBKN9jBUdulPYINKc2Pkur+9MybnLcOHeQXHUiP0lDCaaMS87/ABAhyLF17ZGV976Ntx14Y1Mb8NhpCGXc5uTEUTzANLmpiL3qHZ5Q0yE9vqdCJweOKlulmFtb3fFMQ11h8tMIGWU43RBEL1rR1R18FUOfGn6FkV3cdpgEy2xngbOMpw1COUDR6I6Uwvy6DynjfSk4mUDEQlKq2+DovUVqS2ptHJaJq7EN7WHHVzmC2TyZDW1KnBmMROZJwGNMpZ1SPoq6ZkMomUzaZSztWGy3sWskjzWVfOyOgvDjIJ9AvYvzETcyLbfT1DhXo8jDIJQ5mA4YyNNsbQZBMjKwLWccmMzZuXRpjDSDPj5B8GQyh6/zqkSnUd1oaBCucTduDwM/AW9SIR4PAlmUUFUZ/P4ww5Qd0ZtF7Gnc6Xwj+Z2Th4Wi8j/TEPHeGqriZmi4qBVSUCRQCG8KUjMMm/fu752NPVHbFgGfGIOww9WLfq+YZQBzcPxUGWvnzumWfiYXQ/b7/r/ujtXBAHm6DLqlhdQr527tTotegkAa4KUymYTPluwz5LnqARP8kTTnbMjcn5sgoZDRU+BCWgBI4mBV4oSebADMQre3bGAIQ0p62BWShJuyDstCIGWCvA6qvSCnFKSULit7HZp6mgtsFNwmAmTjHVOYIuqCHuWb4s7lqyJNa1zInOJmZPmK412hDGgf0n+2PfyHj8OdbJO44ORC+K0IFWcBRetdGYBleZ33LoYZuQeYgXMylt9UPYAk3E3HlNcd/iFbFp3vxY0zI/WpCQGmA2TTCTKSSOkZGh6CfNnScn48WjJ+ORI31xjCHNCaSScSUiDeTSgcPpRHnUPzkbzyAjQ5bhwDA7YeJdMOnN87vi/TeuZzlIfXRiU9LeRsMBxsDAYBwbHI5n0fN+8zB5ZsboGAxl3LRMM4dxMEaGmx00wDrqYpKrHoYznsZ0cpPTZCwm2kG1w5w6YdYTzbwh1TjrOE65jTo8SqZhoXGJr/VU0yHxIV1R17KxQtdi5YBRFv+A0piw1M+MUq+n+qMTy+LlXW3RJt4WkQ6EmpneJiTqn3GmqGGYPYuYvoTZqAeS0aATSkZzikgd0iLSzry6OEidfO75bRHzlwIEOp3eyWQC18bP6Rq6NvC9MCyp55IgfPBZcpG0lOap2hikV51qhwqmMIBqtFenKEYQzZmZChq6hBNt7XEC0fjk2ECsjPnEH0sYBcE5b+BwDBj2wJKSCaXFsuQO0ZigjQ7G4mxJF8Zgqzpb4/tWL4t3bVwfqxfNQZlJ58YlC9HZXCe6mGRf3BKwp3g/15MIWt/ZvjceZEbjRaSO0CIV5WAab2Uj5zElJ9MihxB0w2hfdEHISzF3v3096W1YEeu7WmMZksQSGJLNXIeck2jnbBxM1waBbIdOoCf2k+5jLx2J/7ZjbzxPYxrQMDGZMLfMnOlZwN5p8OqeYKRBL99AA1pOGb//plXxrptXxfqe5tgI2p0EtV1bVE7jNnSbZme8i/cPTiyMZ3cvja9ufSWeP9oXJ2hoQzCHlvFTcceqRfGe+zZHK/qZsX274v77tkQ7eg3nZ4pSK+rDmlhFnj96w9J4G0z0FPU6Bo5NlNMx7o8x7b0XJl7oxMDCqiqdDFyXjLzymOVT0I56PxfoTsHch5WyZDRKi85WIQnKuFuUAouo1d96hocjMPPmpqbo7IFpKJk1Mh/VQnpt1HgyLeAgaUYbsIbnaaLO9CaWPB1cSpXiWeJXhXztPFweO5rZFsAMvcgFF12FJmYOz0dwMoi/VnwRnKlDnm3Mk9lD8zZppSPF1FG5U0oUEKGMQ30IRNo1b27MbZZ4ZDLGtHcDGj2tE6AD+I6rh0gdS6UFmUo5dHDLChTNC04djh9csyg+dvumuG/NEpSF9LBA09l8C/yK5iuOXtKadjvr4UYfuGN5vHNZa/zy8y/EsyfAOadtCSSjkcmoA3FdDVKJStMe8vWxG1fGR267IdYt64kugrUDFa0UTG2i0r5YX0PKZUkBLWWDxfhYZmvpRO+4fUEsgzv80c5D8aVDKMwbGN7lTBoBRDolAtJOhmf6R6N+8ERs7JoXP48dyfvXroxlrO9pqRvH2poGj5RVkAupEk0YLl5ewWMPRX7L2rZ434LN8cUnX44/3vpcvIgOqZuZnB/bdHv81DtujY66W1PJqtyp5ELC5KoAZL1Qg3ErdifruZAdyGkpg2KHQrDfam2O33rkaaLJkkjwDAciiVxRJgpTDTCnXP1fJJVZNtkW6GcwJSpenK2CSUy0NMQA9TICmJKRG+2UOhqYRQt0tGrJymg7up9hIiHUTRE2JUVnLZu5ZDzqp8yTzKWeLshlLimF8a4TaK0TxvncpbS188E+2/cavmBpX5uuFHctQAu+LPxzFKj1puQgMdZDgjnr00Bzl+kwC4Xygot3L2eEGGvfsH59zKHnnEB56zCjGDix2puKZ1VMbEf0P2Ha5bAi8SGu06SDNLyTQ7Fw7BgNZUn87ffcEzd3Y9bOMMb14qzfhR8VYjm3zEI5+hFkjhqkOb610Brfv7Qnxps3xye2vRzPHIPZSKheZZoqSukt65iZWbd6Qfz822+ODd1zk5ZbSK8hWSPbZgC8DmZqE61DErFcamm1LEqn/ZuQOt69YVEMYWe06+lXkTSU+hJAcbdB5LQweUXvJKNZNbct/u7998RH1y6PxQBuSOU3Ug4pYY5mzioXN7Coz05BnYt6L6ywYXCNb1sXDz35cLx4YE+0oatYErez7ghmCTxGX4VLPMRW7L0X9ikl45a46zPPlDcNW164Htg5lG2EeyspKJUIJ+NzqzgheuVPPvBssIprlWb0sDFZeXQ2fadOxfGTJ7MDAdUiPvdWlOGi3NHcGPeuWRq3Hz4ZD2voicScrN1OQyWOkZKu8wG4FSipt+Jbpucdl7iUiBVeV/NvWWWXhmMSOjm/2PusUzWtmsgloeS9xn/ao9Ui8cloFLrr6GUZY3AhBTTQgBoZljRxNfKOYm/tDavi3rvujFakD6dSLaxCzSf5NsBg6tBnDEa/6drjqJewN7Knc5Fe//FoPLo37uvpjJ9/x91xUzfLInJqewSaIgxOOnVm1zd5SpIWYHKWq0JnJmzaPQT+UPe8+PjGtbEGHU8wpMhYDpfAKE4icaCTaTlxNG6Y3xHLYDL2rK0JtZDIYDOkxwwIJcEaZdKV5QGdvNQhcXg5+vPSqWztAr97etrio+uWRI+IKD2Z57zA2n17BhlwYUi3EF3Sz95zd3z/mmXJZFoIhqobJTC/NM5J9BhTNZdGI0qKXtaP4GVFjBxjzTxYxrGdMcWSgAYU500km1IQMIvCqiBJbL2mO+E1ErCZS0PL7GQaeUgLYxhjKZEYcSYA0wHWvE8lt66JhATcNzwUfSx/0FfMKMq8t8CsxaWN+z2LOuPntqyLD66ZG/MwL4wprnrqsYH6EzeZn4yFYVZeqZcxNq7shUwhnwvvq/a3SiN2qW8hJwGURLCosT0a0PaPa02skzKcDTp1DGOHvbFy4dz47x/4vtiy8cYc2uRwid7f9Xd19F6qJLazsvaVE0PZoRVMBuj2Qja8AYz4mL1az5j9J7Zsjpt7UIDStNlxhKQYbpGc5NdPb/3US7ti2/PPx/EDh+mxG2PDilXx7rfdhQFXZ876ip6zZ64sX0C3/IFF8+OFVYvjM8MHYlBFtjMfKiVduX78aDQcPhgd47cZLdNSUsB+NpmLzXlv38k4fOIgqgFmORDr65C+uls6GGItjU6WV1SldIhZqaodBrcKDvBu9vb5Dorkbxy0gfDBWRAZKjMuMXwiOvoPx08gtf3MprWxiGJoYNiYsFKxK1MrGMlJJCCni1tpnBJgwWQZVoHbEC90/FnmbSbee5RZ7wZmgQdytOh3t1VoRcLLmaVkhUhmZrbGyaysUuUoGal4yI5HSLO5tZOJIvE3wvSY+hXOL6JQumzbleBKYdW4SiFIRmMM83ZsfykOHTkWKyknF0k2opR3hj1hEWMezPYHls6PDXM3x0P7j8Sf79gVzzDcHaun/uqUcJRsjEAMJaV0wLe8kw3jV3pXvl4Lt8vDaLIQZpHdrKxZxLvEKFRjzO9j9729B+hmqEA9sFhtY/p5Q1dH3Pa+d8f9WAW/d8O6mM+YvsGhgbiyQrtuDDaBEu8AdPHQ/uHYNwjlSwNStcMYG/0gDe/Qvuhguvz+m2+P+1CItlHSaYsh0dOMlIycVfjdrzwYv/mp30cQ6Y8xbHcaTo1GJ4Y+92y6Jf7BL/yduO++TSlRycDquJTEVkO8713UE4/sPRrPDVWGMuMwtzEaPQxuSoZzEmN84CvzyBiHmIbfSiP45iOPxnefey72vLqd2XakHGw43O105YKlcf8dd8XP/viPxMa1K8BOV6jQXf8ls7qxoxmprCO+fWQwxpTcNKIzzRP7Iw7uRZ/VHD/+tttjfQv5G4WB2QBp4cobI0AcAcZxGuSffu7zsZf1RBMw+lGmdVesXBnveOe74qZ1q6O9HIKSejL33r4YaGmP7cdPxGGYYiezSOpNRkUQrq/WTTaq1JQt0LqotEXb4xAN16pxpNMPPq/sH4UnIOeluEEcpdqzOOPryrugS+dOAEkT6ue8qBN3aXz+xRfj4P79sbanm9EzjIZgxhO7xIN7D+G3dHbE2g2tceeyhfGne/fGH+94CZ4N3Ux1Q0fKXuJmLO+mxeO15mr4wuVhNNdMAag2ZGqZhv5P33tP/M13wDTGTkG0zG5AKC1UrLMyi9kspI2eT6J3u4isYxrq8Ik+9HJtMc4089b9A/GNHYfjqEZbyuVSk9KMjOYkwwh64uV0gT+GrmJhB8UsEBWQjMWVZPby+skHH4tP/OFn4hTK0pi7CKssGu2xfqZvp+IrTz0Vh3/1E/Ff1n8i1ix1bgoFLTAmmVdnviLexrBozbz2eO4IaaWxmz0iHIPecZwZkf17D8eRk6Mxl1muZ146EH/w2S/Gd599Pg4dP4Z9TENMqB9oRM/jtDu2Pbt3vhSPPvV07Kc3/t//yd+PlYuZC5NQGMM5nHKV2GLM5zfOwRyeqfgTSjIMFQJJIw7vjQakwPvvex+WsT3EG6fd0UAojyl0XUOUJfJIbD3cG//ylz8RW7duxV4RfGn4U+g1Gvi+9Ivfih/7kY/GL/zIe2NlZxv2Q9idDFCWHfOjjyHOn/3112OEocUylLwaVN6FEeX9GzdTR+rNcvBHDIuf6fmde+OxF56L/eir9rCasXH+QhjkDTHV1ROPPn+YNFElY6yZ5eVweRYuacJhjszAGUun62EgL2zfEV/Hqnzz6lUxj1kjGZwMxitJpOY+l/gynM0bN8R/t25NfGXXkfhXj+0ihHC5aXyUEY2Jy0SLx2vtl5y8dZxzKfYRp0aPxSbWldwIsbWxU549LhYaOey3L5FvTDKsaEBCcf1TEhN137K4m53PIp4+cCx+46+eiMfHOmJyDg3WMb9EoK7EaXGYTMNAb6zafEPctHpJ9mpAIW3+iH+SsDv6puL/e/K5OLXyBuiKr+6FAvOIjgXRx65+GInEt7Y+Ht/87kOx5kc+QmwcymldI1PmK7nfhD3KN1A0nnIKPfUmEia9Pel889nn4l/87meg07r41qNPkCb6jlZ6S5SR0QYC6qbGwZWGHgylJhp6mUpujr/87rfjo9s+EkvokZtUFOVskvAdZ9cFM8dM0+Lv/j/aj6D8jN7eVCc8cOedMR/mNIp/cwtLOygz7W9c20NK8Q9/5ZPxnMrkFTcRHyanoZrxGXK8sv9E/Iff/xNshk7Fz//8D0Ud46dvb9+Thm1T2M3sOHQidnziNwgLY0Ni+6f/5H+I9629MQ38CnW2JUMZY1X8/IF98W9+51OxzWlsFNOxYDFixMZo714dQ8vXU18yQfKkBDrLFjBqfKvDcVELhYIUR6ZjAAnzv37uz2LL7bfHR971dhb0MlQjmHSlk2+okVJaM2m7kB4YzjqvjSti8erl8fkXTsS3Xngh+gf74IeESGUxhVkdShFJJw7JfPKn8LtKfy/P9PZsM2dBzcYZbRZlazRMv1jE5vprp3Zt/gJyRqZQ8ypt6NtAA3FaU4ZTj7n5IfYXOcYY40/3vhR/8OAz8WI/ZILOIi191ZwqzWAnE8PoL2A0HSywu2/jh5nGLswjWqRt4LqAmaYVj768G5g8rLg1G3HMp9Gq6zhxCBj09treDDTF5770hfiZH/xwNDYDQOYHs1FEl2A3sgnXguY9sRuDt9zPuAFGslDCPxi99Oaff3YHDY1p+7U07CZwdZe2tBkq8uzub9GuMvIwQyAQBcGj6JVe2rWDpG5Pa9iGJHI+mDy3RqS91gZnvEBePPuID7O4Y2lXfP+mzRitAbthTubVmThQzsMnvvrUsXi1oSeYKwdznI1cgzVtUFxr5jur6P9s34H4wn/841jA1NOhhTBFcTZ/jYuoqvmkB65Du6N9DKtm/xh6NdrQeZacXOQ8hOQytvFuGBKMjLVoYWNtmhOnWhwywWDdoiEnAkBulkrVYROT8S8Gp1by0UhaMMTA4PGl3bvi3/3H/xRrly+O1WvXYehJOJV7SFvovpOemixXeQeXozggoMOL+GGG5ffd2h3PrrgzPk1n8aVX98RIM/hPKoFxuW+wQzWd1agr25FDrOmu/Fb6T38v/V/nu0z1LeRkIs6yuP7aeZ+c4OU5tQGSKmXhbBQyDnWmkCCzGRkZjqdfejk+ue2p+G/0rDF3XUHAmMxnZUusSjUqgR1KMHxpwe/m1asxi8DEHmnAHlqYkFterzq8WroAoyyYw0mor4FG4AyDCwext4AbZi/5DJahfehbuhd1YYnPHmv0kJKT7XkxiuZ2JRUVwS6dgB4TxhwIUZzakJA6YTSES6lMQpTAGarkNUajR/+RCNn7I91MooyWGVoSllWRminiuI2zjGFCvYyNyqsPfDGdv3P5SlYYF2HKsIY3S2bvr57aHmMyDjfd1lEmaQ07CCz1TK75YUgWSGkTLGI95NBOXGWMLYSZoNzb0PIQto6yamajeLFyz6B0FK6QbbBjrcRdsBwGRWl3Uca+W54OdbKNWrEEzKm1Cj4JhJ9pr6X39PuQDVZYNnrtXFjSEnNhpF3UBeC/9+qu+Ie//Kvxv/3j/zFuX8UwCl1fvVKPZWQB60TDqqq8mhPYVlh9S5nlW37v7ewxDPN94eXoV+nvUEq7munMogQgzKvUvcUYjYrJQhpwWrdsFxYCJIgPX6GfukpFjtEdu3tbH8OaxxjmPPQiyuPFawgMQTV0FUTpzIvDKxcvwmByzxQaYCsNZvXSJXR67NIHUGlSZ5o2hv1H9sX8do39hmAeYMCHOrdQ6OiIifndOQ08iXJwoq+XUYoL6mCHNpQKUapkXMqyiAVOG9ONT0qAnXyfS8Osl+Pg6njWGNF4rpkwc9m78q1iQl+PXxsNoIHlFxPkc1wdUkVET6vnBHT6pw7GmQsxXYzphURTx/3WG27KvGYaICma8hJYUbx8YixepVVNzlWyqGTAxiEnZ2YtpRoZjY2W/CdTYLuOYH+gZJIuC3GoxrB0igY7Bb5TMI5JYLhRVNYoaelsw01ILs0LYDAt1EkHy0pkRpaBrmQQ52mcZX0VkWb6tSbNCyG1mG6FHuaQphaWUNMUefmrx7bGgf/5X8UvfPyn4oF33Rer0F+1UNeWedUBwjchCdHY0uN8PN/OMLCbZRv1zAp+dve+GMierwxNoAxtTK+r273FGE1B2xLjMXQEJ2nALv3X1mMRYnsb4+3aamvSlgG3YOHC+ImP/Y04+sTz8bvPHogT4/i7ItnhUnZLAHBmSr3DINoehgI9jLUXdnamMlDdhuThjxCRYeJjN6yLOyH2QZYTNE8yDEBaqUeRXD+6IsZObWD7gIGYZAg2j4bsuiBprLGioxGUeLpCeCU6lBaUzEM2JNpmSgCtSDfipaJauVwFNUywDaXzInrIOTDPBeS3aQSl92hTLBpti/aVXTF2YmmMH18XNzP74yLCYgoXUBVnmg1wD6et80wijBVdJ9aCrmU9Eo0qnVRC8TkZOu/aQb5wpJdTJNjjhYaTIk7CA5qaUiUx1nrFHGU9nEzXK5WsANKQTcbXRZh+GM8AjZp6mUBCJFe5p7OzUMXcVtGJyJAbZFRaMFuHSkaWGP9V8YHHMxxJXYyrsC2iVBiNa5EQIGNURk+apss+088fOBL/7N//Sjz6wEfiQ++8N955562xZgm212bNBCtombwwwTg7JXV5Pq9D+f6377gx+qizr7x0FOERdmS5KdIaKYH4gKvcipcZfqdLQjMEeb28zMulu9lm4Dy9yqUjVgshayQrUd8//OJfxDMvM8XLiukWmMOmroXx7rvvirvvuA0aKfozs2XdaQ/Rw0zIT913B9tDdsYXdhyI3jz8C6I3D14qZHMVOOJ9/yDSRnt0MWRplEMIiOGKGDTTnuytfvqWm9lFvxi1mEY6gmqQVhAhUhDx1EQ0QVgpZAigGphHWlorXLPeoZANMxsuhKjhl2mqh2A4twiR++alC+OGxXPjZmZtepg1W9XdjV3OBMZ8xUbsreDZQhwV4e1IEs3EKeSSCm6Vm3NmNuwYInEVyby3oF9Z1rPQgiJdZppgfuaBrBTSG0sjxjTnTVN6yqx04qhLiaN4zF/9tSXJ7+RNDubwT+aeVcPqcqAjr+RIjC+E5QItb2CQEkU2dsumWutFGH4rsPPpzJ8KSmd6vvZNxlZUCgiloh2GOQ9mOIVE5iygzL4NA8p2Fu9i1/SZr387vvv0M3H/llvj++5/e9x56+ZYiK2NC3XdKqOR+nMPm9KVOniN1G9hu9KP37Qmntw3ELsdh5b1bYZ1ZTkWb2f+lm3sXGHOjHH53mrSPJ2zywf+jYV0QYRhhRSXbVGl5neefDa+9PBDTFUzcYuh3Oq6tnjka9+Kn/tbPxsf/PB7WByHrqJCS9I2/VTcAAP6uTtXMws9El/bfxwpgl5MsNm78KDsi2TiYXXNtneZhpGzwEWUMPzbW6mqaLZRSrAOmbjxny6ZSgakqUvHRuNKV9558eCF4VomZCClF/e+ZTgzd2Qq7kQa+9Ct6+MeFiUum9Mc8+FkWvFY8W69LnpejeDYAN6yw1zbg58oJFI1dx/TiE2mIhNFemtAtF8wBwBAyL8AACpMSURBVF0Qrw4SVVaXowPllCO0u3H5S54UYcOvuBpCLBIrP9TcDZOWz6QsosmF0a9Rdg5B7QQybiVB30ADPHzClYgUb6/9NdgZeBRBzOfZXWHLnOWTP2TQha5q/DEnSEbgPkPtDKeYOYpmVplhtb37xLH49Je/DsN5OO64eWO8664t8YH77o8VrOZ2gal4yzzNJhDzXdJQUL0NU4ZNK5fFfo77KfYuxrPMY2a1UklVQvH7DG6GvM4Q6rJ7XfuMxiKp0NSFlI7lbEW2ULl1qzfSCg7G1MKV0c9WDI8+uz3Gf+8P0R/Oj3uwzJWGVBvYczUTUcvcu+c3xY/esiReZablWfUcGYAwOYsCqcBo5GRNhM0mJW54qffw0Z5KRiJvEr43EfKbz+Vd7+r3DJQ+lUZEErwOkcAxdBTFmnISEagzQRD3MhrYxzfdGh/evDZWLZrLlqRTLEgcg2gLZqKOysv0MiGQ8q/ikb5ZUD4VgfIuk0kdlgVpntFNTWHnMpeGYDDXgCW6lhvOvGqd6ymgOYwjymlnyBK4j5VIpwOQGBGMa9DyOvMx/UsoiYPx06P01eNsriZM+ei9fD5LNEek6Zw2Ej93AXCYp8LXb85sMTzNGS/9sL9STzQ2iNEgRoh7Hnwovvf41vjuI0/GL/6Nn4x33XEHCy0nGGpqw10wGqfBFezcm2gu6dy/YXE8tI+1VKdkR7iybDJBES6Ryq9X1c/lYTTn46Kve5Yp5BTbudsAKpdFz8u01Fl1Db5j8xfFVM96xtWrYvLo8eibYBao7ng8sWNn/OkXvhZr1q+NhYvcGoL2RAN2yGM1diJB3LuwM25bOC+e3UccBh+5vsmpWhXC3Ou42jDlT6ndhmVPTklnMQmkbE/DPECDti8ZR6bFXUkqO+Lyjp/RVDUYRgWrKT+5dzhe7mXtktSYm0OdZGr9CEsBjsQDd2yKf/DOm3O2w89KZC00eA74pdcEV/Q6Rmlj6lQUJ9Gz5PAfRMdhoA0Y9dWuWi5pONlRNiwwERkYywSa6QEuRxASlHpn1wIZ3/e5pxjenbLXJxfO757hBJKAuPM9bVwqARwyqWx3HZAFktzZ4MBWV8RjvYWlZrzihHTBzmhGqNKMTE2PQtJMWPyU0lFuE0Gqfi0iAiCDW/5g4yykimELW3OEMR4c7nlanEppleEnlXJ6YTgnsSrvj89/4+F44tGn4n/6xV+Mv/1TfyNtbkTLOpmCkThMdULCGcDNXdjkjJ/EmBF45dgqAxK4bIOJf827UudV4C4Po7kKMpI1XtY/+OQjP9lgq4SBB6cRSqL9bfNishMCdlw8NYeKb4p+aHqM0wG/+cTTcd/WF+JD73t7rpqmWot2RjcmcS9lxmMdh4g1n+hne0YilcMIe3ha6xQ2E57Z7ckaGdPK9xnayxuU9Mnf+hTLktBxoMsZRkmqvmYKOO4M6GVAZ1/LHQJzhkXzezaRamRmZmzO3Ng2No9Nowp5Ju15MJSrO7g7lmOD8vH73hbLgetmFq5vcpAk7nUss1Qz08smXFu3vxCv7NvPRNlQjB7vj3a2klzOEOj2LXfFuk1rCI8kAg4lDZsb8Qe7yg9vNPIJeupDHFfSzsyVadgwJ+1tSVNNzzKGDs1wu1M55srYQsDxbAXZsnR+0nhRzqhL5oKn5VGG0R/Q8iDTcoV5wdj8UDjByAsv2GWEmtC+V50vBbDT3uA3PQGDVNBOduuMn+Njto4Idg9k8xx6KQZBWClrIBksfI2TRyl7DiLkrPhf/vXfwNRmPP7e3/yZLAb2WMzycIZKGdG8LuRnA2X4qMNjhvZZGZVyTnwuJs/V/L0xD9c+o5EIvc7rDGMjRvFG1XUxk1M/H2ZjL6v4P3AKtUYfs77t8eyePfHXrAm6c8stafJehW6l0oO3Y1R17+p5cdvhY/EYx+OmklOlHg0ud7ZjONOPvceojMeerdLj2glpUHYE0/1f++Jn48Wdh4kjQRI3idQfrtKKK4m5QsHeVIhik9E8rwfcF7E/0hIkdnpJt7rwKJI9O6KZLS/ftf6muHl5Dzqiwk5IEVx3CknlKDj+5aOPxG/+4afTgnZ4/75CEmOGqoUp5Im9e+I3PvHrsWojs0iIZNnGTRsQZdvytcLB8URfwpqnI0ePxo0LYTSEK4LDgHg262u652A0y4s7yZV2LwkjIdFguCuuqZCyCEqqtMA0ULMciV51cD51SRooNyrlECyHfZUAKXEkTVSQqUbkoZJk1ctwwDnD1aZ1xofipeCXADKc8EQktSslLN6lFb9r++IQaox8jKm3oQzakG60KO/lff9Y9DNtP4ol+Sd/7/fih37wgVjCboSTlKtr2+qxayodg69YqDlA7wngmz71bqWYfPYGInMOZ16zXM4R5nJ+KtUKwLyylsGzyVQWaFlg1uSFO3ULKSVAKQ2ItHVzqDobOdtCYk6KzpFKZN+S+on2+N7Wp+LVffuo9GJj8tzGIMUj5aGGWIHSbz3nCj15RHscGomFaiOB8LXt6GVv3kGmzyeYfZAHSZCSQdIefre9/73xwvM7i0bmLEURubgncQEziSiBFv7iykzFCCutc9vRNEKD2FxQCaHGEEJ177G4ZeWqpMFiqOHUL5syQZRDaBa/t3Nf/INf+20YKph0L+daQg9LXHrZOmxZtFjtRbk7gcg96sJIyrt29/+qeGM92OJg3A61jh9nMDe1JnNhTs2nQejHY3kHa8iwJj5KmpMOLRSTFOkNlKVCvpKp8Gqj9QxswzgGmeCb9ggllzMOl0nnxavO0AmOe4GWkhHXBTliZiMksMsicDPPueWn/HETr0ElL2kih3ZggDFjkR/8UtLAT4nXUlE5rK4m9zpiiO2QKmmPusMgdJRx7LO7drFO6q/jZz76I+TFeFLMaWdZzmHavm7iWDWvp79e3U82gWvLVblyhTjKIk9/K1Z/+jTuPjoroU2HzVVXSuM+F7RLhTpTgDIzhtoZQlEkKOxe2Lcrnn3lVbaJWA/VNWGGghGe4i/QJORljJs/ML8tHmcm6iVoJVtVUj5bLzAW34Mp/659u2P1po05qWSDlWzEA/kpNt5xZ8Q+ZiQW0NCVYPJLpUHZw5NGNr4cRvDdyDIkmYuGbG5k7rtGgk4z9yIdcbZQCzNOb9+wIa1LiZEZdj6DvpF06+O/sZBzsmcdDAbjMhuGm1Vhnh+Nx2JoCuksOAXC4R9PlmHqaYRTOvHIxuWd8uZZXdSz27bGR+69KwU4fBFSijK3F74J/n07W3lue/U4fHwuWSUPLj2QEyWLoHHXUwdp/UojdHEojDrmMMxQISXTESFd3ilL4VOY3q3nxIkKFeQkjG9C6cmNfpyvNxldEcGMwbxIM/15Nr6X5Unercbunp5KUmVkARROHxlNOnVO5eZpWldrQ2M6wrdgoJPCFojQpuEuekppOsvf2bqeBZgqYDcFvTQxNC4kMqJl+RRB/ZXM+rGk1hgw8+BdPPL9tXiejnnln9jiTbK41hw1VparlfcaVxGkyzA130uvsWwsRKau8ngPNpVmGTU1CcEPNsdI31A8+NC34oNb7owuNhBv7eB7HcQLtdShSPWw9s0oi29c0B2vbj+OBADk5GIEoQEOnWA68+D+GNm4jkmoCYwBVcUWix86SfTtN94Si5/aGYdYd5VDrlLTa8ZSkjEpnq0ehxS6yjAhmY1DMgnVrUhHGTZ5MXZvQDpZDLHavsyb+fVSUuHwxeitQxpaciOKSayb3fpzDGZ3EibVS3wUmnXstt/MEghLsBGdUGUOCQgVJyrJUCt3GsMYOp4X2R6huvNdGZa7aWurc//Na+LTBwcYPYEEQ89wI3YXQpVMZIJ8oJ9pOcUOfSu6o5Pp35e37Yo+DeFSKqhhNjXwLaLchIo0ClJgnxuGxe7dWyx2FYOKs+Ha8JVa1Hz7ideCUxFbBq7OB6lhAY1fZ1YJUIFdpKCP9k2FAy/3AMbAch4LdFd0tDLjPxgHYDSULtmDqTikztkpCk/lknobK9ahj8sjXINF/dStXhMbbrwx0+Qr1W1hn3baXx5zc3PzAJ5VFE4HuWqfzszJVYvmRSBm/UNQU1SSRGivoJcNJp+oHyWcYZhCEqgl4Dgai9k0h8eaN5f8E++JZ5+JHbt2M+yAKGXIMhJjMxPC5p6xgtmE23u6sDrnm5c9SzIDNnBiGPPUc8+hYPbsbyUKYDjIQpxvh0huZTHex++4N7rdOqIZiYLNmMJjVbAmzcsTGbRuZd0PawS4Q7DaaWALE+g8UnRwPxhnulxF7cVMhlTaSJpmSUZj5s37KIVRh/l/uwymo7u42ucDm8v7HPxoPiu6l8a6lSvQkTNARH8l/8tWJl1n2Vlu5EVljPllONDIjMrz23fEoV7Sx2UVcFfP4NWAZeFdKxfHnbdswpO4rtjOLSaQWrSmZugQw70cNTwQ771pRfwv79kS/9fmNXEPex0r/1luyQyK4ucdJ9MwoXR+QArL4QpZg9G2t1Nm6t9s0BouerkezTO2ZTQuxISR5tRbMmwYoOXHBvVdC+bFzZvWFUxG6UdmCByPxFXWs43nropZ78TjvKkG4t7HItv/8z13xr94753xYSRhV2S3WSYD1pFwSM/6TsvhimRqHVtZWBLf/a77Yg06uDJbsnlz5iUGLt06hC4xx+IiIYFfqEux70IDX6ZwWXbi6cr/N4MrayPzwgtEOEYjUPHqs2cw2TtoyzJBy3Gfu5MwhEmZgr2GpuraQbhn8BwUbZ0QR/+pOMDeLA997+F4Jw1kmQxIghckBGPjbQH2PSvnx9cXNUUvmzJNOI0pY2C7gGHG4Fu3PY/eju0ikHycoEyy4KcJwp0HhJ+4Yz3JTsYf7DzOzANUxExVNt5MxUxBXs4wwFDmsq5pQ/f8WMp6mflsejXA+dAPb98VB9lzJrekVGHKcgWnmg9xJtUSTljQitdtIpwatbmqFtiyenE8uPcg+hI87FnVT6FAdqvM9UuXxi++7x3x7vvuho9ZJoTxqnGyzEkbrWuWWHcUnezye2oO0tvheOg7D8dP/sCHsyHmQlIafk5zw2gWQ2r/6OaVGEZOxuFdx+PA4UMIFTYfyhOYK5YsjDvXLonvu3FZrKIcXeWwnq0mvtZHfaSkQXoGT5zYisKhCc/jNHZU1nwwl67Nr4+lLLW4Y15rPL8fC+4WykcGpATjui+kthZEu5s4N/2GZV0xgk3L4d0DcfTEAIu9j0fX8o744Q+9n/14uoqpc9MkviYOI9BOI3V+4tQYvIMSNdlTlF9/bzRyqN3SNSvi5s6muKtnXmxmU/snF8xhq4v98ULvUOwd6osjgwBz3ZbcOzcNk8kORsfIydhyz+b4XzEWnYtUJ3splq1YMpYP1cTv9/YeiaNKSOp2shzsSXjwudaVTKW8+632uTbs6/lck+abg9EUpV4UpoUOMWi64hDdXe2cIray7AGcLLTJs69cPucYV7PVMXoWe+pWROYOiLuDBXw03G8z+3Tgox+NeUgVLayFcrYDqMm0nEi5mX2A37GiPV7sQwE8DhHNUSJhCplzo17c9kI89NB342d+9AfgZwSWqRG9nnQ6SP22uWzGveWG6F54JJ7gZIOjB4/nGDwlKLMBjvPnIDExDrpt+YLY0t0di+d1cSZUS2w/Mhz7dx+Kg5kvCFfiZUZnFMngyVdfjJvXr6bRFRSofkbJDhYY33fTkjjBsoTfeWVHHKHxNQwd5biXodiy+cb40btvix9iXc18e1kp3Guak3GkisEzptQTkVdXSw9gJPilrz0YH373e2JOh/sA6mworDgn7XZK/V6Y5SYsq4+uWhx7Dy5AsCgSsH42LOlhV7rO6KKhDSNx9KNB72QNGOeUwCCQTlIhXEC1fg9xoug40pHbZ8hoZOQ6VPmxCmnlJ25gdo6xxsOsfB/GRHsla6V6FnbHM6+ejL1Imh/oWB4/fstymOzCOMEM4rFNS7Fz3BTzGSLfectm4GSpkQXrzel6O65il8CX3ZzMTkGJBpuY6Dse9UcORyNMsRHmOR/FdhdLsNffsCjezqr7Paxw38re0s/s59yqkyNh38BJcdHMOrNlG1bGHfffHO/ftD7esWolMqU7IzGrhqW6udXQcRSaeRUd4Rde2M3xY0je5DFdVaJJ6i78/C0buPhdJe4aZjQWblnAlWcIML3ogSZpzBbzJIq6qlKT7650dgSyFC70DNeEGxdZYUo3KgPt9dQLNNGIOjrjuedejCe3bYsNy5dQvRAzwSB91AmNuSvDEt7fsWJJfG7PEdY/0cu67YLjbmaODrHo8E/+/Atx5223xKYNNnz3vMkBXJIKzSdWMUT5OJt+/xAWxQNYfp7MnrIgENOZg9TQjpXpEs75hi+BQTEfsZtG1pAiPaFkMkBXJB9BEvvmI4/FT33wI9lGCtkLfQtxJdwbWaT39+/ewBYW8+IANjgtWJkuhgpuZtOtVexd044kqABQlCP3Gpd07WppRSMYTA71nF6fM5+tePrim48/HX/5ze/GD/3Ae8GNxoIyVFBa07gPHtqozMOKBa1xa/fKRAi0MqlWHpI9MbyxT9fUry6HrEpsllSNozye37E9jjE7toZhUgPhcsU5DcyV8l1cd7Pn89J7N8VPYmbguWyd1GsTW41+cXBX/M639sacoVWcrOA8AA0e0/4GrjR9AI9B9C2tlm12DDIaWX5Rd/uJ8/DhwwVbU9/Uy1DsWC87DJ6INta4NcIkXeTBl9RZ3TC/JTZw3T7WE8PrxuII5X2SeX+HlI0srZiLHddyhlwd5MGlIXlgDMOi5G+QplL5XmD9+Ut742X0hpzRWVQkftVKMvB0VzKb6f5X6P3aZjRSqc57+ewDFaXu3swlqVMRjt+p3vSppxHMoQbrYRYTuScJDKRRgqbCXPhnr6HeZE5PDDFt+7mvfDU+8qH30VCsUKUj5CJgOjTRVmTtgh46d2dTEKcbjMvFwV9jHH/y3Re2x2e+9vX4+yt/LuZK1MQp8CpQVspYDsorVe5ipo5NcSUVUgJ2Pb1+C41fKUhdgcfkjtDDi4lN2OZJRC6gosAcY+bpUbYneJxNk963+WbyRD6FQ1A3/bftrmB7y59YtohtBxjp8U0m1IBiNombF/m1um2vWkd0kC4UxnTdJI3PfJorw49JevHd6D/+86f+KFYiTd1509psbDZRd/Rl1oG7zU+sSQMm5L10PiWzYKMrywjVdAyrLGWgmwrvtEvg1SzDaJ7d9WocY+Zqw3zK3QVBDilouMpQ9TBhj8xdScexHh2aIKx6V5LvQGM9uns7KqF1lC10gqRE15K7Z4iT8BvduB5ISm+edmxNOYsm9ezj+qtjx7DkBmM2skIEhdH0Rf3xk1g/n8q0/WQ3J6oyWDfDWtnE/jkM6dYySznGkJXSS9WPtTdBRWNHDoMnhubVqX/hBpxhrqdYHvMXOw5Gn9pgsnna8bFCCaf9rs4nxg8UxDV5UeiJt9VPHkrnI7J913BDnorYMARTwKzdDkq6GIAAMX1BmYefhKVj57zc2lK9gxJJG8SZylEab8e8+Np3H49tr+xCzwFjSjUwd6jApOz0FkE4W1aspQeTwaDAlNnAaGIe23LSMH/rs5+L//fPPx9HWOjYB4VhgBtumavkIAbqVZVyzY6zRWlQ6jN+II8uyW29ZXDIVDSM8RGADLuxt5ErElirDQ6zqM7u2M1+wb/zXz8bB4/TCMDPIcokCyxlOE0kegrGIIHXMY3sOmh5XCOcSPsglSO79uyPT336MznNTbBsp7ZVrzF7Y21bPGyvlPzIpxtsTaDQfPTlV+Pf/8bvxnNsdyp6DlNlrU38yUCaaaJNMIRG9DaeBT4xehLm53CBIRO4HadAj3EdIb/bWBpSTA9TECpuVeCqB4Nhn2TvnE/9yadzKUa/5aSxUtrocKOOlT9YRVFYEJu/XNEuGOSlcSQPlOdzCQfPLZKwImy3FG0j0qhM14busGUEfAaBdwi/Lz93IA548oW0Y6Wx2bpr24aQVI6h0xtDopFxqYObKw5SDJXaWD8MM+PImOYxSoIytxy0F6JS6lBaj6I4lhEmDiqxwc3y24G5+u8/+lI8w1BZ2ksmZLrVYZFIlxF51Nmr6OwxyqvwuWK/FYyuWPqXmDA1/xpH4VJjA3TX7vzfyCyOO+GPYBI+jJh6Enp8iXp6CQXjeHbhvNji7aH5loZV6ijQseQ+KUgqIwyxvvxXDwFHRkNvROWxlUsuamQOIFjKg1nKgmjshLmowOheRGPgmQ2sproXxlFWOP+b//Sf41/9p0/GLpSG6o+cSJKoJuUF3IsJEplJ8a6fbasNvUtTGvChkMRvhFmeQRjb84z5j7p5Nz1l4soeyCGzQQobRon6+a98I37p138zDqhPYLgz1UxkGlsdDa2TqfxRyNjzrN1mchzmMUzDdmnOIYYa/8cv/4f44le/BkOcjEMoo1FZ5pXMhiGekzepQM9hE/l0u0xOMvA+hiL8K994MP7Zv/3VeGTbTo6OLZqBR7toYp/G9HJnyt7ZuybqpIE8ek6WB/L1EuIw4H/p84/HNw6g/9A40elhmQxbdeR6IZiN52n/5h//YWzbs4d6qMvhUS7dcAYnpR+kWKJZ1rl8ivsYvc2BI4einyniIaQh22OWu2RUXjymo7j0khWjYkcXNhnf3tsbn3vqpej38DmN71jikVtRkAdr7pGnn44vMnQcwMLaFfx1SonQXr0cHhi53pw8UxuVCwQIQVJ5WazuSX2MMjsG7o+hRP7E155kE/yDMa6tU1p+EugadA3x0b/7r689vKkNOTVSSVaRsxdICzk9ifKvtakzdry8M17cyX66WLw+BTE+dfBIPEaj+w5HmnyWY0q2Md4dy17BliCzkRiAaSNwRsPWpMigrQdTnof27mfo0xW79/fGrkOY3MNhDkLBj/ZOxoMnJuObGN/t6TsVE07XOiugfYtDhWReNAwa8DMPPxJPPf4srZYTFurnxVymrCc8Xwg9kjRUlwsOIU4YnxIMWCUTGJUR0GvuQyfxZZY8/Cb2N7//4v7Yayt2209XCkutTt3moWgou1H4bn1ma2zHunnxqhXwInbuowdVDeVWpU0MH1sR0ycZG/RhAXwU8f7L33s6/uX//Svxlw/+dSxjivtjH/ogjdXTNNELUVZjiPTPIMY/tOsER5dQTtqqWIaWnb0zTEuxcYpEdr36ajz56OMxyQzNMoZ0Hgdrs7OJqUvKuSKkvSmYaD9xTjBrd5B6/AYzcL/21a3xlT1szN0EE3PKP0W+SnmSr1TaM1szwXqhJ5/dGlve8e7oxn7FnQrrKbsp6nMCLjJBXSolip7DskHGjV99dFt85VsPRTuzQltuvY1tn9uKZQyWH6hZ/d4tfRl7HR2H0us39x+MX0KyfWmUPHuCggf41UEfmDFoQzOJIvjo0YPxGBblvdBYJ/sWd7G2qZ+ybcTIUjYDGlzQAtJgPcM99VgOerXhU5J1wuDg1HDs5njdv3z5UPzKlx5hs6uDMaZRp+YXWdYEFlDpUqrHY6Z7GeYquNfF7z1Wi/ZVgNIFoiD1UFHJcBwTeUrj0QOs99nJnWdPI2AVc9qduNTAA9O9mBqOxUuRNpbDBOglENtTHE3GBTyZlvvYInnEoYNc+4F9IhtxHYq/jjmdMYd9fruWLIs6pJg+dATHOGd61MG8+/O6f++wthPE56RKrXVzeYB3t3AYQITGruLWZavjXbdvidtu3xDLb1wY3Shj21j3pLk/fXFO/TpF/ML2Q3GAA+93cE7UdhjJC2xFcKgZyaWePKlH0t5G8YczpGLP7mJzc6eEM31kA3BYznTrO++5M+6+fTNnad8SPUgJnaTlMGgPsyBbGRZ++8mtHFHCmUT0+PUYnHUiRXz/Ax+KRSuWcXoAa8JQWo8gPW0dbkIZOhKDrlZGesmGxqkEgaFdsPwh2HMlONIljpF3dBmdMJObVqyID7z7HXHzrZuih9mlngUMKmQESBinqLs9J07GY6/u5ZyqQ7G1bySGZTDdy2h9SJbuI8xxMDHeB8MnnePU8f5XUZa8Qp2QT+po3V33xt/76Z/mXCqMIJlub2YI55442lLlbJF6Lex29mJq8I/+3f8TLz7/bMxjRuCHv/+B+MkPvj/WsXdzK0zTo2ubyfckDXqQIVEvzP0V9C6PsTTgT156Nbb3Q2dtNHo2X2fZO+lDZ3v3ggPXEehEfI4fos7740bsYd53/zvjfe9+Z2xctwJG24R9jzOX2B3ByTxryz11ZD9j7M44SAd1iJmsr+7fGX/x9PZ4kin3nAH15ArpXPMKJy6Ike82E7wrPz6c6WQ8V5G7sozGxj1rR4FnSQMD5V9KH1pNHoG5nODKQ9+sFBOgglym7360nlfE6ubCVJyGkgpHgiTTIrA2IrnpNoyK2YRcacthc27RibKkSJI2lmMfGnBgGZwMTEM79yNxGKZCSMlGOG42nsxGxkNDYVYo3E8ECSLP555CgdhZz6x4G6etwGyYRVE5OIBoT8eILRgnCjR1s1qb07PZHQ8DGZgnDVBpwgWKlWFVanmR5oo0uPdB8L00gFM8wzjyglkEacxlNq2zaylDo/o4SaOaxLZDwnd4k7sEOpPCMMdiy70ymRbmWALKjftchkkOC+mZszBkctr6DMnYaWi9MIKBSj49pwqmWo9Cqn6UbUrpHNrp5TuRJhpoqH1IjkoZo4pZbiLOLofJrFmZHl7qjMAr69DenDO4koEe30eD5mJLjOCccevIjbvWblgf93Ec7xIkqHqkCK2cEV3iODqtHXtfie1IWXuRbovN0MGXXQLnM0S+ce0azipfEctXLsdmsx3TmKHYdexUvDzSHC87RFWKcg9iFjsWwxfohu1Pc+8hmc0x8txnvmGwbjpvx+QSCzsdmMctt90aK5YtiRvWrWXt3AIk47mMcufECcpsACZ6gM7gmX07OY8bWOPQaDvlwExeSnOl3Y3SYsFZuFXaTd74kXZfL3cpDKvEMzG/khJNDSIXX04QXi2jsXHbOPppJPbuSibpqATlYXtf1wmpHEGZmH62JBtKGa5ct+LQySM+bOluWall50ngaipufXs5PocoGf8AE3/HSFnhMCskETueFHWFhUFcSjUObWRYueUn/g73NNyqI62cVZIrgo8MQXyVuOolOC6lMqa4oxtmo/Im56sJa5QkBh5ozHmciBIZ+w2zmxcMhjSdMpfxGtiykDk55vcoFntKN2WyGLQNEUY/OFp+5lNNsTM7nOCZDM6wrktSAaKz/KxH46ZkQ2NhmJhlNwgslNZZhubVMBaMQ1WjI33QzRflp15LfFIPATyXKIiTZarxoMhYVkqLgzToQRs0+VNyYsfD3MNYozzLwvJ1Ct5hpadMLFzMnXzaIcmM3QjduhgGJ5mr66K0Ts6hIHGT8RFnyZoivnhqaZzHjQJf694RYE9AR3mMMozl5CFwEDb4yWgtc+EyJAxOIS2m/IzLHs+s5m7GsHMIhfS4w8Jca0caTkAs2UTdwNCU5GQufM6CyLZigeBkvlWnX8W/6ncZHy4To7EGr5wzE7NiNln6r8VbIrXxc3RrNvQMUUnDyrGRZQ9JxaQEQ4CyN8j64ifDAUeis0F6ZK7niLg8n2FAOm829CRm0nIGIlHyB39hSQuZHgTvlp8yDk5dTEtSiVumiM4lez23vTJdlZ4SV148KyFp1yPRqeRU96NuwMbtxdDnjHyapsphw7k5tjNfNiobkY3M7/nDgz2lDNJ8enaS8JRMbKRt4CPjNjygspG5oFQ8stETlv90JSH6DePCtOJtFwawOoFjQzOfNjxhJ478mEeZtQxFxeocGJkdQMloTD/LkoSMo0I164bwQaMkaDJeZ77IXkqIzgDJ5M27+GTHAj1wIkU+m34rDE1pg02nkqmKv/C9Ww4yQ+PKoKxz603LZPVgBMkyl2adxVL61c2hDBtgkp6uN0yZIjVmXh3Sy7CtA8s384PRn0UiMDsUN12XiVkG7NuTNFLMCVZoygTKwvYZV5Z5Ip4e6X3On1m1s3NCvKiPV3bodFGoTgvsEMUKkFFkwUsFOv1x+eoP7+Wnaq8AZZXPlfrPupSYXfRmBBtx2ZC9M0WcZuzCTsL3TmSJpcq8jCpAwleJgVf1STrh2PAkvmQ23GUAqAoLWiKu0YXpJaMTT/0yLR5kbqVfiZ/gbZimWfutHAqp1DbNhGt8MiDDEGaWg+UhjErDsLFabpaH/uoGnPqX2clsc80O7yWzJgiB8z8bepk32myWWb6bb/PJRdBMW8lMpiBeTv+Ij0xbnMyLePhs+XqJkwfAOSRxEaYSgxKn88IoUJN5EyqHlMJJuOCsFCvzyLIGngzHuA7HSuLILPNelqHDUiXIhCF+pCGOPBb48ZCTEeSH6fqcPHDLQpm1zCrrGKDCU5qzILNcfSSu+Jklmat1Kn4yOjfMSmlRhCou64hn7/yfdme8nPae6amEMdO3c/mJ/2xdTZrUwpV0VsQs0p+xfEtPa6/W1bybVlZWGdZwPJc4JN1JSaXjg0H1SjCVgNXofucqpSIB+a189zkvIhtfQlUsl+CgzwyXFVmBY1hhVBlAeuhZgVM8Jr4EOyMdkawJnjCSeJVckBb8mBKBgWoDCqh04Fa6ZI7ihUdehuMh0yUz5jGj+rHiyjzJxKQs82H+Mg6Fmw2dl2Tole+WSTrvhudmPVhgJYPWoCWd38FRqYcD5HKmy2GY5WmjL8vdsGWjTOZqeCsAZ9iWTKB4NsFM05/Kc3ZihucyD+alREFcMl8GJ7x5sexdJqEdTwNSiYZQmW/CmlQOGbkLRDhVGhQWaSjJZp1X0vR7bV6MqtP/GnUW4ZVz1tFsXMazUkpHBVSJseJXhW2ll+G4G622Eq289NO/cnFLJ7GUdeu9Qp+Vr9yEXQM8CRTv8m6EJKpKDBtOmVZ5F26GwaNMqxI8bzXgEz/nXGdyep+BCx5JmH6YDhu8qnCrDwVUg5dXaT7gF4NVgxqAF/Pjo642bd/1V/+gP//Fjw+kbd69sjwqADItP9fiWgLHXyZWAAUU/kp7dgDFB+7AzvzqhzNqeaX0YJ4Jwy3ji0qVyelX8a9JsgAgXD9WXBUGfilF6m8kkEm6KhPFyzz6Aw+q0kT52XsN2IRR+67U+RpXG+A1H69qjyvLaC5X0dQyDmGeUR/UaPk9K5eP3mudxGe9JhHWfqiJW+st/LJhJawKTBtLtTekZdQSyxk4Eb82Xj7nT20qr33OdGu8jXKuaDN+M5MX4BLfCoASd+/nS1PQGb5SmBkeD8tL6UNXCyNhVtIpvr721zDT0c7hBfEc0qQ+R/iVqCWDLRlhfgdAJlNJy5twS2R8r3yq3v1cfs+w/HjPKz2K57Keq4y5BMZdZuZQqex8vPs5mRTPJTyTej1dSa+vZxrTYdekee1t5Tk9M76n+Mq9UvfF2LkmYG2PpHcSYCVwqeAtCVkiKJ3P0+P6rUocGaAIXSWk7GYLYiq+nMarfLdBlLjql4RXtpIyUOVei8+0T/kqnDJMeZ8pXNVvBvyq387zUMJP3H0pr9p4lYyllFaTyZrHDF2+l/daELXPpaRTpu23rBMjetUwkBKWw6NErRJGXHIrkEqAEpb3qhTC83RX1mk1n8KtwKhpRPk5O5kSAGFSwjYsV8noaj4XjyAgDiU+5fe8V9Kp9atNs9b/Qp5rpb0LCV+GuUxpvjkkmrJQyvv0NltbZ1lwtR5lJO5nrfSaMD7OFG46yLKBTIs64+v0uDMGqqRb++1C49XGuZDnS4WbDYefUpKcnuZM8KvMY3rgynvCrP1W9gy1ftOeSyZieqWUMy3I+V9rK7smTyq1q+41yJ2W3qphrvDDpTCM2aJek+abi9FU63s6EdZQdjVMWXqVsNOZU/n5Qu+vgXuhES8h3JVI8xLQPWfUkimcM9AV+lhDPlXp42I6kiuE9tWU7JuL0VxNJftG4VLTa5yhDH2j0n+j0rlS+SyZTG36b1Se30TpXFlGc7kq73zjz/N9fz0q9PVO07KbXn7T319vHGYqt9cjzen5mv4+Pc3a99rnmfA9l990qWV6urVxLyWdWjhv0udLHTBcHcVyLgK4OjB8/bAw7+X1+qVydsivd9nX5q32+ewYnfnlcuBXplt7PzOV62/nKYFrd9aploDsTWrfz5PpN8XnC8nvhYS51MK4Gsr+XPl8o/A7Fw6XWsZvgvhXduh0uQrweiUXJVlbDm+UKF+b5uWqz5ng1KZT+2zYc+V1etiZYM/GrxbuudKfDezXI04tvhcD/1LyVpPmm2PodDEF92YKW1ORr8nWub69JvB1j/OWwLnK81zfzgv4rRHgyg6dLhO3fGtU1Sxy+VZpAFdDPt8IHC6lvcyCfC5nlOsSzeUszeuwrpfA9RKYsQSuM5oZi+W65/USuF4Cl7MErjOay1ma12FdL4HrJTBjCVxnNDMWy3XP6yVwvQSyBC6T7unKTm9fpkxcJ4nrJfCWKIEr1V4uQ7r/P1YwzcMYLIumAAAAAElFTkSuQmCC;" vertex="1" parent="1">
          <mxGeometry x="79.49" y="120" width="41.02" height="40" as="geometry" />
        </mxCell>
        <mxCell id="ddCJXQsrm5lGL4eYq6sv-21" value="" style="shape=image;imageAspect=0;aspect=fixed;verticalLabelPosition=bottom;verticalAlign=top;image=data:image/png,iVBORw0KGgoAAAANSUhEUgAAAL8AAAA2CAYAAACWVUgWAAAYfmlDQ1BJQ0MgUHJvZmlsZQAAWIWVeQdUFE2zds9GdlmWnHNOknPOOecosOScMypRJKgEAUVABRUEFUwEERURRBQRVMCASFCJKqggCMgdgr7v5/ef/57bnJ55trq6qrqqe2qKAYB1hBQeHoygAiAkNDrS2kCby9HJmQs7BSD4jx4AQE3yigrXsrQ0hTH4ff/PtjwE88LtudiWrP8e//82Gm+fKC8AIFcYe3pHeYXAuB0AVLlXeGQ0AJgtOm9cdPgWToExXSRsIIyLtrDfDr6whT13cNs2j621Doz7ASAjkEiRfgAQR2A6V6yXHyyHuA6P0YR6B4QCQA+vHKPu5U/yBoDVEubZExIStoX3wVgI5g+H8TkYK3r+S6bff8j3/COfRPL7g3fWtd3IdAOiwoNJCf9H1/zvLSQ45rcOAbgT/CMNrbfWD/vwZVCYyRYmwHg+1NPcYsvXMF4J8N7xOwAIvH+Mod0OP4LNK0oH9h9ggLGkN0nXBMZsMNYPDTY33aV7+gboG8EY9hkiPiDayBbGTDDO8onSs9nlORMZZr2rC9HkG6mjtUt/SIrc1rulazQmyE5rV/5Xfx+jXflIYqK/rQOM8TDmiw2wN4cxEcbiUUE2Jrs8qon+Oua/eSJjrLfs54OxtU+ogfaOfGSsb6S+9S5/TkjU7/Uiz/gHGJnv4mvR/raGO/5BdnqRtu2H14Ls9wnVsvstxyfK0fT3Wrx9dPV21o6c9gm1s9mVsxIerW29MxeFDw+23OVH8fgEG2zReWAsGxVrszsXZR8Nb84d+Sjf8GhL2x07UYmBJGPLHXtQ+cAU6ABdwAVi4O4JwkAgCOibb56Hf+2M6AMSiAR+wAeI7VJ+z3DYHgmFrzYgEXyCkQ+I+jNPe3vUB8TC9I0/1J2rGPDdHo3dnhEEPsI4BJiAYPh3zPas0D/a7MF7mBLwX9pJcPeC7Q2G+9b4/5v+m/oPRQummO5SYn5r5KL8zYnRw+hiDDH6GGEUC0odpYIyha+acJdGKaKUfq/jH370R/QAegI9iB5Dv3IPSIv8y0ozMAbL19/1hee/fYESgGXKobRRarB0WDKKAcUCxFCysB4tlAasWQ6m6uzaveUVrr9k/8cK/hWNXT6cJA6BY8Rp4oT+nkkUIcr9kbLl63/7Z8dWzz/+1vkz8rd+nX953xu+m/zNicxCXkd2I+8he5BtyGbAhbyLbEH2Im9v4T+76/327vqtzXrbniBYTsB/6SPt6tzyZJTkRckZyfWdsWif+Oitg6cTFp4QGeDnH82lBWcHHy6jUC/xPVzSktIyAGzlmp3H1zfr7RwCMTz9h+YzDYAqfGZw/f/QAo8BUNcFAGPOPzQBFwCY9wBw9ZlXTGTsDg21dUHDTwlK+KQxAw7AC4Tg9UgDeaACNIEeMAYWwBY4ATfYy/7wPo8EcWAfSAWZIBfkg2JwEpwGZ8EFcBlcA82gDdwDD8Bj0A8GwRt493wAc2ABLIM1CIKwEAVECzFDnBA/JApJQ4qQOqQHmULWkBPkAflBoVAMtA9Kh3KhQugkVAnVQlehm9A9qAcagF5B49AM9BX6iUAiCAg6BDtCACGBUERoIUwQtoi9CD9EBCIRkYE4ijiBqEJcQjQh7iEeIwYRY4g5xBISIMmRDEhupBhSEamDtEA6I32RkcgDyBxkCbIKWY9sheP8HDmGnEeuojAoWhQXSgzewYYoO5QXKgJ1AHUYdRJ1AdWE6kQ9R42jFlC/0BRoNrQoWhlthHZE+6Hj0JnoEnQ1uhHdBZ+lD+hlDAbDgBHEKMBn0QkTiEnCHMZUYBow7ZgBzCRmCYvFMmNFsWpYCywJG43NxJZiL2HvYp9hP2BXyMjJOMmkyfTJnMlCydLISsjqyO6QPSObIlvDUeH4cco4C5w3LgGXhzuHa8U9xX3AreGp8YJ4NbwtPhCfij+Br8d34Ufw38jJyXnIlcityAPIU8hPkF8hf0g+Tr5KoCGIEHQIroQYwlFCDaGd8IrwjYKCQoBCk8KZIpriKEUtxX2KUYoVIi1RnGhE9CYmE8uITcRnxM+UOEp+Si1KN8pEyhLK65RPKeepcFQCVDpUJKoDVGVUN6mGqZaoaamlqC2oQ6gPU9dR91BP02BpBGj0aLxpMmjO0tynmaRF0vLS6tB60abTnqPtov1Ah6ETpDOiC6TLpbtM10e3QE9DL0tvTx9PX0Z/m36MAckgwGDEEMyQx3CNYYjhJyM7oxajD2M2Yz3jM8YfTKxMmkw+TDlMDUyDTD+ZuZj1mIOYC5ibmd+yoFhEWKxY4lhOsXSxzLPSsaqwerHmsF5jfc2GYBNhs2ZLYjvL1su2xM7BbsAezl7Kfp99noOBQ5MjkKOI4w7HDCctpzpnAGcR513OWS56Li2uYK4TXJ1cC9xs3IbcMdyV3H3cazyCPHY8aTwNPG958byKvL68RbwdvAt8nHxmfPv4LvK95sfxK/L78x/n7+b/ISAo4CBwSKBZYFqQSdBIMFHwouCIEIWQhlCEUJXQC2GMsKJwkHCFcL8IQkROxF+kTOSpKEJUXjRAtEJ0YA96j9Ke0D1Ve4bFCGJaYrFiF8XGxRnETcXTxJvFP0vwSThLFEh0S/ySlJMMljwn+UaKRspYKk2qVeqrtIi0l3SZ9AsZChl9mWSZFplFWVFZH9lTsi/laOXM5A7JdchtyCvIR8rXy88o8Cl4KJQrDCvSKVoqHlZ8qIRW0lZKVmpTWlWWV45Wvqb8RUVMJUilTmVaVVDVR/Wc6qQajxpJrVJtTJ1L3UP9jPqYBrcGSaNKY0KTV9Nbs1pzSktYK1DrktZnbUntSO1G7R86yjr7ddp1kboGujm6fXo0enZ6J/VG9Xn0/fQv6i8YyBkkGbQbog1NDAsMh43YjbyMao0WjBWM9xt3mhBMbExOmkyYiphGmraaIcyMzY6ZjZjzm4eaN1sACyOLYxZvLQUtIyxvWWGsLK3KrD5aS1nvs+62obVxt6mzWbbVts2zfWMnZBdj12FPae9qX2v/w0HXodBhzFHCcb/jYycWpwCnFmess71ztfOSi55LscsHVznXTNehvYJ74/f2uLG4Bbvddqd0J7lf90B7OHjUeayTLEhVpCVPI89yzwUvHa/jXnPemt5F3jM+aj6FPlO+ar6FvtN+an7H/Gb8NfxL/OcDdAJOBiwGGgaeDvwRZBFUE7QZ7BDcEEIW4hFyM5QmNCi0M4wjLD5sIFw0PDN8LEI5ojhiIdIksjoKitob1RJNB7/U98YIxRyMGY9Vjy2LXYmzj7seTx0fGt+bIJKQnTCVqJ94PgmV5JXUsY97X+q+8f1a+ysPQAc8D3Qk8yZnJH9IMUi5kIpPDUp9kiaZVpj2Pd0hvTWDPSMlY/KgwcGLmcTMyMzhQyqHTmehsgKy+rJlskuzf+V45zzKlcwtyV0/7HX40RGpIyeObB71PdqXJ593Kh+TH5o/VKBRcKGQujCxcPKY2bGmIq6inKLvxe7FPSWyJaeP44/HHB87YXqipZSvNL90/aT/ycEy7bKGcrby7PIfFd4Vz05pnqo/zX469/TPMwFnXlYaVDZVCVSVnMWcjT378Zz9ue7ziudrq1mqc6s3akJrxi5YX+isVaitrWOry7uIuBhzceaS66X+y7qXW+rF6isbGBpyr4ArMVdmr3pcHbpmcq3juuL1+hv8N8obaRtzmqCmhKaFZv/msRanloGbxjc7WlVaG2+J36pp424ru01/O+8O/k7Gnc27iXeX2sPb5+/53ZvscO94c9/x/otOq86+LpOuhw/0H9zv1uq++1DtYVuPcs/NR4qPmh/LP27qlettfCL3pLFPvq/pqcLTln6l/tYB1YE7zzSe3Xuu+/zBC6MXjwfNBweG7IZeDrsOj730fjn9KvjV4uvY12tvUkbQIzlvqd6WjLKNVr0TftcwJj92e1x3vHfCZuLNpNfk3Puo9+sfMj5SfCyZ4pyqnZaebpvRn+mfdZn9MBc+tzaf+Yn6U/lnoc83vmh+6V1wXPiwGLm4+fXwN+ZvNd9lv3csWS6NLocsr/3IWWFeubCquNr90+Hn1FrcOnb9xIbwRusvk18jmyGbm+GkSNL2qwAS7ghfXwC+1gBA4QQALVy34V12asHdhoRfPhDw3R7SQ2ghFVFMaDyGDCtJ5oRLx98lYChIxGYqPHUwzSM6OfpyRsAUxNzHKs+Wzz7HqcmVxz3Ai+dT4ncSCBIMEXIV1hZhF1kUfbCnVCxIXE2CQuKdZINUirSVDLfMJ9mbcgflrRTYFD4o1ivFK2up4FWeq5areavvUf+q0ay5T0tbm6D9TueObp1ehX6BwQFDkpGGMZPxokmvab1ZhXmlRZvlpDXahtmWxY7KHmm/7rDmBJxxLkRXir2ovUtuE+79Hu2k657VXqXeOT4Jvn5+tv7aAbKBIkHcwcwhlKHI0O9hE+H9Ebciz0UdjU6OyYxtjEcl+CS27wP7BQ4oJxuluKTGpB1NL85IOih7cDIz75BlFn82eQ7IRRymPiJ0VD3PPN+hwLnQ+ZhjkX2xbYnVcfMTJqUGJ7XL1MuVKmROiZ0WOSNZaVKVfnbsvFH1pZq5Wuo6/otSl1Qu69abNThccb/qfy38etyNA41pTQebs1pyb+a1Ft8qb6u+feNO193h9rF7Qx0N9307mTofdpU8iOv2fbi3x+GR1WOTXoMnhn22TyP6zwy8ek7+QmJQZ8hoWO+l4iv+18TXq2+mR16+vTd69l36mN+43YT5pNl7iw8WH42nlKYZp8dmcmZlZ8fmLswnfjL8TPa59ovBl8mFs4vxX92+WXw3Wwpc7lg59LN5Q3dzczf+UkgUcgY1hp7ELJAhcfJ4f/JywhhRhDKO6gENM20C3QsGacY0prcscqyZbP0cLJyOXAXcbTwjvEt8y/yzAk8EzwpFCquLkIm8ED29J1BMTuyX+AOJo5IOUpxSU9L1MrGyanKQXJd8joKFIq3ikFKpsosKu8oIvAtc1ZnVhzWOa7poCWitaQ/qXNU9rOejr2pAbfDRsM2o2DjWxMfU08zfPMwixNLTysJaxUbEltWOaI+wX3aYchxyuu9c71LmmrM30S3A3dFDlyThyeQFec16D/p0+jb6VfuXBGQEhgU5BWuGCIZSwDthPHw04nsUd7R7TGnsvbiX8ZMJ84mr+8j3cxwQSuZKwaS8S21My0uPzHA7aJfpeCggKz27IudybuPhpiM3jl7Nu5xfW3C+8MyxsqLi4ryS7ONpJxJKw076lQWUp1TcPS185kKV4NnCc8/Pr9YQL7DU8taJwPtA4bJ6vW6D2RWnq8HXMq+fvXGncaBptHm65Vsr8hZjm+htlTuadxXaue8h7k10dN9v7KzpKnuQ333wYWJP5KPox9m9bX0MT/f3v33G8lzjhe2g71DK8PmXT199f0MzIvbWdDT83fGxW+PPJkYnJ97PfUTD0U+dGZijnpf8JPdZ4Avll5WFj4vDXx99u/m9cil52f6H4I/llbbVxJ8qa4R13Y2Z3fiLQ3OICqQbShiNRS9iZrCzZBO4RXI8gZ9Ci+hMmUp1iXqAZpOOn16PIZDxINNp5hssXawP2R6w3+Ko5Izn0ub6yX2Ox4RnjjeLT5Cvg9+Nf1WgSFBS8JGQnzBWuEbEUGRKNHOP0J4uMS9xIF4hoSrxUjIGfrtpkDaVnpZJl+WQbZGzlpuXP6jAqdAMv7VMKyUrMyhfVNFSeabqpfpZLUkdq16mIasxpJmoxaHVom2h/UrHX2dTt0rPUh+nf99gn6Gs4axRlbGrCZPJkGmxmY05pXmPRbqliuV3qwbrIBtBm/e2lXZ77ZntXzjkORo6bjo1Oge78Lm8dS3Za7532a3Ind/9hoeWx2tSvCeP50v4OeLvY+Cr4KfkbxRACgwJIgVrhFCFjISeDwsJlwtfj7gfmRNlGU0f/SbmdKx3nEDcx/hTCXoJI4nBSXRJz/fd2n/nQGfy/ZSbqbVpJenpGWEHXTL1DolkobNeZJfmOOfy5a4dHjvy5OjNvDP5BwpcCpWPsRxbLRoqvlZy/PiRE4WllSevlz0of1kxe2rtDEUlV5XMWcNzrufDqg/UZF84XJtSR7qocIl46evlT/WrVwhXOa5JX7e8kdR4o2mlRelmeGvprSttLbdv3em5u3TPoONmp03XUndJj8yjF71H+jz6jZ5pvdAeCn5FHJmb6Jtd+r66Ff+d/wluNYw8AMdS4Qo1EwA7DQAKOuE6cxCuO/EAWFIAYKsEEAK+AEHoBZDy+J/8AcHZBgPIATVgApxAEEgCZbhKtgDOwBdEwdVlHjgF6sEd8BSMg+9w5cgGSUEGkDsUBxVAl6CH0EcEBiGEMEVEISrgOm8TrutikTeRv1AGqGOoCbQMOgv9DqOMKcWswRXWIzIFshocK64AT47PJseT5xNYCDUUshRtRDViK6Ui5S0qQ6o31NE0VDSXaXVpB+hs6QboLeifMbgzrDCWMqkxjTLvZ2FlaWV1Y8OxtbHHcshyfOO8xhXJLce9ztPNW8Lnz68qQBQYE7wulCXsKaIlKrCHuGdN7LP4e4lByUapJGkp6VGZLFk52S9yLfKFCgmK3kqmypIqjKpENXH1Mk1RrSPaPTpf9Mj06Q2YDdmM+IxlTcxNI8xOmHdafLXitXawOWrbbY9y0HXMdOp1YXD13Fvn9t4DQ6L2xHgueX3wHvGZ9aP0NwkoDpwKVg0pCv0cbhxRF0WIjoh5Hacf35IollS9n+tAWQpDakE6PiP14NKhwKy5nNzDIUcbC6iPsRR9Kqk94X6Soay/4shpgzNLVXnn6M5nVS9fCKr9ejH/sl4D9ZXFax9vTDfNtUy1TrYt3mW8p3Pfrcuj26ZH47HEE+Gn8gOhz1eGUa9xI6ff0Y7f+UCc3jen9anhy9pX+e/6y/gfR1YerU7//LD2av3GRv4vz03J7efHVvyxgABoADPgBiJABqgBQ2ALPEAISALZoBTUgpvgMXgLFiA0xAJJbkc/ASqCrkB90CcEJUIG4YxIR1xDfEByIt2R55DzKHlUBmoQLYxORY/AsS/DAqw/dpBMj6wFJ4GrwwvjL5HLkt8lWBImKeKJOGIxJTflFbh+fUMdR8NA00xrT/uJbj89nv4EgxjDI8YwJkamduYAFjqWdtYwNj62EfZSDkdOJs5XXBXc3jySvID3Bd9F/gwBV0FZuJabFe4VuQ5nsTyxdPF9EtGSXlKa0gTpPpkcWRM5RrlF+VcK3YpNSlXKh1USVWPVstVbNH5oyWh76+TqVus16d8yuGV426jHeNwUYSZibm9x0LLZat6Gz9bdrsJ+1JHHKdC5yRW718HtpHuXxwCpw7PWK8s7wMfa19DPyT8toD2IItgzpC2MJTwx4m2UdnRtLGVcePzjRO6k2H39B+SSz6WyphVl4A8mZc5nkbInchOPSOYh8t8WXi2KLZE9/rX0allMhfKpn2eqq6TPVpybqhas8b9wpY7xYvlltfpPV0qvKV3vayQ1rbVUtVq1gdu1d03bFztOd3o+UH7I/Qj1+MmT2KeY/pxnhOdVg+7DZq+C39S8nRrjnLB8n/rxzgzjXP5ngYUn34qWD68arUmvn9p4/2txN/4ogANU8OnnBqJAHugAS+AGx34/fPIrwQ3wEIzC554ACUCa0F4oCSqDbkPjCBwcdRKiGNGPpEf6IG+j2FApqFm0E/oJRgdzG6uGvUdmSvYWF4WnxF8htycgCc0UEUQp4gplF1UpdQyNE60RnTG9FYMxowKTMLMciztrAls0uyeHLac5lxm3GY8prxmfNb+7QJTgEaE64YciM3soxBTEfSVOSg5Js8h4yzbIrSlYKj5RzlZ1Ukdr5Guua5vopMMRbNZvM7hj2Ge0ZmJi2mQubnHJSty6yVbHbsghxAnvfMnV3o3ag9zT3dvF572fin9uwMcg6+DeULOwZxEukdPRSbEccaMJD5La91ck26X8TKvMsM/kPLSQfTv38BHfPIMC5sLHRb7Fy8fTS6lPVpXLVzw57VsJVZWfUzw/WBNTy1r38FJyvcEViWv6N5KbqlryWp3aGG8P3y2753Qf23n+gWz3rR69R8O98X0S/ciBhefTgwPDBa8EX1e8+fVWbzTn3eNxygm7yTPvZz5KTQVNn5l5ODs7j/7E9lnyi+6CwyLpq/c3y+8835eWjiyzLdf9UPpx8sfqisNK0yrDauRq0+raT82fGT971ohrNmvH1/rXydY11+PXr67PbHBvOG0Ubjza2Pgl9cv71/Ffj3/92pTa9Nk8sdm7Ff8oXxnp7fQBEbQBQI9ubn4TAABbCMBGwebmWtXm5sZZuNgYAaA9eOc703auoQKgfGELPW75XPn3N56db1D/qmP+voPtTLStFc5EW20rK4H/Ab8i6V9gYWvZAAAAVmVYSWZNTQAqAAAACAABh2kABAAAAAEAAAAaAAAAAAADkoYABwAAABIAAABEoAIABAAAAAEAAAC/oAMABAAAAAEAAAA2AAAAAEFTQ0lJAAAAU2NyZWVuc2hvdJyfQrAAAAHVaVRYdFhNTDpjb20uYWRvYmUueG1wAAAAAAA8eDp4bXBtZXRhIHhtbG5zOng9ImFkb2JlOm5zOm1ldGEvIiB4OnhtcHRrPSJYTVAgQ29yZSA2LjAuMCI+CiAgIDxyZGY6UkRGIHhtbG5zOnJkZj0iaHR0cDovL3d3dy53My5vcmcvMTk5OS8wMi8yMi1yZGYtc3ludGF4LW5zIyI+CiAgICAgIDxyZGY6RGVzY3JpcHRpb24gcmRmOmFib3V0PSIiCiAgICAgICAgICAgIHhtbG5zOmV4aWY9Imh0dHA6Ly9ucy5hZG9iZS5jb20vZXhpZi8xLjAvIj4KICAgICAgICAgPGV4aWY6UGl4ZWxZRGltZW5zaW9uPjU0PC9leGlmOlBpeGVsWURpbWVuc2lvbj4KICAgICAgICAgPGV4aWY6UGl4ZWxYRGltZW5zaW9uPjE5MTwvZXhpZjpQaXhlbFhEaW1lbnNpb24+CiAgICAgICAgIDxleGlmOlVzZXJDb21tZW50PlNjcmVlbnNob3Q8L2V4aWY6VXNlckNvbW1lbnQ+CiAgICAgIDwvcmRmOkRlc2NyaXB0aW9uPgogICA8L3JkZjpSREY+CjwveDp4bXBtZXRhPgriMXGRAAAIj0lEQVR4Ae1cXahVVRAexTeN3sTeorKC6PepzApES6KykDSKEEQTKq0oRAgT+oEQIokKIhF6iSSEhIj+CKKSAiOtfCgrerAQHwpJe+y2vrude+asOzN7nX32vedy9izYd629fr41M+vbs372Pnfef6dpgiKEBTpogfkd1DlUDgtMWiDIH0TorAWC/J0d+lA8yB8c6KwFgvydHfpQPMgfHOisBYL8nR36UDzIHxzorAWC/J0d+lA8yB8c6KwFgvydHfpQPMgfHOisBYL8nR36UDzIHxzorAWC/J0d+lA8yB8c6KwFgvydHfpQPMgfHOisBYL8nR36UDzIHxzorAVc8m99imj++cNf777XWft2TvFTp5rz5eNPbXOhDDxaeYeOD66i3MPI0RfkGXEfFphLFgCh12+ol+i1N4lwcXjpBaI16UG56ELOmR67nn969cgJC8yOBc6eJYI3LyG+JtGTTxMdfF8r6eUF+Xu2iNQcssDuPf2evIloD6zzWwX5fftE6QgsgHX7c7uH63jndqLFi32MRuRfcRNR+k9vxde9dxO9/Kq+UcGGet9bupC70rpN23Bffh3Rb79XbbRy5CGgDtaMeR3eHE1WMv7kbfge1TElA1ceCBgwUzJoGzXYBDilgfu1bHn/xvpNXxsYnrwgnMeNk8e91lXZV9/Ydfa+ouPvTxzCOp/D2sS52oB/V2hdj2ye/FeG+HeGfVciv9nGwkL+fWv7cSTulx/1Y354oKyuxJDpZKQ+mWWZTKMfTWZZR6Yhp7zndI6RBnnCsh+3kXEaPFUOxk0Dq/YrMfJ0rlsbGCxP0xh2yeXke5YX/OI8GSdv7toIMv3zJ03U2ZJlb+T5k0CNwp4XiS69WG/6zPOVR0Upjsu2pWlLC3jCl12vlfTnbdrWf2/drV5bzUpWeZ6//LY8Z/r998eIliwdbM2KjR08NzxzHpCPDdyg4fSZXos2MHpoo0n99Xd9vwsXEmGlURJmlfyYEve9rov12RdE2OQgPL6D6Odfq7T8i3VcqWKyXV0axBpk+eHhYal1zTKvhl32zgGizVv7yyEX8gcNcDK3r6patYExaP/D1LfW6jjK5KUdHOTQgacALR5k2k6CqFMVprkc21uSWEsjTIWY0nIsq98m+VLWQdtDLshnTdmD4PH0D8xEYtWudXhY4rCt2sBgrGHjkmUPli11+nE5OIr6+bK5RE5sTqaMlKdnivzoxyI5K5XHvxzV5czryXv0Idsh7fWLh5JtIHHyNMgkCcptvEFDGddDDBJgDZtj417uqbRy5GmDDf3QD9qXPMiDYEjZh0mXkB9OxBsnyybIx0N/5FC/rS15R0Z+GKHUI+XEkcpYhrBmCs87w+CMbeFCZkksro/YGjDtQeF2loPhh1azkScD48q4DQyJN0y6hPzAH+YB4IegTs5ZXfMnoaaCt/6fqpQSTdf5WzYRYfOTB+ShTAtYW2sbTll3+2P2+bG1Nsemmo9K81i+kpf9nDxZ3W1Jm908YD+EDTWwcEyMNT0uax3cBkYuw0zfY5ze3keUHAclpzJwwD4OR+Vu8J4OyyslQHW61vItL8n9eut/y3tzW8Ran8jzpj6UWe1YXqvc8uKeR7OwvHzuB7iwg1c3L8PUzzMHbNQGhrT5MGnPTqyzhY8VAK5cX+/e40Ejz58Gw32RkYSfKrd27kng2oAToKM/1FYbywqLFlVqwX4H9xMlJ1Ec4PUuuZoIR64IbWBUSKP9i5M+XMwvzAp1djl82Ja5EfltuMFKDn1NVHcev/Fhezr3evvpuF3qlWlLJRupV+I95BgkHrDSWL7LgEwbN1QYyZNR8n6TV/Lwblj3YG8Z1waG25ko9JaOZ/4VFbPkkguyjJrbW1dWdkn7A/P90XeO8xwZ+XEeXvLCCOtbnPsPGt7Y2xt42RYDgzItYG3ZlPzAS8tENezeo8vCleEEPMLIsquuqLwfPOATj/YeKuyN8gDb8czZBkaOb93v2GW/OPz2iNWKaFF6yDng+x6s2cGTuoAxW7Wirtb08pGQHwPxUBq40oCNpPX9j4WBJRNeGEnjIY08lGlh5S1abnnenav1uuhvzfrpP7SAPPhOB04AhLEC2uJ7JmxqrR9rWG8//zi3cW4Dw5JP5kMfbOKx9MK3T9L+eMh3Pitr99LpRKrv23s4DHzchuUbvouC7mivBXDDOji49kqtxbm8NA1PHe/l6TY2vKmbCVwS2zrfxpGc16d2Ls34bcTYjLGcFl7dpmzQzansB3bh/jmGzrLOoGm0bwOD5fFi7/CiTm75Ug42rqtfWi7HNJcda9FpBuc8j4ilnXM9xvR26xgk7xxeO99m/GFjyMUyIrbw6siPUxarbUm+JAHkGGYMYC/Ysw0MaRst7Y1rid6SpNb7khIcWQcPoyYr580q+T1iSEE9TwXDsPCIpbJN0znhPNw68qMtjtdAvCbywPuDsIzTBIPbQA5cfN8kRnvIUneBvE1JK20KnCZy5m20Mc11mDXyex49JzSE9KZQ6aVzpfneWlpxOcfS8NI4XJ7HVn3ZFmnoiwHI23v3GnYTjwp7ynP+NjBy/ax7b9xy3eEg4Og0LMjcxIFg2Wlh5v3MQ0YSSg3YsFgbCbWBk5mmXhMrPe3TfnWDTTE2adbmNCk4+Wkz3nJqIRGJbryB6INPqtMdiQNZbl7ufyHq4eKIrTRAD8jw4zH910mJLHRe0qHua1Vs9rB5tXAS4emeu4guW0qEEyEttIGh4Wp52KCeOKF/il2qM3Dx1vrzdLyLgM2y9rVvie4VQv9fl/z9VefmXVsknZvahVQzaYGRHHXOpEKBHRYotUCQv9RSUW/sLBDkH7shDYVKLRDkL7VU1Bs7CwT5x25IQ6FSCyworThX66Wj2ghhgUYWCM/fyGzRaBwsEOQfh1EMHRpZIMjfyGzRaBws8D+uKM1dEGHuwQAAAABJRU5ErkJggg==;" vertex="1" parent="1">
          <mxGeometry x="540" y="90" width="70.74" height="20" as="geometry" />
        </mxCell>
      </root>
    </mxGraphModel>
  </diagram>
</mxfile>
